<svg width="155" height="113" viewBox="0 0 155 113" fill="none" xmlns="http://www.w3.org/2000/svg">
<g clip-path="url(#clip0_3_6978)">
<path d="M80.7996 110.105H49.4398C46.4676 110.105 44.0581 107.689 44.0581 104.709V89.4874H80.7994V110.105H80.7996Z" fill="white"/>
<path d="M70.2157 110.105H54.6416V103.56C54.6416 102.329 55.6365 101.331 56.8639 101.331H67.9932C69.2206 101.331 70.2155 102.329 70.2155 103.56V110.105H70.2157Z" fill="#B1E4F9"/>
<path d="M84.0128 2.19336H40.8441C38.2947 2.19336 36.296 4.38887 36.5281 6.93444L44.0577 89.4874H80.7989L88.3285 6.93444C88.5608 4.38887 86.5621 2.19336 84.0128 2.19336Z" fill="#D3EFFB"/>
<path d="M46.8295 2.00537H38.1706C37.4821 2.00537 36.9423 4.19931 37.005 6.74304L39.0385 89.2368H54.5L47.995 6.74304C48.0578 4.19931 47.518 2.00537 46.8295 2.00537Z" fill="#B1E4F9"/>
<path d="M84.0128 2.19336H40.8441C38.2947 2.19336 36.296 4.38887 36.5281 6.93444L37.007 12.1841H87.8499L88.3288 6.93444C88.5608 4.38887 86.5621 2.19336 84.0128 2.19336Z" fill="#D3EFFB"/>
<path d="M123.94 110.105H79.9329C74.566 110.105 70.2153 105.742 70.2153 100.361V83.5384C70.2153 81.0534 72.2246 79.0388 74.703 79.0388H129.17C131.648 79.0388 133.657 81.0534 133.657 83.5384V100.361C133.657 105.742 129.306 110.105 123.94 110.105Z" fill="#FFCFBA"/>
<path d="M79.3151 110.293H71.6849C70.7544 110.293 70 105.928 70 100.544V83.7121C70 81.2257 70.3484 79.2101 70.7781 79.2101H80.2219C80.6516 79.2101 81 81.2257 81 83.7121V100.544C81 105.928 80.2456 110.293 79.3151 110.293Z" fill="#F4BBA3"/>
<path d="M129.959 63.5062H73.913C71.8706 63.5062 70.2148 65.1663 70.2148 67.2142V79.0391H133.657V67.2142C133.657 65.1663 132.001 63.5062 129.959 63.5062Z" fill="white"/>
<path d="M89.4678 89.7465H114.405V99.3971H89.4678V89.7465Z" fill="white"/>
<path d="M57.4909 53.2242C54.924 50.6505 54.7523 46.5343 57.0956 43.7547L61.4454 38.595C61.9593 37.9854 62.8966 37.9854 63.4104 38.595L67.7603 43.7547C70.1035 46.5343 69.9318 50.6508 67.365 53.2242C64.6383 55.9582 60.2176 55.9582 57.4909 53.2242Z" fill="white"/>
<path d="M124.25 20.6529C128.616 21.1813 132.483 23.084 135.491 25.857C132.984 27.8194 131.064 30.4533 130.041 33.4729C127.013 42.4087 118.061 48.2984 108.351 47.0987C106.062 46.8159 103.91 46.1604 101.946 45.2017C101.473 43.0406 101.35 40.7661 101.621 38.4462C102.918 27.3081 113.068 19.2997 124.25 20.6529Z" fill="#C1EECC"/>
<path d="M129.959 61.3127H111.78C110.572 61.3127 109.592 62.2946 109.592 63.506C109.592 64.7174 110.572 65.6993 111.78 65.6993H129.959C130.792 65.6993 131.469 66.3788 131.469 67.214V76.8455H72.4023V67.214C72.4023 66.3788 73.08 65.6993 73.913 65.6993H92.092C93.3 65.6993 94.2795 64.7174 94.2795 63.506C94.2795 62.2946 93.3 61.3127 92.092 61.3127H85.5647L90.5063 7.13421C90.673 5.30849 90.0616 3.48474 88.8289 2.13081C87.5965 0.776654 85.8408 0 84.0123 0H40.8435C39.015 0 37.2593 0.776654 36.0266 2.13081C34.794 3.48496 34.1826 5.30849 34.3492 7.13421L41.8699 89.5876V104.709C41.8699 108.894 45.2653 112.298 49.4391 112.298H123.939C130.504 112.298 135.844 106.943 135.844 100.361V83.5387C135.844 82.4918 135.603 81.5006 135.174 80.6174C135.587 80.2184 135.844 79.6596 135.844 79.0393V67.2145C135.844 63.96 133.204 61.3127 129.959 61.3127ZM73.913 61.3127C70.6677 61.3127 68.0273 63.96 68.0273 67.214V79.0389C68.0273 79.6591 68.2852 80.218 68.698 80.6172C68.2688 81.5004 68.0273 82.4916 68.0273 83.5385V87.2941H46.0539L39.403 14.3774H85.4525L81.1716 61.3129H73.913V61.3127ZM39.2582 5.08784C39.6697 4.6358 40.2327 4.38664 40.8435 4.38664H84.0123C84.623 4.38664 85.1859 4.63558 85.5976 5.08784C86.0093 5.5401 86.2052 6.12506 86.1497 6.73458L85.8526 9.99057H39.0029L38.7059 6.73458C38.6503 6.12506 38.8465 5.5401 39.2582 5.08784ZM46.2449 104.709V91.6807H68.0276V99.1397C68.0157 99.1397 68.0046 99.138 67.9928 99.138H56.8634C54.4318 99.138 52.4536 101.121 52.4536 103.56V107.911H49.4388C47.6777 107.911 46.2449 106.475 46.2449 104.709ZM56.8284 107.911V103.56C56.8284 103.54 56.844 103.525 56.8632 103.525H67.9926C68.0118 103.525 68.0273 103.54 68.0273 103.56V107.911H56.8284ZM131.469 100.361C131.469 104.524 128.091 107.911 123.939 107.911H79.9326C75.7805 107.911 72.4026 104.524 72.4026 100.361V83.5385C72.4026 82.2668 73.4344 81.2322 74.7027 81.2322H129.17C130.438 81.2322 131.47 82.2668 131.47 83.5385V100.361H131.469Z" fill="#3B5974"/>
<path d="M114.404 87.5531H89.4663C88.2584 87.5531 87.2788 88.535 87.2788 89.7464V99.397C87.2788 100.608 88.2584 101.59 89.4663 101.59H114.404C115.612 101.59 116.591 100.608 116.591 99.397V89.7464C116.591 88.535 115.612 87.5531 114.404 87.5531ZM112.216 97.2037H91.6538V91.9397H112.216V97.2037Z" fill="#3B5974"/>
<path d="M65.0809 37.179C64.4194 36.3942 63.4523 35.9443 62.4277 35.9443C61.4031 35.9443 60.436 36.3944 59.7745 37.179L55.4246 42.3385C52.372 45.9595 52.5999 51.4224 55.9437 54.7749C57.6756 56.5113 59.9784 57.4676 62.4277 57.4676C64.8771 57.4676 67.1798 56.5113 68.9117 54.7749C72.2555 51.4221 72.4836 45.9597 69.431 42.3385L65.0809 37.179ZM65.8181 51.6731C64.9125 52.5811 63.7085 53.0812 62.4277 53.0812C61.1471 53.0812 59.9431 52.5811 59.0375 51.6731C57.2891 49.9202 57.1698 47.0638 58.7661 45.1705L62.4277 40.8271L66.0894 45.1705C67.6858 47.0638 67.5666 49.9202 65.8181 51.6731Z" fill="#3B5974"/>
<path d="M136.971 24.2427C133.493 21.035 129.184 19.0408 124.512 18.4756C118.513 17.749 112.595 19.4144 107.848 23.1634C103.125 26.8936 100.142 32.2308 99.4475 38.1918C99.162 40.6417 99.2718 43.0855 99.7675 45.4605C98.924 47.4619 98.3517 49.5881 98.093 51.7833C97.9512 52.9862 98.8085 54.0767 100.009 54.2188C100.096 54.2291 100.182 54.2342 100.268 54.2342C101.361 54.2342 102.306 53.4136 102.438 52.2981C102.606 50.8703 102.928 49.4902 103.388 48.174C104.903 48.7059 106.473 49.0768 108.083 49.2757C108.998 49.3887 109.908 49.444 110.812 49.444C120.307 49.4437 129.003 43.3529 132.112 34.1787C132.985 31.6017 134.619 29.322 136.837 27.586C137.343 27.1894 137.651 26.5896 137.677 25.9456C137.702 25.3017 137.444 24.679 136.971 24.2427ZM127.969 32.7673C125.228 40.8567 117.089 45.968 108.618 44.922C107.494 44.7832 106.395 44.5397 105.328 44.1995C106.927 41.7189 109.111 39.6212 111.768 38.0832C112.814 37.4776 113.173 36.1362 112.569 35.0872C111.965 34.0381 110.627 33.6786 109.58 34.2844C107.37 35.564 105.409 37.1945 103.755 39.0843C103.767 38.9564 103.778 38.8287 103.793 38.7009C104.351 33.9067 106.753 29.6124 110.555 26.6093C114.382 23.5871 119.153 22.2461 123.987 22.8304C126.941 23.188 129.715 24.2561 132.126 25.9511C130.249 27.9062 128.831 30.2239 127.969 32.7673Z" fill="#3B5974"/>
<path d="M101.935 65.6993C103.143 65.6993 104.123 64.7173 104.123 63.5059C104.123 62.2946 103.143 61.3126 101.935 61.3126C100.727 61.3126 99.7476 62.2946 99.7476 63.5059C99.7476 64.7173 100.727 65.6993 101.935 65.6993Z" fill="#3B5974"/>
</g>
<path d="M44.6078 74.6377H24.7822V63.4562C24.7822 62.3126 25.7067 61.3855 26.8474 61.3855H42.5426C43.6831 61.3855 44.6078 62.3124 44.6078 63.4562V74.6377Z" fill="#D2D8FF"/>
<path d="M44.1953 110.253H25.1957C22.9144 110.253 21.0654 108.399 21.0654 106.112V76.7084C21.0654 75.5648 21.9899 74.6377 23.1306 74.6377H46.2605C47.4011 74.6377 48.3257 75.5646 48.3257 76.7084V106.112C48.3255 108.399 46.4764 110.253 44.1953 110.253Z" fill="#FFDEAD"/>
<path d="M28.6363 110.293H22.3636C21.6104 110.293 21 108.413 21 106.095V76.2954C21 75.1364 21.3052 74.1968 21.6818 74.1968H29.3182C29.6947 74.1968 30 75.1362 30 76.2954V106.095C29.9999 108.413 29.3894 110.293 28.6363 110.293Z" fill="#F1CD98"/>
<path d="M42.1299 61.3855H27.2607V43.3178C27.2607 40.188 30.5904 38.1891 33.3418 39.6674L39.9503 43.2177C41.2922 43.9388 42.1299 45.3415 42.1299 46.8682V61.3855Z" fill="#F2828C"/>
<path d="M46.6732 72.588V63.4562C46.6732 61.7618 45.652 60.3037 44.1951 59.6631V46.8684C44.1951 44.5744 42.9424 42.4766 40.9257 41.3929L34.3172 37.8425C32.379 36.8014 30.0957 36.8553 28.2087 37.9883C26.3219 39.1204 25.1957 41.1129 25.1957 43.3178V59.6629C23.7387 60.3035 22.7176 61.7616 22.7176 63.456V72.5877C20.6331 72.7963 19 74.5642 19 76.7083V106.112C19 109.537 21.7792 112.324 25.1955 112.324H44.1949C47.6111 112.324 50.3903 109.537 50.3903 106.112V76.7083C50.3905 74.5644 48.7574 72.7965 46.6732 72.588ZM26.8476 63.4562H27.2607H42.1299H42.543V72.567H26.8478L26.8476 63.4562ZM29.3259 43.3178C29.3259 42.2585 30.0283 41.7226 30.3301 41.5411C30.6321 41.3599 31.4351 40.9926 32.3662 41.4927L38.9747 45.0431C39.647 45.4042 40.0645 46.1036 40.0645 46.8682V59.3146H29.3259V43.3178ZM46.2601 106.112C46.2601 107.253 45.3338 108.183 44.1949 108.183H40.4775V92.4456C40.4775 91.3022 39.5531 90.3749 38.4123 90.3749C37.2716 90.3749 36.3471 91.302 36.3471 92.4456V108.183H25.1955C24.0568 108.183 23.1302 107.254 23.1302 106.112V76.7085H46.2601V106.112Z" fill="#3B5974"/>
<path d="M38.4129 82.5062C37.8697 82.5062 37.337 82.7276 36.9528 83.113C36.5687 83.4982 36.3477 84.0323 36.3477 84.5769C36.3477 85.1216 36.5687 85.6557 36.9528 86.0407C37.337 86.4259 37.8697 86.6477 38.4129 86.6477C38.9581 86.6477 39.4888 86.4261 39.8729 86.0407C40.2571 85.6557 40.4781 85.1216 40.4781 84.5769C40.4781 84.0323 40.2571 83.4982 39.8729 83.113C39.4888 82.7278 38.9581 82.5062 38.4129 82.5062Z" fill="#3B5974"/>
<defs>
<clipPath id="clip0_3_6978">
<rect width="112" height="112.298" fill="white" transform="translate(30)"/>
</clipPath>
</defs>
</svg>
