<svg width="155" height="113" viewBox="0 0 155 113" fill="none" xmlns="http://www.w3.org/2000/svg">
<path d="M117.715 43.1262C117.715 43.1262 134.789 60.8396 134.789 87.99C134.789 87.99 119.929 93.4294 97.305 93.4294C88.4116 93.4294 80.7153 92.589 74.6536 91.5675C65.2949 89.9935 59.8213 87.99 59.8213 87.99C59.8213 60.8396 76.8949 43.1262 76.8949 43.1262V32.0524L67.689 24.4726L59.8213 17.9955L74.8458 4.49108C76.6865 2.83582 78.9579 1.93274 81.2664 1.7772C82.343 1.70523 83.4243 1.79577 84.4778 2.04882C86.1796 2.45741 87.7981 3.29085 89.1734 4.54448L90.7757 6.00705C94.4756 9.38722 100.134 9.38722 103.837 6.00705L105.439 4.54448C106.814 3.29085 108.433 2.45741 110.135 2.04882C113.448 1.25253 117.067 2.06507 119.764 4.49108L134.789 17.9955L117.715 32.0524V43.1262Z" fill="#FBD9CB"/>
<path d="M82.1644 23.9972V44.2014C82.1644 44.2014 75.1951 65.4296 75.1951 75.8115C75.1951 79.9438 74.9496 85.8986 74.6556 91.5678C65.2968 89.9938 59.8232 87.9903 59.8232 87.9903C59.8232 60.8399 76.8969 43.1265 76.8969 43.1265V21.2483H79.4227C80.937 21.2481 82.1644 22.4789 82.1644 23.9972Z" fill="#E4BABA"/>
<path d="M81.2669 1.77722C76.0341 6.66407 69.9678 16.9462 67.6894 24.4726L59.8218 17.9955L74.8463 4.4911C76.687 2.83584 78.9584 1.93277 81.2669 1.77722Z" fill="#E4BABA"/>
<path d="M110.137 2.04883C109.583 4.66056 105.244 23.862 97.3072 26.6502C89.3701 23.862 85.0334 4.66056 84.48 2.04883C86.1818 2.45742 87.8002 3.29085 89.1756 4.54449L90.7778 6.00706C94.4778 9.38722 100.137 9.38722 103.839 6.00706L105.441 4.54449C106.816 3.29085 108.435 2.45742 110.137 2.04883Z" fill="#E4BABA"/>
<path d="M83.2915 69.3651C64.8219 68.398 46.3526 68.398 27.883 69.3651C24.1297 69.5618 21.0473 72.4159 20.571 76.1538C19.4288 85.1177 19.4288 94.0814 20.571 103.045C21.0473 106.783 24.1297 109.638 27.883 109.834C46.3526 110.801 64.8219 110.801 83.2915 109.834C87.0447 109.637 90.1272 106.783 90.6035 103.045C91.7456 94.0814 91.7456 85.1177 90.6035 76.1538C90.127 72.4159 87.0445 69.5618 83.2915 69.3651Z" fill="#C1EECC"/>
<path d="M31.2513 110C30.1284 109.949 29.0054 109.893 27.8824 109.835C24.1292 109.638 21.0474 106.784 20.5705 103.044C19.429 94.0809 19.429 85.1174 20.5705 76.1539C21.0474 72.4163 24.1292 69.5608 27.8824 69.3658C29.0054 69.3077 30.1284 69.252 31.2513 69.2009C28.8688 70.3826 27.1369 72.6995 26.7826 75.483C25.5833 84.8946 25.5833 94.3061 26.7826 103.715C27.1369 106.499 28.8688 108.816 31.2513 110Z" fill="#89C89B"/>
<path d="M90.6031 88.0329C90.1275 91.7706 87.0451 94.624 83.2918 94.8199C64.8232 95.7892 46.3545 95.7892 27.8831 94.8199C24.1296 94.624 21.0474 91.7706 20.5716 88.0329C20.321 86.0652 20.1268 84.0972 19.983 82.1295C19.6375 87.0103 19.6299 91.8911 19.9617 96.7719C21.3593 98.8954 23.7098 100.317 26.3853 100.457C45.8551 101.478 65.3221 101.478 84.7894 100.457C87.466 100.317 89.8175 98.8942 91.2146 96.7693C91.5464 91.8857 91.5385 87.0024 91.1924 82.119C91.0511 84.0902 90.8567 86.0617 90.6031 88.0329Z" fill="#89C89B"/>
<path d="M64.9392 100.917C59.3572 101.223 53.7755 101.223 48.1936 100.917C45.7507 100.783 43.8032 98.8446 43.6066 96.3996C43.3369 93.0435 43.3369 89.6875 43.6066 86.3315C43.8032 83.8864 45.7506 81.9477 48.1934 81.8138C53.7753 81.5076 59.357 81.5076 64.9389 81.8138C67.3817 81.9477 69.3294 83.8864 69.5257 86.3315C69.7954 89.6875 69.7954 93.0435 69.5257 96.3996C69.3296 98.8446 67.3821 100.783 64.9392 100.917Z" fill="#F4D999"/>
<path d="M56.5663 94.9607C54.2822 94.9607 51.9707 94.9061 49.6787 94.7986C49.54 92.5159 49.54 90.2152 49.6787 87.9324C51.9707 87.8249 54.2822 87.7704 56.5663 87.7704C58.8502 87.7704 61.1616 87.8249 63.4534 87.9324C63.5921 90.2152 63.5921 92.5159 63.4534 94.7986C61.1616 94.9061 58.8502 94.9607 56.5663 94.9607Z" fill="#C1EECC"/>
<path d="M127.776 54.5405C124.237 48.0557 120.72 43.8651 119.452 42.4464V32.8752L135.892 19.3408C136.283 19.0183 136.515 18.5408 136.526 18.0328C136.537 17.5249 136.326 17.0376 135.949 16.6987L123.51 5.52042C122.796 4.87875 121.698 4.93911 121.058 5.65484C120.418 6.3708 120.478 7.47168 121.192 8.11359L132.123 17.9374L119.453 28.3688V21.2482C119.453 20.2866 118.676 19.507 117.717 19.507C116.757 19.507 115.98 20.2866 115.98 21.2482L115.979 41.6538C103.58 43.6659 91.0312 43.6657 78.632 41.6534V21.2482C78.632 20.2866 77.8548 19.507 76.8955 19.507C75.9362 19.507 75.159 20.2866 75.159 21.2482V28.3695L62.4878 17.9374L76.0057 5.78717C77.9944 3.99912 80.5626 3.25599 83.034 3.55036C83.543 5.74236 84.7118 10.3402 86.5067 14.9206C89.456 22.4473 92.8962 26.9469 96.7314 28.2941C96.9173 28.3593 97.1113 28.392 97.3054 28.392C97.4994 28.392 97.6937 28.3593 97.8794 28.2941C101.715 26.9469 105.155 22.4473 108.105 14.9208C109.897 10.349 111.064 5.76326 111.575 3.56592C113.105 3.38252 114.685 3.58774 116.154 4.21827C117.037 4.59691 118.057 4.1867 118.434 3.30289C118.812 2.41884 118.403 1.39551 117.521 1.0171C113.06 -0.897944 107.86 -0.0183115 104.271 3.25715L102.668 4.71972C99.6106 7.51115 95.0013 7.51115 91.945 4.71972L90.3428 3.25715C85.6111 -1.06184 78.4505 -1.08854 73.6871 3.1947L58.6623 16.6991C58.2849 17.0381 58.0742 17.5256 58.0853 18.0333C58.0962 18.5413 58.328 19.0188 58.7193 19.3413L75.1585 32.8756V42.4455C74.02 43.7158 71.0943 47.1849 67.976 52.5045C65.335 51.0935 62.542 49.7003 59.7128 48.29C57.2404 47.0572 54.7502 45.8157 52.3598 44.5548C54.6961 41.6216 56.4981 38.3013 57.2879 34.4088C58.4947 28.4603 56.7294 23.1467 52.4448 19.8304C48.3829 16.6866 42.7892 15.9857 38.525 18.0865C36.2392 19.2124 32.4047 22.1348 32.4047 29.0539C32.4047 33.4337 35.1788 37.5742 40.886 41.7121C42.6711 43.0064 44.6781 44.26 46.8143 45.4832C44.1659 48.0952 41.1265 50.42 38.2552 52.6157C32.0734 57.3433 26.2083 61.8322 26.0566 67.8803C22.2747 68.7894 19.3566 71.9516 18.8486 75.9344C17.6937 85.0024 17.6937 94.198 18.8486 103.266C19.4321 107.839 23.1934 111.333 27.7927 111.575C37.0144 112.057 46.301 112.298 55.5877 112.298C64.8743 112.298 74.1615 112.057 83.3834 111.575C87.9839 111.333 91.7441 107.838 92.3248 103.266C92.6707 100.555 92.9108 97.8326 93.0499 95.1055C94.4628 95.148 95.8874 95.1707 97.3054 95.1707C119.975 95.1707 134.766 89.8523 135.385 89.6259C136.07 89.375 136.526 88.7217 136.526 87.9904C136.526 73.5964 131.768 61.8554 127.776 54.5405ZM89.607 7.29339C93.9951 11.3025 100.616 11.3025 105.007 7.29385L106.609 5.83151C106.935 5.53435 107.279 5.26482 107.638 5.02292C107.035 7.3296 106.11 10.4927 104.873 13.6465C101.979 21.032 99.2457 23.7996 97.3061 24.7632C95.3667 23.7996 92.6336 21.032 89.7396 13.6465C88.5037 10.4922 87.5782 7.32705 86.9751 5.01944C87.3326 5.26157 87.6771 5.5318 88.0054 5.83128L89.607 7.29339ZM35.8787 29.053C35.8787 25.2693 37.3235 22.5575 40.0573 21.2108C41.2006 20.6476 42.5072 20.3743 43.852 20.3743C46.0993 20.3743 48.4526 21.1379 50.3235 22.5858C52.2019 24.0396 55.1624 27.4186 53.8855 33.7135C53.1855 37.1642 51.4731 40.1662 49.2382 42.8576C41.7329 38.6405 35.8787 34.1634 35.8787 29.053ZM27.9738 71.1047C31.0692 70.9436 34.1658 70.8089 37.1776 70.7045C38.1362 70.671 38.8862 69.8652 38.8528 68.9041C38.8195 67.9427 38.0218 67.1938 37.0572 67.2242C34.6011 67.3094 32.0887 67.4155 29.5667 67.5386C30.0141 63.3008 34.8509 59.5982 40.3622 55.3837C43.5998 52.9075 47.0368 50.2791 49.991 47.2353C52.6521 48.6572 55.4305 50.0427 58.1671 51.4071C60.9062 52.7729 63.6675 54.1498 66.2864 55.5508C64.5661 58.8281 62.8742 62.642 61.4739 66.9387C55.6322 66.8734 49.8002 66.8987 44.0117 67.0262C43.0527 67.0473 42.2926 67.8436 42.3136 68.8052C42.3347 69.7668 43.1249 70.5368 44.0877 70.5076C57.033 70.2227 70.1934 70.4238 83.2033 71.1047C86.1244 71.2565 88.512 73.4727 88.8806 76.3751C89.1244 78.2859 89.312 80.2028 89.4495 82.123C89.3092 84.0498 89.1186 85.9628 88.8806 87.8135C88.5122 90.7136 86.1239 92.9286 83.2005 93.0806C79.2685 93.2866 75.3185 93.447 71.4243 93.5642C71.5076 91.1055 71.4537 88.6365 71.2571 86.1917C70.9915 82.8849 68.3161 80.2553 65.0343 80.0754C59.4151 79.7671 53.7169 79.7668 48.0991 80.0754C44.817 80.2553 42.1418 82.8849 41.876 86.1917C41.6781 88.6551 41.6246 91.1431 41.7107 93.6206C37.1376 93.4985 32.5272 93.3197 27.9738 93.0806C25.0513 92.9288 22.6627 90.7138 22.2946 87.8128C22.0617 85.9839 21.8706 84.0772 21.7252 82.1439C21.8628 80.2167 22.0503 78.2929 22.2946 76.3751C22.6646 73.4731 25.0531 71.2565 27.9738 71.1047ZM69.3425 57.24C74.9682 60.4678 79.5137 63.8445 81.0412 67.5156C75.7468 67.2621 70.4328 67.0863 65.1204 66.9909C66.3723 63.3561 67.8454 60.088 69.3425 57.24ZM67.7951 96.2595C67.6682 97.8384 66.3996 99.0932 64.8444 99.1786C59.3516 99.48 53.7817 99.48 48.2885 99.1786C46.7332 99.0932 45.4646 97.8384 45.3378 96.2595C45.0768 93.0122 45.0768 89.7188 45.3378 86.4714C45.4646 84.8926 46.7332 83.6378 48.2887 83.5523C51.035 83.4017 53.8007 83.3262 56.5664 83.3262C59.3322 83.3262 62.0979 83.4017 64.8444 83.5523C66.3996 83.6378 67.6682 84.8926 67.7951 86.4714C68.0561 89.7188 68.0561 93.0122 67.7951 96.2595ZM83.2028 108.096C64.8791 109.054 46.2979 109.054 27.9749 108.096C25.0538 107.943 22.6646 105.725 22.2946 102.824C21.9116 99.8168 21.663 96.7949 21.5426 93.7685C23.1601 95.3945 25.359 96.4318 27.7932 96.5583C32.4844 96.8049 37.2369 96.9878 41.9476 97.1106C42.4567 100.144 45.0085 102.486 48.0988 102.656C50.9083 102.81 53.7375 102.887 56.5664 102.887C59.3954 102.887 62.2248 102.81 65.0338 102.656C68.1431 102.485 70.7065 100.116 71.1936 97.0551C75.2213 96.9365 79.3111 96.7717 83.3807 96.5583C85.8162 96.4318 88.0161 95.3938 89.6338 93.7673C89.5132 96.7942 89.264 99.8168 88.8804 102.825C88.5118 105.726 86.1239 107.943 83.2028 108.096ZM127.354 88.2948C126.996 83.0604 126.336 77.845 125.385 72.7623C125.208 71.8172 124.301 71.1952 123.358 71.3724C122.415 71.5497 121.794 72.4598 121.971 73.4049C122.93 78.5241 123.582 83.7826 123.921 89.0574C122.584 89.332 121.068 89.6174 119.39 89.895C119.18 82.8928 118.434 75.9205 117.166 69.1402C116.989 68.1951 116.082 67.5732 115.139 67.7498C114.197 67.9272 113.576 68.837 113.753 69.7821C115.013 76.5208 115.744 83.4555 115.931 90.4187C110.753 91.1312 104.43 91.6879 97.3056 91.6879C95.9282 91.6879 94.5443 91.6661 93.1717 91.625C93.2699 86.3848 92.989 81.1386 92.3252 75.9349C91.8045 71.8348 88.7285 68.6051 84.784 67.8067C83.5092 62.4862 78.0611 58.2122 71.0387 54.1941C73.8142 49.4839 76.4109 46.3067 77.5447 45.0031C84.1038 46.0975 90.7051 46.6463 97.3065 46.6463C103.907 46.6463 110.508 46.0977 117.067 45.0034C118.37 46.4975 121.596 50.4478 124.786 56.3169C128.441 63.0415 132.776 73.7002 133.04 86.7384C131.91 87.0957 129.974 87.6675 127.354 88.2948Z" fill="#3B5974"/>
<path d="M63.5347 86.1932C61.2151 86.0843 58.8708 86.0293 56.5663 86.0293C54.2615 86.0293 51.917 86.0843 49.5974 86.1932C48.7116 86.2348 47.9994 86.9389 47.9452 87.8266C47.8028 90.1746 47.8028 92.5561 47.9452 94.9043C47.9991 95.7921 48.7116 96.4962 49.5974 96.5378C51.9151 96.6464 54.2599 96.7017 56.5663 96.7017C58.8724 96.7017 61.217 96.6466 63.5347 96.5378C64.4205 96.4962 65.1327 95.7921 65.1869 94.9043C65.3293 92.5561 65.3293 90.1749 65.1869 87.8266C65.133 86.9391 64.4208 86.2348 63.5347 86.1932ZM61.7928 93.1249C58.3024 93.2505 54.8297 93.2505 51.3398 93.1249C51.3025 91.9536 51.3025 90.7775 51.3398 89.6063C54.8321 89.4805 58.3005 89.4805 61.7928 89.6063C61.8301 90.7775 61.8301 91.9536 61.7928 93.1249Z" fill="#3B5974"/>
</svg>
