<svg width="155" height="113" viewBox="0 0 155 113" fill="none" xmlns="http://www.w3.org/2000/svg">
<path d="M61.3879 24.9745C61.3879 23.3049 61.952 21.6923 62.9569 20.3612C64.4343 18.4044 65.3115 15.9667 65.3115 13.3231C65.3115 6.71583 59.8391 1.39015 53.191 1.65406C47.353 1.88571 42.2375 7.03216 42.0244 12.8863C41.9207 15.7351 42.8361 18.3653 44.4331 20.4423C45.4283 21.7368 45.9401 23.34 45.9401 24.9745C45.9401 26.2653 45.1113 27.3986 43.894 27.8183C39.265 29.4144 36.2217 32.112 36.2217 35.1725C36.2217 40.0761 44.0307 44.0513 53.6638 44.0513C63.2969 44.0513 71.1059 40.0761 71.1059 35.1725C71.1059 32.112 68.0627 29.4144 63.4336 27.8183C62.2165 27.3984 61.3879 26.2653 61.3879 24.9745Z" fill="#FFE6CC"/>
<path d="M53.6648 44.0533C44.0308 44.0533 36.2227 40.0761 36.2227 35.1734C36.2227 32.1127 39.2658 29.4166 43.8943 27.82C44.503 27.609 45.0145 27.2214 45.3731 26.7249C45.7317 26.2261 45.9402 25.6204 45.9402 24.9755C45.9402 23.342 45.4287 21.7386 44.4336 20.4439C42.8367 18.3671 41.9204 15.736 42.0245 12.8866C42.2374 7.0322 47.3542 1.88794 53.1906 1.65606C53.3504 1.64904 53.5077 1.64685 53.665 1.64685C53.591 1.64685 53.5193 1.64926 53.4451 1.65606C50.7376 1.88816 48.3655 7.03242 48.2659 12.8866C48.2173 15.736 48.6431 18.3671 49.3837 20.4439C49.8443 21.7386 50.0825 23.342 50.0825 24.9755C50.0825 25.6206 49.9854 26.2261 49.8187 26.7249C49.6519 27.2216 49.4159 27.609 49.1336 27.82C46.986 29.4164 45.5744 32.1127 45.5744 35.1734C45.5744 40.0763 49.1962 44.0533 53.6648 44.0533Z" fill="#FFC78C"/>
<path d="M68.6979 35.4717C58.6752 34.4152 48.6527 34.4152 38.6299 35.4717C34.6639 35.8898 31.5687 39.1122 31.3235 43.103C30.3512 58.9249 30.3512 74.7468 31.3235 90.5688C31.5687 94.5598 34.6637 97.7821 38.6299 98.2C48.6527 99.2565 58.6752 99.2565 68.6979 98.2C72.6639 97.7819 75.7591 94.5596 76.0044 90.5688C76.9767 74.7468 76.9767 58.9249 76.0044 43.103C75.7591 39.1122 72.6642 35.8898 68.6979 35.4717Z" fill="#80B4FB"/>
<path d="M41.3877 41.4857C40.8532 58.3849 40.8532 75.2864 41.3877 92.1855C41.471 94.8028 42.142 97.1093 43.1557 98.6036C41.6469 98.4922 40.1379 98.3577 38.6292 98.2C34.6625 97.7823 31.5686 94.5593 31.3231 90.5683C30.3513 74.7457 30.3513 58.9255 31.3231 43.1031C31.5684 39.1121 34.6625 35.8891 38.6292 35.4714C40.1379 35.3137 41.6469 35.179 43.1557 35.0677C42.142 36.5619 41.471 38.8684 41.3877 41.4857Z" fill="#61A2F9"/>
<path d="M68.0715 46.7886C58.4668 46.2158 48.862 46.2158 39.2574 46.7886C31.0604 47.2776 24.5486 53.8885 24.0942 62.109C23.3739 75.1364 23.5115 88.1638 24.507 101.191C24.8553 105.75 28.4457 109.398 32.9888 109.787C46.7726 110.967 60.5563 110.967 74.34 109.787C78.8832 109.398 82.4735 105.749 82.8218 101.191C83.8171 88.1638 83.9547 75.1364 83.2347 62.109C82.7803 53.8885 76.2684 47.2774 68.0715 46.7886Z" fill="#D3EFFB"/>
<path d="M39.2568 46.7878C39.5577 46.7692 39.8585 46.7529 40.1593 46.7367C36.7528 49.3773 34.3623 54.8394 34.1424 61.2205C33.6657 74.9525 33.756 88.6866 34.4131 102.418C34.5704 105.695 35.723 108.523 37.3893 110.122C35.9221 110.025 34.4549 109.913 32.9876 109.788C28.4449 109.398 24.8555 105.751 24.5061 101.191C23.511 88.1645 23.3745 75.1356 24.0941 62.1091C24.5478 53.8882 31.0599 47.2774 39.2568 46.7878Z" fill="#B1E4F9"/>
<path d="M76.7225 82.0296C76.6461 88.2551 76.373 94.4782 75.9009 100.66C75.8129 101.81 74.8872 102.755 73.7511 102.853C67.0861 103.421 60.3288 103.711 53.666 103.711C47.2902 103.711 40.8292 103.447 34.4488 102.924C34.1596 102.901 33.8704 102.878 33.5811 102.853C32.4425 102.755 31.5193 101.811 31.4313 100.66C30.825 92.7612 30.545 84.793 30.5914 76.8434C30.603 74.653 31.9196 72.7085 33.8868 71.8685C34.1183 71.7687 34.3589 71.6851 34.6064 71.618C45.1498 68.7732 56.4177 78.644 70.4489 76.5767C73.7765 76.0848 76.7618 78.6581 76.7225 82.0296Z" fill="#ECECEC"/>
<path d="M34.4488 102.924C34.1596 102.901 33.8704 102.878 33.5811 102.852C32.4425 102.755 31.5193 101.811 31.4313 100.66C30.825 92.7611 30.545 84.7929 30.5914 76.8433C30.603 74.6529 31.9196 72.7084 33.8868 71.8684C33.7524 82.0525 33.9262 92.2366 34.4145 102.418C34.4235 102.588 34.4327 102.757 34.4488 102.924Z" fill="#DADADA"/>
<path d="M109.193 76.2725C109.193 77.9422 109.757 79.5548 110.762 80.8859C112.239 82.8427 113.116 85.2803 113.116 87.924C113.116 94.5312 107.644 99.8569 100.996 99.593C95.1577 99.3614 90.0422 94.2149 89.8291 88.3608C89.7254 85.512 90.6408 82.8817 92.2377 80.8047C93.233 79.5102 93.7448 77.9071 93.7448 76.2725C93.7448 74.9817 92.916 73.8485 91.6987 73.4288C87.0697 71.8327 84.0264 69.1351 84.0264 66.0744C84.0264 61.1708 91.8354 57.1956 101.468 57.1956C111.102 57.1956 118.911 61.1708 118.911 66.0744C118.911 69.1348 115.867 71.8324 111.238 73.4288C110.021 73.8487 109.193 74.9817 109.193 76.2725Z" fill="#FFE6CC"/>
<path d="M101.469 57.1937C91.8355 57.1937 84.0273 61.1709 84.0273 66.0737C84.0273 69.1343 87.0705 71.8304 91.699 73.427C92.3076 73.638 92.8192 74.0257 93.1778 74.5221C93.5364 75.0209 93.7449 75.6266 93.7449 76.2716C93.7449 77.905 93.2333 79.5084 92.2383 80.8031C90.6413 82.8799 89.7251 85.5111 89.8292 88.3605C90.0421 94.2148 95.1589 99.3591 100.995 99.591C101.155 99.598 101.312 99.6002 101.469 99.6002C101.395 99.6002 101.324 99.5978 101.25 99.591C98.542 99.3589 96.1699 94.2146 96.0704 88.3605C96.0218 85.5111 96.4476 82.8799 97.1882 80.8031C97.6487 79.5084 97.887 77.905 97.887 76.2716C97.887 75.6264 97.7898 75.0209 97.6231 74.5221C97.4564 74.0254 97.2203 73.638 96.9381 73.427C94.7905 71.8306 93.3788 69.1343 93.3788 66.0737C93.3791 61.1709 97.0009 57.1937 101.469 57.1937Z" fill="#FFC78C"/>
<path d="M125.16 28.8434C125.16 15.7688 114.588 5.17102 101.549 5.17102C88.5109 5.17102 77.939 15.7688 77.939 28.8434C77.939 41.9179 88.5109 52.5157 101.549 52.5157C114.588 52.5157 125.16 41.9179 125.16 28.8434ZM117.818 28.8434C117.818 37.853 110.534 45.1558 101.549 45.1558C92.565 45.1558 85.2815 37.853 85.2815 28.8434C85.2815 19.8338 92.565 12.5309 101.549 12.5309C110.534 12.5309 117.818 19.8338 117.818 28.8434Z" fill="#F2828C"/>
<path d="M103.008 45.0875C103.488 45.1302 103.974 45.1559 104.465 45.1559C113.451 45.1559 120.734 37.853 120.734 28.8435C120.734 19.8339 113.451 12.531 104.465 12.531C103.974 12.531 103.488 12.5567 103.008 12.5994C111.31 13.3389 117.819 20.3268 117.819 28.8435C117.819 37.3601 111.31 44.348 103.008 45.0875Z" fill="#F6798D"/>
<path d="M80.8535 28.8434C80.8535 16.2598 90.6469 5.97219 103.006 5.21733C102.524 5.18794 102.038 5.17126 101.549 5.17126C88.5109 5.17126 77.939 15.7691 77.939 28.8436C77.939 41.9182 88.5109 52.516 101.549 52.516C102.038 52.516 102.524 52.4993 103.006 52.4697C90.6469 51.7146 80.8535 41.427 80.8535 28.8434Z" fill="#F6798D"/>
<path d="M101.47 40.3358C98.8288 40.3358 96.688 42.4824 96.688 45.1302V60.4842H106.251V45.1302C106.251 42.4824 104.11 40.3358 101.47 40.3358Z" fill="#ECECEC"/>
<path d="M103.149 40.6401C101.335 41.3224 100.046 43.0752 100.046 45.1307V57.1939H96.688V45.1307C96.688 42.4829 98.8277 40.3352 101.469 40.3352C102.059 40.3352 102.626 40.4427 103.149 40.6401Z" fill="#DADADA"/>
<path d="M127.563 65.1767H75.3745C73.1764 65.1767 71.3945 63.3902 71.3945 61.1861C71.3945 58.9821 73.1764 57.1956 75.3745 57.1956H127.563C129.761 57.1956 131.543 58.9821 131.543 61.1861C131.543 63.3902 129.761 65.1767 127.563 65.1767Z" fill="#F2828C"/>
<path d="M88.9064 65.1765H75.3743C73.1755 65.1765 71.3945 63.3908 71.3945 61.1862C71.3945 60.0849 71.8409 59.0868 72.5607 58.365C73.2805 57.6411 74.2738 57.1958 75.3743 57.1958H88.9064C87.8081 57.1958 86.8126 57.6411 86.0928 58.365C85.3708 59.0868 84.9267 60.0849 84.9267 61.1862C84.9267 63.3908 86.7076 65.1765 88.9064 65.1765Z" fill="#F6798D"/>
<path d="M33.441 104.492C40.1639 105.066 46.9683 105.357 53.665 105.357C60.3595 105.357 67.1638 105.066 73.8897 104.492C75.8194 104.327 77.387 102.733 77.536 100.786V100.786C78.0088 94.5865 78.2864 88.2833 78.3617 82.051C78.3869 79.9751 77.5082 78.0016 75.9509 76.6363C74.3782 75.2575 72.2851 74.6428 70.2079 74.9486C63.4751 75.9417 57.3787 74.022 51.4834 72.1657C45.498 70.2811 39.8445 68.5009 34.179 70.0288C31.1185 70.8543 28.9683 73.653 28.9497 76.8348C28.9035 84.819 29.1875 92.8774 29.794 100.786C29.9428 102.734 31.5106 104.327 33.441 104.492ZM32.2315 76.8539C32.2414 75.1483 33.3928 73.6484 35.0314 73.2064C36.2378 72.8811 37.4586 72.7398 38.7037 72.7398C42.3531 72.7398 46.2089 73.9538 50.5002 75.3051C56.4567 77.1807 63.2081 79.3064 70.6853 78.2041C71.8109 78.0383 72.9423 78.3695 73.7908 79.1134C74.6359 79.8542 75.0939 80.8833 75.0803 82.0109C75.0059 88.173 74.7311 94.4053 74.264 100.534C74.2375 100.88 73.9444 101.185 73.6111 101.213C66.9781 101.779 60.2674 102.066 53.6652 102.066C47.0608 102.066 40.3503 101.779 33.7199 101.214C33.3861 101.185 33.0929 100.88 33.0664 100.534C32.4665 92.7151 32.1858 84.7479 32.2315 76.8539Z" fill="#3B5974"/>
<path d="M127.563 55.5508H122.189C121.283 55.5508 120.548 56.2874 120.548 57.1961C120.548 58.1047 121.283 58.8414 122.189 58.8414H127.563C128.853 58.8414 129.902 59.8932 129.902 61.1864C129.902 61.8123 129.658 62.4009 129.214 62.846C128.775 63.288 128.188 63.5315 127.563 63.5315H75.3726C74.0829 63.5315 73.0338 62.4796 73.0338 61.1864C73.0338 60.5606 73.2773 59.972 73.7212 59.5269C74.1608 59.0849 74.7473 58.8414 75.3726 58.8414H115.63C116.536 58.8414 117.271 58.1047 117.271 57.1961C117.271 56.2874 116.536 55.5508 115.63 55.5508H107.89V53.3551C118.924 50.4932 126.799 40.3957 126.799 28.8445C126.799 14.8844 115.472 3.52688 101.549 3.52688C87.6253 3.52688 76.2981 14.8844 76.2981 28.8445C76.2981 34.6916 78.3337 40.396 82.0297 44.9069C85.3892 49.0067 89.9729 51.9535 95.0451 53.309V55.5508H83.2779C82.0549 52.8716 80.2105 50.5818 77.9543 48.8352C77.8642 46.8896 77.7598 44.9319 77.6417 43.0021C77.433 39.6071 75.5306 36.689 72.7454 35.0887C72.7198 33.1756 71.8171 31.3296 70.1274 29.745C68.6293 28.3402 66.499 27.1363 63.9669 26.2634C63.4055 26.0697 63.0281 25.5518 63.0281 24.9744C63.0281 23.677 63.4556 22.4255 64.2638 21.3554C66.0231 19.0283 66.953 16.2511 66.953 13.3238C66.953 9.66445 65.5035 6.25257 62.8719 3.71642C60.2416 1.18158 56.7801 -0.13399 53.1255 0.0107955C46.4622 0.275796 40.6278 6.14398 40.3847 12.8252C40.2712 15.9319 41.2476 18.9939 43.134 21.4471C43.8856 22.4248 44.2993 23.6775 44.2993 24.9744C44.2993 25.2554 44.2103 25.5278 44.0442 25.7588C43.8755 25.9923 43.6383 26.1671 43.3607 26.2634C40.8293 27.1365 38.6998 28.3404 37.202 29.7453C35.5129 31.3293 34.6104 33.1751 34.5844 35.0876C31.7981 36.6877 29.8946 39.6067 29.6859 43.0027C29.568 44.929 29.4639 46.8821 29.3739 48.8214C25.3944 51.902 22.752 56.6397 22.4543 62.0189C21.8699 72.5731 21.8493 83.2841 22.3926 93.8545C22.4379 94.7331 23.1625 95.4152 24.03 95.4152C24.0584 95.4152 24.0871 95.4145 24.116 95.413C25.0211 95.3662 25.7169 94.5925 25.6703 93.6852C25.1327 83.2315 25.1533 72.6389 25.7311 62.2012C26.1413 54.7902 31.9981 48.8705 39.3544 48.4315C48.8495 47.8655 58.4788 47.8655 67.9743 48.4315C72.8126 48.7198 77.1468 51.438 79.5791 55.5508H75.3724C73.8685 55.5508 72.4564 56.1378 71.3985 57.202C70.3365 58.2668 69.7517 59.6818 69.7517 61.1864C69.7517 64.294 72.273 66.8221 75.3724 66.8221H81.8123C82.2621 78.1835 82.0523 89.6953 81.1839 101.066C80.8953 104.847 77.9579 107.826 74.2006 108.149C60.5737 109.314 46.755 109.314 33.1288 108.149C29.3691 107.826 26.4308 104.847 26.1422 101.066C26.1205 100.783 26.0991 100.499 26.0796 100.216C26.0175 99.3097 25.2316 98.6241 24.3302 98.6875C23.4261 98.7496 22.7435 99.535 22.8054 100.442C22.8253 100.733 22.8477 101.025 22.8698 101.317C23.2815 106.714 27.4781 110.966 32.849 111.428C39.7548 112.018 46.709 112.313 53.6637 112.313C60.6184 112.313 67.5735 112.018 74.4798 111.428C79.8484 110.966 84.0439 106.714 84.4561 101.317C85.2059 91.4957 85.4709 81.5698 85.2488 71.7233C86.73 73.0331 88.7658 74.1572 91.1605 74.9831C91.4407 75.0803 91.6781 75.2552 91.8448 75.4859C92.0131 75.7198 92.1019 75.992 92.1019 76.273C92.1019 77.57 91.688 78.8226 90.9369 79.8001C89.0503 82.2533 88.0738 85.3155 88.1873 88.422C88.4304 95.1034 94.2651 100.972 100.928 101.237C101.111 101.244 101.293 101.248 101.474 101.247C104.926 101.247 108.176 99.9392 110.675 97.531C113.307 94.9948 114.756 91.583 114.756 87.9236C114.756 84.9963 113.826 82.2191 112.067 79.8927C111.259 78.8219 110.831 77.5704 110.831 76.273C110.831 75.6959 111.209 75.1777 111.77 74.9842C114.302 74.1114 116.432 72.9072 117.93 71.5024C119.424 70.1019 120.303 68.4972 120.505 66.8223H127.563C129.067 66.8223 130.478 66.2353 131.536 65.1713C132.598 64.1067 133.183 62.6915 133.183 61.1866C133.183 58.0788 130.662 55.5508 127.563 55.5508ZM107.259 42.3468C106.221 40.1858 104.015 38.6906 101.468 38.6906C98.9413 38.6906 96.7516 40.1614 95.7036 42.2937C90.3903 39.9875 86.9203 34.7693 86.9203 28.8445C86.9203 20.757 93.4825 14.1774 101.549 14.1774C109.615 14.1774 116.177 20.757 116.177 28.8445C116.177 34.7364 112.58 40.0746 107.259 42.3468ZM104.609 45.1304V55.5488H98.3269V45.1304C98.3269 43.3939 99.7357 41.9814 101.468 41.9814C103.2 41.9814 104.609 43.3939 104.609 45.1304ZM79.58 28.8445C79.58 16.6988 89.4351 6.81745 101.549 6.81745C113.662 6.81745 123.517 16.6988 123.517 28.8445C123.517 38.6057 117.056 47.1728 107.89 49.9384V45.6381C111.019 44.4453 113.808 42.3606 115.838 39.6709C118.207 36.5333 119.459 32.7897 119.459 28.8447C119.459 18.9428 111.424 10.887 101.549 10.887C91.6731 10.887 83.6385 18.9428 83.6385 28.8447C83.6385 32.7581 84.8722 36.4778 87.2061 39.6012C89.2047 42.2762 91.9556 44.3639 95.0453 45.5771V49.8884C85.9734 47.0692 79.58 38.5265 79.58 28.8445ZM44.431 29.3741C45.3512 29.0549 46.1365 28.4722 46.7045 27.686C47.2779 26.8882 47.5811 25.9506 47.5811 24.9744C47.5811 22.9546 46.925 20.9886 45.7332 19.4381C44.3135 17.5919 43.5788 15.2861 43.6644 12.9454C43.8473 7.91584 48.2395 3.49836 53.2557 3.29895C56.0091 3.18861 58.6173 4.18039 60.598 6.08914C62.58 7.99898 63.6713 10.5685 63.6713 13.324C63.6713 15.5276 62.9719 17.6175 61.6484 19.3683C60.4219 20.9919 59.7465 22.9829 59.7465 24.9746C59.7465 26.9562 61.0135 28.7245 62.8997 29.3752C66.1448 30.494 68.4035 32.1423 69.1739 33.8745C69.0726 33.8607 68.9717 33.8464 68.8693 33.8357C58.7794 32.7728 48.5478 32.7728 38.4581 33.8357C38.3565 33.8464 38.2563 33.8607 38.1557 33.8743C38.9265 32.1421 41.1848 30.4938 44.431 29.3741ZM39.1597 45.1467C36.8837 45.2825 34.7253 45.8469 32.761 46.7593C32.8229 45.5705 32.8897 44.3824 32.9616 43.2046C33.1581 40.0075 35.614 37.4437 38.8011 37.108C48.6633 36.0691 58.6646 36.0691 68.5267 37.108C71.7138 37.4437 74.1697 40.0075 74.3662 43.2041C74.4384 44.385 74.5054 45.5771 74.5675 46.77C72.5861 45.8467 70.4227 45.2809 68.169 45.1467C58.5442 44.573 48.7843 44.573 39.1597 45.1467ZM110.702 71.8722C108.817 72.5227 107.55 74.2912 107.55 76.2728C107.55 78.2643 108.225 80.2553 109.452 81.8797C110.775 83.6301 111.474 85.7198 111.474 87.9234C111.474 90.6792 110.383 93.2484 108.401 95.1583C106.42 97.067 103.817 98.0575 101.058 97.9482C96.0423 97.7488 91.6499 93.3313 91.467 88.3016C91.3814 85.9609 92.1164 83.6551 93.5363 81.8087C94.7276 80.2584 95.3838 78.2921 95.3838 76.2728C95.3838 75.2966 95.0805 74.3588 94.5047 73.5581C93.9389 72.7749 93.1534 72.1921 92.2306 71.872C88.6442 70.635 86.2627 68.7508 85.7649 66.8219H117.17C116.673 68.751 114.29 70.6352 110.702 71.8722Z" fill="#3B5974"/>
<path d="M105.344 89.9442C104.562 90.4034 104.299 91.4113 104.757 92.1953C105.063 92.7183 105.611 93.0094 106.175 93.0094C106.456 93.0094 106.742 92.9365 107.002 92.7836L107.084 92.736C107.866 92.2769 108.128 91.269 107.67 90.485C107.213 89.7007 106.208 89.4375 105.425 89.8964L105.344 89.9442Z" fill="white"/>
<path d="M108.496 89.2214C108.777 89.2214 109.063 89.1485 109.323 88.9956L109.404 88.948C110.186 88.4889 110.449 87.481 109.991 86.697C109.533 85.9128 108.528 85.6493 107.746 86.1084L107.665 86.156C106.883 86.6151 106.62 87.6231 107.078 88.4071C107.384 88.9301 107.932 89.2214 108.496 89.2214Z" fill="white"/>
<path d="M103.927 89.1635C104.209 89.1635 104.494 89.0907 104.755 88.9378L104.836 88.8902C105.618 88.4311 105.881 87.4231 105.423 86.6391C104.965 85.8549 103.96 85.5917 103.178 86.0506L103.097 86.0982C102.315 86.5573 102.052 87.5653 102.51 88.3493C102.815 88.8722 103.364 89.1635 103.927 89.1635Z" fill="white"/>
<path d="M58.8132 13.4582L58.8125 13.5526C58.8064 14.4612 59.536 15.2028 60.4422 15.209H60.4536C61.3545 15.209 62.0881 14.4798 62.0942 13.5749L62.0949 13.4806C62.101 12.572 61.3714 11.8304 60.4652 11.8242C60.4613 11.8242 60.4575 11.8242 60.4538 11.8242C59.5529 11.8242 58.8195 12.5534 58.8132 13.4582Z" fill="white"/>
<path d="M58.3831 11.273H58.3945C59.2954 11.273 60.029 10.5439 60.0351 9.63902L60.0358 9.5447C60.0419 8.63611 59.3123 7.89445 58.4061 7.88831C58.4022 7.88831 58.3985 7.88831 58.3947 7.88831C57.4938 7.88831 56.7602 8.61746 56.7541 9.52232L56.7535 9.61665C56.7473 10.5252 57.477 11.2669 58.3831 11.273Z" fill="white"/>
<path d="M55.9974 15.1778H56.0088C56.9097 15.1778 57.6433 14.4487 57.6494 13.5438L57.6501 13.4495C57.6562 12.5409 56.9266 11.7992 56.0204 11.7931C56.0164 11.7931 56.0127 11.7931 56.009 11.7931C55.1081 11.7931 54.3745 12.5222 54.3684 13.4271L54.3677 13.5214C54.3618 14.4302 55.0914 15.1717 55.9974 15.1778Z" fill="white"/>
</svg>
