<svg width="155" height="113" viewBox="0 0 155 113" fill="none" xmlns="http://www.w3.org/2000/svg">
<path d="M101.259 3.61388C79.7511 1.24231 58.2435 1.24231 36.7358 3.61388C31.847 4.15287 28.0367 8.13253 27.6775 13.0621C25.5925 41.6866 25.5925 70.3112 27.6775 98.936C28.0367 103.866 31.847 107.845 36.7355 108.384C58.2433 110.756 79.7508 110.756 101.259 108.384C106.147 107.845 109.958 103.866 110.317 98.936C112.402 70.3114 112.402 41.6866 110.317 13.0621C109.958 8.13253 106.147 4.15311 101.259 3.61388Z" fill="#C1EECC"/>
<path d="M33.8076 101.436C34.0067 104.165 35.2043 106.617 37.0415 108.416C36.9382 108.406 36.8374 108.396 36.7342 108.384C31.8452 107.845 28.0358 103.866 27.6769 98.935C25.5914 70.3117 25.5914 41.6861 27.6769 13.0628C28.0361 8.13203 31.8454 4.15286 36.7342 3.61388C36.8374 3.60158 36.9382 3.5915 37.0415 3.58167C35.2043 5.38106 34.0067 7.83279 33.8076 10.5614C31.6015 40.8533 31.6015 71.145 33.8076 101.436Z" fill="#89C89B"/>
<path d="M81.7746 28.4204C73.2572 28.072 64.7397 28.072 56.2223 28.4204C53.5971 28.5278 51.4581 30.5699 51.1902 33.1967C50.9242 35.8033 50.9242 38.41 51.1902 41.0169C51.4583 43.6434 53.5974 45.6857 56.2223 45.7932C64.7397 46.1416 73.2572 46.1416 81.7746 45.7932C84.3998 45.6857 86.5388 43.6437 86.8067 41.0169C87.0727 38.4102 87.0727 35.8036 86.8067 33.1967C86.5386 30.5702 84.3995 28.5278 81.7746 28.4204Z" fill="#ECECEC"/>
<path d="M32.8107 25.0569H24.6526C21.9875 25.0569 19.8271 22.8857 19.8271 20.2073C19.8271 17.5288 21.9875 15.3577 24.6526 15.3577H32.811C35.4761 15.3577 37.6364 17.5288 37.6364 20.2073C37.6362 22.8857 35.4758 25.0569 32.8107 25.0569Z" fill="#C1EECC"/>
<path d="M29.9255 25.0569H24.6523C21.9872 25.0569 19.8286 22.8874 19.8286 20.209C19.8286 18.8697 20.3688 17.6557 21.2418 16.7786C22.1145 15.9016 23.3199 15.3584 24.6523 15.3584H29.9255C28.5928 15.3584 27.3876 15.9013 26.5149 16.7786C25.6422 17.656 25.1018 18.8697 25.1018 20.209C25.1015 22.8874 27.2601 25.0569 29.9255 25.0569Z" fill="#86DD99"/>
<path d="M32.8098 96.6404H24.6516C21.9865 96.6404 19.8262 94.4692 19.8262 91.7908C19.8262 89.1123 21.9865 86.9412 24.6516 86.9412H32.81C35.4751 86.9412 37.6354 89.1123 37.6354 91.7908C37.6352 94.4692 35.4748 96.6404 32.8098 96.6404Z" fill="#C1EECC"/>
<path d="M29.9245 96.6403H24.6513C21.9863 96.6403 19.8276 94.4708 19.8276 91.7924C19.8276 90.453 20.3678 89.2391 21.2408 88.362C22.1135 87.4849 23.3189 86.9418 24.6513 86.9418H29.9245C28.5918 86.9418 27.3866 87.4847 26.5139 88.362C25.6412 89.2393 25.1008 90.453 25.1008 91.7924C25.1005 94.4711 27.2592 96.6403 29.9245 96.6403Z" fill="#86DD99"/>
<path d="M32.8098 78.7445H24.6516C21.9865 78.7445 19.8262 76.5733 19.8262 73.8949C19.8262 71.2165 21.9865 69.0453 24.6516 69.0453H32.81C35.4751 69.0453 37.6354 71.2165 37.6354 73.8949C37.6352 76.5733 35.4748 78.7445 32.8098 78.7445Z" fill="#C1EECC"/>
<path d="M29.9245 78.7444H24.6513C21.9863 78.7444 19.8276 76.5749 19.8276 73.8965C19.8276 72.5572 20.3678 71.3432 21.2408 70.4661C22.1135 69.5891 23.3189 69.0459 24.6513 69.0459H29.9245C28.5918 69.0459 27.3866 69.5888 26.5139 70.4661C25.6412 71.3435 25.1008 72.5572 25.1008 73.8965C25.1005 76.5749 27.2592 78.7444 29.9245 78.7444Z" fill="#86DD99"/>
<path d="M32.8098 60.8488H24.6516C21.9865 60.8488 19.8262 58.6776 19.8262 55.9991C19.8262 53.3207 21.9865 51.1495 24.6516 51.1495H32.81C35.4751 51.1495 37.6354 53.3207 37.6354 55.9991C37.6352 58.6776 35.4748 60.8488 32.8098 60.8488Z" fill="#C1EECC"/>
<path d="M29.9245 60.8487H24.6513C21.9863 60.8487 19.8276 58.6793 19.8276 56.0009C19.8276 54.6615 20.3678 53.4476 21.2408 52.5705C22.1135 51.6934 23.3189 51.1503 24.6513 51.1503H29.9245C28.5918 51.1503 27.3866 51.6932 26.5139 52.5705C25.6412 53.4478 25.1008 54.6615 25.1008 56.0009C25.1005 58.6793 27.2592 60.8487 29.9245 60.8487Z" fill="#86DD99"/>
<path d="M32.8098 42.9526H24.6516C21.9865 42.9526 19.8262 40.7815 19.8262 38.103C19.8262 35.4246 21.9865 33.2534 24.6516 33.2534H32.81C35.4751 33.2534 37.6354 35.4246 37.6354 38.103C37.6352 40.7815 35.4748 42.9526 32.8098 42.9526Z" fill="#C1EECC"/>
<path d="M29.9245 42.9526H24.6513C21.9863 42.9526 19.8276 40.7832 19.8276 38.1047C19.8276 36.7654 20.3678 35.5515 21.2408 34.6744C22.1135 33.7973 23.3189 33.2542 24.6513 33.2542H29.9245C28.5918 33.2542 27.3866 33.7971 26.5139 34.6744C25.6412 35.5517 25.1008 36.7654 25.1008 38.1047C25.1005 40.7834 27.2592 42.9526 29.9245 42.9526Z" fill="#86DD99"/>
<path d="M87.9588 65.8169L81.1171 72.6928C79.4701 74.3482 79.4701 77.032 81.1171 78.6873C82.7642 80.3426 85.4346 80.3426 87.0817 78.6873L93.9233 71.8113" fill="#E49542"/>
<path d="M82.6381 79.6654C82.0813 79.4616 81.5614 79.1356 81.1154 78.6871C79.4691 77.0325 79.4691 74.3494 81.1171 72.6931L87.9587 65.8171L90.453 68.3239L83.6114 75.1999C82.4094 76.4079 82.0832 78.1628 82.6381 79.6654Z" fill="#E28424"/>
<path d="M137.927 34.0533C132.405 40.5988 120.835 54.1857 107.431 69.167C107.431 69.167 97.432 73.5748 89.8886 75.8667L86.9062 72.8693L83.9238 69.872C86.2043 62.2908 90.5901 52.2412 90.5901 52.2412C105.496 38.7708 119.016 27.1424 125.529 21.5932C127.837 19.6269 131.259 19.7695 133.398 21.9198L137.601 26.1439C139.741 28.2941 139.883 31.7336 137.927 34.0533Z" fill="#ECECEC"/>
<path d="M85.9425 71.9015L83.9238 69.8727C86.2026 62.2908 90.5903 52.2407 90.5903 52.2407C105.494 38.7701 119.015 27.1414 125.527 21.594C127.835 19.6262 131.259 19.769 133.397 21.9183L134.209 22.7337C125.42 26.0224 100.979 50.475 96.193 56.6487C92.3122 61.6569 87.8763 68.7424 85.9425 71.9015Z" fill="#DADADA"/>
<path d="M56.1553 47.6355C60.419 47.8099 64.7125 47.8972 69.0061 47.8972C73.2996 47.8972 77.5934 47.8101 81.8568 47.6355C85.3642 47.4919 88.2801 44.7274 88.6397 41.2049C88.9172 38.4854 88.9172 35.728 88.6397 33.0085C88.2801 29.4857 85.3642 26.7212 81.8568 26.5778C73.3294 26.2289 64.6824 26.2289 56.1553 26.5778C52.6479 26.7212 49.7318 29.4859 49.3721 33.0085C49.0947 35.728 49.0947 38.4854 49.3721 41.2049C49.732 44.7274 52.6479 47.4922 56.1553 47.6355ZM53.0232 33.3847C53.1976 31.6743 54.6083 30.3323 56.3048 30.2629C60.5188 30.0906 64.7624 30.0045 69.0063 30.0045C73.2502 30.0045 77.4938 30.0908 81.7078 30.2629C83.404 30.3323 84.8147 31.6743 84.9892 33.3847C85.2412 35.8544 85.2412 38.3587 84.9892 40.8284C84.8147 42.5388 83.404 43.8809 81.7076 43.9502C73.2795 44.2949 64.7328 44.2947 56.3046 43.9502C54.6083 43.8806 53.1976 42.5386 53.0232 40.8284C52.7712 38.359 52.7712 35.8544 53.0232 33.3847Z" fill="#3B5974"/>
<path d="M140.26 33.861C141.778 30.9463 141.301 27.2462 138.909 24.8395L134.705 20.6142C131.911 17.8094 127.363 17.6205 124.336 20.1984C124.272 20.2542 124.205 20.31 124.139 20.3666L124.008 20.4775C123.236 21.1374 123.143 22.3012 123.799 23.077C124.456 23.853 125.614 23.9467 126.386 23.287L126.505 23.1859C126.584 23.1188 126.663 23.0521 126.723 22.999C128.29 21.6653 130.657 21.764 132.111 23.223L136.313 27.4466C137.789 28.9323 137.885 31.2598 136.534 32.8613C131.114 39.2887 120.312 51.9728 107.587 66.2408C103.572 60.8736 98.8511 56.129 93.5107 52.094C104.347 42.3326 114.278 33.6884 120.832 28.0456C121.602 27.3829 121.691 26.2187 121.032 25.4454C120.373 24.672 119.214 24.5821 118.445 25.2447C116.862 26.6077 115.08 28.1472 113.138 29.8332C112.891 24.2044 112.565 18.536 112.157 12.9275C111.732 7.10497 107.237 2.41764 101.469 1.78227C79.9284 -0.593968 58.084 -0.594214 36.5427 1.78227C30.7754 2.4174 26.2805 7.10472 25.8553 12.9322L25.8144 13.5132H24.6604C20.9878 13.5132 18 16.5163 18 20.207C18 23.8977 20.9878 26.9008 24.6604 26.9008H25.0056C24.9314 28.4016 24.8629 29.9079 24.8006 31.4091H24.6601C20.9878 31.4091 18 34.4121 18 38.1031C18 41.7043 20.8447 44.6488 24.3942 44.7899C24.3651 46.2975 24.3423 47.8089 24.3257 49.3138C20.808 49.4896 18 52.4208 18 55.9989C18 59.577 20.808 62.5082 24.3257 62.684C24.3423 64.1889 24.3651 65.7003 24.3942 67.2079C20.8447 67.349 18 70.2935 18 73.8947C18 77.5857 20.9878 80.5885 24.6604 80.5885H24.801C24.8629 82.0869 24.9312 83.5932 25.0058 85.0968H24.6604C20.9878 85.097 18 88.0998 18 91.7906C18 95.4813 20.9878 98.4843 24.6604 98.4843H25.8144L25.8558 99.0725C26.2546 104.546 30.279 109.074 35.6419 110.084C35.7562 110.106 35.8699 110.116 35.982 110.116C36.8478 110.116 37.6183 109.498 37.7834 108.611C37.9701 107.61 37.3139 106.647 36.3179 106.459C32.5903 105.757 29.7931 102.609 29.5161 98.8079L29.4934 98.4846H32.8185C36.4911 98.4846 39.4789 95.4818 39.4789 91.7908C39.4789 88.0998 36.4911 85.097 32.8185 85.097H28.6809C28.6057 83.5939 28.5365 82.0874 28.4741 80.5887H32.8188C36.4914 80.5887 39.4791 77.586 39.4791 73.895C39.4791 70.204 36.4914 67.2012 32.8188 67.2012H28.0646C28.0354 65.6991 28.0124 64.1926 27.9958 62.6929H32.8188C36.4914 62.6929 39.4791 59.6901 39.4791 55.9991C39.4791 52.3082 36.4914 49.3054 32.8188 49.3054H27.9958C28.0124 47.8057 28.0354 46.2992 28.0646 44.7971H32.8185C36.4911 44.7971 39.4789 41.7943 39.4789 38.1033C39.4789 34.4123 36.4911 31.4096 32.8185 31.4096H28.4734C28.5363 29.9079 28.6055 28.4014 28.6801 26.9012H32.8185C36.4911 26.9012 39.4789 23.8985 39.4789 20.2075C39.4789 16.5165 36.4914 13.5132 32.8188 13.5132H29.4936L29.5159 13.197C29.8112 9.14877 32.9347 5.89004 36.9432 5.44843C58.2188 3.10145 79.7941 3.10145 101.069 5.44843C105.078 5.8898 108.201 9.14877 108.497 13.1968C108.973 19.7418 109.34 26.3709 109.594 32.9191C103.702 38.0642 96.7136 44.2365 89.373 50.8705C89.179 51.0458 89.0244 51.2607 88.9194 51.5007C88.7421 51.9071 84.6281 61.3592 82.3131 68.8912L79.8281 71.3887C77.4682 73.7605 77.4682 77.6194 79.8281 79.991C80.9712 81.14 82.4913 81.7727 84.108 81.7727C85.7247 81.7727 87.2445 81.14 88.3878 79.991L90.8721 77.4942C98.3667 75.1677 107.773 71.0326 108.177 70.8543C108.416 70.7489 108.63 70.5935 108.804 70.3985C109.172 69.9871 109.538 69.5772 109.903 69.1683C109.68 79.0281 109.21 88.9737 108.497 98.8025C108.202 102.849 105.077 106.108 101.069 106.551C81.9498 108.66 62.5544 108.875 43.4233 107.192C42.4146 107.103 41.5238 107.853 41.4354 108.868C41.3471 109.883 42.0936 110.777 43.1033 110.866C51.6962 111.622 60.341 112 68.9912 112C79.8409 112 90.6993 111.405 101.47 110.217C107.238 109.579 111.732 104.892 112.157 99.0715C112.978 87.7492 113.48 76.2742 113.654 64.9506C123.986 53.286 132.761 43.0186 137.972 36.8579C140.482 40.0903 140.067 42.8182 136.734 46.1681C135.493 47.415 133.138 48.9619 130.644 50.5995C125.555 53.9423 120.747 57.1 120.387 60.5861C120.298 61.4531 120.443 62.7394 121.641 63.9442C122 64.3044 122.469 64.4844 122.939 64.4844C123.408 64.4844 123.878 64.3044 124.236 63.9442C124.953 63.224 124.953 62.0565 124.236 61.3363C124.021 61.1202 124.031 61.0278 124.037 60.9665C124.217 59.2269 129.497 55.7589 132.652 53.6871C135.309 51.9418 137.819 50.2934 139.329 48.7762C144.224 43.8571 144.532 38.8449 140.26 33.861ZM35.8093 91.7906C35.8093 93.4478 34.4678 94.796 32.8188 94.796H24.6604C23.0114 94.796 21.6699 93.4478 21.6699 91.7906C21.6699 90.1333 23.0114 88.7851 24.6604 88.7851H32.8188C34.4678 88.7853 35.8093 90.1335 35.8093 91.7906ZM35.8093 73.8947C35.8093 75.552 34.4678 76.9002 32.8188 76.9002H24.6604C23.0114 76.9002 21.6699 75.552 21.6699 73.8947C21.6699 72.2374 23.0114 70.8893 24.6604 70.8893H32.8188C34.4678 70.8893 35.8093 72.2374 35.8093 73.8947ZM35.8093 55.9989C35.8093 57.6562 34.4678 59.0044 32.8188 59.0044H24.6604C23.0114 59.0044 21.6699 57.6562 21.6699 55.9989C21.6699 54.3416 23.0114 52.9934 24.6604 52.9934H32.8188C34.4678 52.9934 35.8093 54.3416 35.8093 55.9989ZM35.8093 38.1031C35.8093 39.7603 34.4678 41.1085 32.8188 41.1085H24.6604C23.0114 41.1085 21.6699 39.7603 21.6699 38.1031C21.6699 36.4458 23.0114 35.0976 24.6604 35.0976H32.8188C34.4678 35.0974 35.8093 36.4458 35.8093 38.1031ZM35.8093 20.207C35.8093 21.8643 34.4678 23.2125 32.8188 23.2125H24.6604C23.0114 23.2125 21.6699 21.8643 21.6699 20.207C21.6699 18.5497 23.0114 17.2015 24.6604 17.2015H32.8188C34.4678 17.2015 35.8093 18.55 35.8093 20.207ZM91.381 55.0987C96.3891 58.894 100.821 63.3479 104.597 68.3812C101.494 69.6933 95.5081 72.1462 90.4121 73.775L86.0141 69.3549C87.6347 64.2334 90.0755 58.2175 91.381 55.0987ZM84.1082 78.0846C83.4716 78.0846 82.8734 77.8355 82.4232 77.3831C81.4943 76.4495 81.4943 74.9302 82.4232 73.9968L83.9328 72.4796L87.3025 75.8662L85.7927 77.3834C85.343 77.8355 84.7446 78.0846 84.1082 78.0846Z" fill="#3B5974"/>
</svg>
