<svg width="155" height="113" viewBox="0 0 155 113" fill="none" xmlns="http://www.w3.org/2000/svg">
<path d="M104.456 102.276C104.218 107.34 100.075 111.323 95.0497 111.323H65.318C60.2931 111.323 56.1497 107.34 55.9113 102.276C55.2659 88.6567 54.999 75.0374 55.1106 61.4183C55.1631 55.0212 55.3009 48.622 55.5197 42.2228C55.5219 42.1764 55.5241 42.1301 55.5263 42.086C55.9835 30.7086 65.0511 21.604 76.348 21.2355C78.9053 21.1516 81.4626 21.1516 84.02 21.2355C95.3627 21.6062 104.457 30.7814 104.848 42.2228C105.535 62.2391 105.404 82.2577 104.456 102.276Z" fill="#D3EFFB"/>
<path d="M80.1854 21.175C79.6094 21.175 79.0334 21.1947 78.4576 21.2364C73.3495 21.6064 69.2569 30.7816 69.0797 42.2219C68.771 62.2416 68.8294 82.2588 69.2571 102.279C69.3641 107.341 71.2279 111.324 73.4928 111.324H65.3177C60.292 111.324 56.1511 107.34 55.9105 102.279C54.9628 82.2588 54.8315 62.2416 55.5193 42.2219C55.9131 30.7818 65.0068 21.6067 76.3483 21.2364C77.6263 21.1947 78.9045 21.175 80.1854 21.175Z" fill="#B1E4F9"/>
<path d="M78.5315 57.4301C78.2878 59.4977 76.5964 61.0915 74.5347 61.1937C72.6551 61.2868 70.776 61.359 68.8977 61.4095C64.3015 61.5375 59.7053 61.5397 55.1113 61.4184C55.1643 54.9763 55.3036 48.5323 55.525 42.088L55.527 42.0861C60.0444 41.9735 64.564 41.9823 69.0814 42.1103C70.9002 42.1604 72.7181 42.2312 74.5363 42.3217C76.5974 42.4243 78.2878 44.018 78.5317 46.0851C78.9774 49.8666 78.9774 53.6484 78.5315 57.4301Z" fill="#ECECEC"/>
<path d="M69.0805 42.1103C69.0805 42.1478 69.0783 42.1854 69.0783 42.2229C68.9798 48.6177 68.9186 55.0125 68.8967 61.4095C64.3005 61.5375 59.7043 61.5397 55.1104 61.4184C55.1629 55.0213 55.3007 48.6221 55.5194 42.2229C55.5216 42.1765 55.5238 42.1302 55.526 42.0861C60.0434 41.9735 64.563 41.9823 69.0805 42.1103Z" fill="#DADADA"/>
<path d="M92.4227 14.1885H67.9461C65.494 14.1885 63.5063 16.1936 63.5063 18.6668C63.5063 21.1403 65.4942 23.1452 67.9461 23.1452H92.4229C94.875 23.1452 96.8627 21.14 96.8627 18.6668C96.8627 16.1936 94.8748 14.1885 92.4227 14.1885Z" fill="#ECECEC"/>
<path d="M74.8379 21.8339C75.6422 22.6453 76.7529 23.1453 77.9777 23.1453H67.9461C66.7212 23.1453 65.6108 22.6453 64.8064 21.8339C64.0045 21.0226 63.5063 19.9047 63.5063 18.667C63.5063 16.1936 65.4942 14.1885 67.9463 14.1885H77.9779C75.5258 14.1885 73.538 16.1936 73.538 18.667C73.5378 19.9049 74.0361 21.0226 74.8379 21.8339Z" fill="#DADADA"/>
<path d="M87.2135 1.65503H73.1557C70.2785 1.65503 67.9463 4.00752 67.9463 6.90968V14.1887H92.4231V6.90968C92.4229 4.00752 90.0907 1.65503 87.2135 1.65503Z" fill="#ECECEC"/>
<path d="M80.6317 1.65405C77.7544 1.65405 75.4239 4.00718 75.4239 6.90953V14.1874H67.9463V6.90953C67.9463 4.00718 70.2767 1.65405 73.1541 1.65405H80.6317Z" fill="#DADADA"/>
<path d="M131.414 96.1517C131.145 96.5357 130.816 99.2282 130.435 99.5349C117.123 110.214 98.1619 110.214 84.8502 99.5349C84.4696 99.2282 84.1399 96.5357 83.8706 96.1517L102.21 59.3464C104.457 54.8418 110.833 54.8418 113.08 59.3488L115.83 64.8696C113.14 65.4034 111.111 67.7939 111.111 70.662C111.111 73.9234 113.732 76.5668 116.963 76.5668C118.476 76.5668 119.857 75.9884 120.895 75.0356L131.414 96.1517Z" fill="#FFD575"/>
<path d="M130.436 103.316C117.124 113.992 98.1628 113.992 84.8511 103.316C82.9547 101.794 82.3837 99.137 83.4723 96.9524L83.8715 96.1516C84.1408 96.5356 84.4702 96.8869 84.8511 97.1936C98.1628 107.872 117.124 107.872 130.436 97.1936C130.816 96.8869 131.146 96.5358 131.415 96.1516L131.814 96.9524C132.903 99.137 132.332 101.794 130.436 103.316Z" fill="#F7798D"/>
<path d="M115.194 97.1724C118.323 97.1724 120.86 94.614 120.86 91.458C120.86 88.302 118.323 85.7435 115.194 85.7435C112.066 85.7435 109.529 88.302 109.529 91.458C109.529 94.614 112.066 97.1724 115.194 97.1724Z" fill="#FFD17B"/>
<path d="M103.253 84.1411C105.288 84.1411 106.938 82.4766 106.938 80.4234C106.938 78.3702 105.288 76.7057 103.253 76.7057C101.217 76.7057 99.5669 78.3702 99.5669 80.4234C99.5669 82.4766 101.217 84.1411 103.253 84.1411Z" fill="#FFD17B"/>
<path d="M96.1692 90.591C96.1692 81.6853 89.0117 67.7175 80.1827 67.7175C71.3537 67.7175 64.1963 81.6853 64.1963 90.591C64.1963 99.4968 71.3537 106.716 80.1827 106.716C89.0117 106.716 96.1692 99.4968 96.1692 90.591Z" fill="#ECECEC"/>
<path d="M80.1842 106.717C71.3554 106.717 64.1973 99.4982 64.1973 90.5911C64.1973 81.6856 71.3554 67.718 80.1842 67.718C75.9067 67.718 72.4382 81.6858 72.4382 90.5911C72.4382 99.4982 75.9065 106.717 80.1842 106.717Z" fill="#DADADA"/>
<path d="M61.6814 90.591C61.6814 81.6853 54.524 67.7175 45.6949 67.7175C36.8659 67.7175 29.7085 81.6851 29.7085 90.591C29.7085 99.497 36.8659 106.716 45.6949 106.716C54.524 106.716 61.6814 99.4968 61.6814 90.591Z" fill="#ECECEC"/>
<path d="M45.6954 106.717C36.8666 106.717 29.7085 99.4982 29.7085 90.5911C29.7085 81.6856 36.8666 67.718 45.6954 67.718C41.4179 67.718 37.9495 81.6858 37.9495 90.5911C37.9495 99.4982 41.4177 106.717 45.6954 106.717Z" fill="#DADADA"/>
<path d="M97.4279 90.5906C97.4279 90.7179 97.4279 90.8452 97.426 90.9725C97.4056 92.7306 97.2407 94.4906 97.0024 96.2486C96.4956 99.9966 95.6465 103.745 95.111 107.495C94.8769 109.132 93.586 110.407 91.9571 110.594C85.8736 111.29 80.7854 111.489 75.2658 111.185C73.0832 111.068 70.8313 110.871 68.4269 110.596C66.7941 110.407 65.4889 109.136 65.2549 107.494C65.1002 106.412 64.921 105.12 64.7296 103.742C64.5666 102.572 63.5588 102.056 62.6509 102.194C61.9343 102.301 61.2787 102.818 61.1505 103.742C60.959 105.12 60.7779 106.412 60.6232 107.494C60.3892 109.135 59.084 110.407 57.4512 110.596C48.965 111.567 42.4111 111.565 33.921 110.594C32.2921 110.407 31.0014 109.131 30.7671 107.495C30.2316 103.745 29.3847 99.9966 28.8776 96.2486C28.6394 94.4906 28.4745 92.7306 28.4541 90.9725C28.4521 90.8452 28.4521 90.7179 28.4521 90.5906H97.4279Z" fill="#FFCF9C"/>
<path d="M97.4267 90.9725C97.4063 92.7306 97.2414 94.4906 97.0031 96.2486H28.8781C28.6399 94.4906 28.4749 92.7306 28.4546 90.9725H97.4267Z" fill="#E1AA73"/>
<path d="M40.766 111.186C38.5815 111.067 36.3295 110.868 33.921 110.593C32.2921 110.406 31.0014 109.13 30.7671 107.494C29.9629 101.858 28.4521 96.225 28.4521 90.5895H36.2197C36.4092 96.4735 37.9422 102.357 38.781 108.239C38.9621 109.508 39.7136 110.582 40.766 111.186Z" fill="#E1AA73"/>
<path d="M75.2667 111.185C73.0842 111.068 70.8322 110.871 68.4278 110.596C66.795 110.407 65.4898 109.136 65.2558 107.494C65.1011 106.412 64.9219 105.12 64.7305 103.742C64.5676 102.572 63.5597 102.056 62.6519 102.194C62.7496 97.842 62.9592 93.4616 62.9592 90.5925H70.7266C70.916 96.4765 72.4491 102.36 73.2878 108.242C73.469 109.509 74.2182 110.581 75.2667 111.185Z" fill="#E1AA73"/>
<path d="M99.6261 93.2292H26.2534C24.8089 93.2292 23.6377 92.048 23.6377 90.5908C23.6377 89.1335 24.8087 87.9523 26.2534 87.9523H99.6259C101.07 87.9523 102.242 89.1335 102.242 90.5908C102.242 92.048 101.071 93.2292 99.6261 93.2292Z" fill="#FFCF9C"/>
<path d="M35.5034 93.2299H26.2519C24.8083 93.2299 23.6377 92.0469 23.6377 90.591C23.6377 89.1329 24.8085 87.9519 26.2519 87.9519H35.5034C34.0578 87.9519 32.8871 89.1329 32.8871 90.591C32.8871 92.0469 34.0578 93.2299 35.5034 93.2299Z" fill="#E1AA73"/>
<path d="M133.284 96.2083L122.363 74.292C122.133 73.8293 121.701 73.502 121.196 73.4078C120.691 73.3136 120.172 73.4632 119.792 73.8121C119.021 74.5211 118.017 74.9116 116.966 74.9116C114.644 74.9116 112.755 73.0051 112.755 70.6617C112.755 68.6369 114.183 66.8839 116.15 66.4931C116.653 66.3932 117.081 66.0617 117.307 65.5972C117.532 65.1327 117.53 64.5886 117.299 64.1263L114.549 58.6046C113.23 55.958 110.585 54.3138 107.648 54.3136C107.648 54.3136 107.648 54.3136 107.648 54.3136C107.364 54.3136 107.084 54.3335 106.806 54.3637C106.735 50.2755 106.63 46.1819 106.492 42.1657C106.353 38.1079 105.17 34.1445 103.071 30.704C102.596 29.9255 101.585 29.6827 100.813 30.162C100.042 30.6411 99.8013 31.6605 100.276 32.4388C102.078 35.3915 103.093 38.7946 103.212 42.2804C103.363 46.6303 103.473 51.0714 103.544 55.4977C102.373 56.238 101.399 57.2976 100.748 58.6029L92.7206 74.7133C89.6131 69.8419 85.2622 66.063 80.1862 66.063C71.3325 66.063 64.6837 77.5574 62.9953 86.2972H62.8892C62.0233 81.8155 59.853 76.6107 56.7499 72.6015C56.7275 69.448 56.7271 66.2802 56.7461 63.1057C58.4413 63.1397 60.1404 63.162 61.8442 63.162C66.1013 63.162 70.3757 63.0563 74.6161 62.8458C77.4909 62.703 79.824 60.507 80.1639 57.624C80.6229 53.7311 80.6229 49.7832 80.1639 45.8902C79.824 43.0073 77.4911 40.8112 74.617 40.6687C68.8791 40.384 63.0684 40.2933 57.3162 40.3944C58.1716 33.5999 62.3453 27.757 68.5532 24.8001H91.822C93.4537 25.5773 94.9765 26.5756 96.3501 27.7771C96.6605 28.0487 97.0431 28.1818 97.4242 28.1818C97.8834 28.1818 98.3402 27.9885 98.6646 27.6111C99.2581 26.9207 99.1844 25.8754 98.4999 25.2765C97.7607 24.63 96.9823 24.0362 96.1733 23.4916C97.5922 22.3677 98.5064 20.6234 98.5064 18.6668C98.5064 15.8582 96.6246 13.4863 94.0667 12.7621V6.90963C94.066 3.09966 90.9933 0 87.2159 0H73.1581C69.3809 0 66.308 3.09966 66.308 6.90963V12.7625C63.7498 13.4867 61.868 15.8586 61.868 18.6672C61.868 20.6236 62.7818 22.3675 64.2002 23.4914C61.7232 25.1578 59.5743 27.2963 57.8817 29.805C55.4174 33.4576 54.0346 37.7321 53.883 42.1657C53.5752 51.1255 53.4306 60.1826 53.4507 69.1468C51.1542 67.2493 48.54 66.0633 45.698 66.0633C41.7087 66.0633 37.6719 68.527 34.3312 73.0005C33.7858 73.7304 33.9306 74.7682 34.6545 75.3181C35.3784 75.8682 36.407 75.7221 36.9521 74.992C38.5194 72.8934 41.7395 69.3732 45.6982 69.3732C48.7817 69.3732 52.0209 71.5514 54.8195 75.5061C57.0356 78.6378 58.7353 82.5556 59.5408 86.2974H31.8539C32.273 84.3556 32.9396 82.3434 33.8182 80.3845C34.1916 79.5517 33.8252 78.5713 32.9996 78.1944C32.1742 77.8178 31.202 78.1874 30.8283 79.0202C29.7509 81.4225 28.963 83.9098 28.5093 86.2972H26.2564C23.9094 86.2972 22 88.2231 22 90.5906C22 92.9579 23.9096 94.8841 26.2564 94.8841H27.0628C27.3352 97.4195 27.7943 99.9463 28.2435 102.403C28.5635 104.154 28.8945 105.964 29.1461 107.729C29.4869 110.111 31.3753 111.965 33.7392 112.237C38.0409 112.73 41.8675 112.977 45.6956 112.977C49.518 112.977 53.342 112.731 57.6404 112.239C58.4249 112.149 59.1549 111.884 59.7961 111.486C61.4705 112.465 63.3571 112.978 65.3214 112.978H80.1884L80.1843 112.977C84.0135 112.977 87.842 112.73 92.1459 112.237C93.2857 112.106 94.3128 111.604 95.1115 110.856C99.1708 112.269 103.393 112.964 107.597 112.964C116.147 112.964 124.616 110.099 131.459 104.611C133.947 102.617 134.715 99.0829 133.284 96.2083ZM69.5894 6.90963C69.5894 4.92476 71.1903 3.30995 73.1581 3.30995H87.2159C89.1837 3.30995 90.7846 4.92476 90.7846 6.90963V12.5337H69.5894V6.90963ZM67.9487 15.8436H92.4253C93.9689 15.8436 95.2244 17.1102 95.2244 18.667C95.2244 20.224 93.9687 21.4906 92.4253 21.4906H67.9487C66.4051 21.4906 65.1494 20.224 65.1494 18.667C65.1494 17.1102 66.4053 15.8436 67.9487 15.8436ZM74.4553 43.9751C75.7246 44.038 76.755 45.008 76.905 46.2815C77.3334 49.9151 77.3334 53.6 76.905 57.2334C76.755 58.5069 75.7244 59.4771 74.4545 59.54C68.5796 59.8317 62.6405 59.9169 56.7731 59.7989C56.8293 54.4312 56.9441 49.0554 57.1174 43.7092C62.8804 43.6024 68.7045 43.69 74.4553 43.9751ZM103.679 60.0901C104.449 58.5457 105.933 57.6238 107.647 57.6238H107.648C109.363 57.624 110.847 58.5466 111.617 60.0914L113.535 63.9425C111.097 65.2137 109.474 67.7835 109.474 70.6619C109.474 74.8304 112.835 78.2218 116.966 78.2218C118.123 78.2218 119.249 77.9552 120.265 77.4519L129.445 95.8742C129.435 95.8821 129.426 95.891 129.416 95.8989C124.801 99.6014 119.283 102.078 113.458 103.061C108.207 103.947 102.789 103.609 97.6986 102.094C98.1295 99.734 98.5611 97.3134 98.8217 94.8841H99.6289C101.976 94.8841 103.885 92.9581 103.885 90.5906C103.885 88.2231 101.976 86.2972 99.6289 86.2972H97.3765C96.878 83.7165 95.9471 80.8962 94.6543 78.2019L103.679 60.0901ZM71.0641 75.5065C73.8629 71.5514 77.1026 69.3732 80.1858 69.3732C83.2699 69.3732 86.5096 71.5514 89.3082 75.5065C91.524 78.638 93.2236 82.5558 94.0288 86.2976H66.3428C67.148 82.5563 68.8478 78.6384 71.0641 75.5065ZM25.2814 90.5911C25.2814 90.0487 25.7189 89.6076 26.2564 89.6076H99.6289C100.167 89.6076 100.604 90.0487 100.604 90.5911C100.604 91.1332 100.167 91.5746 99.6289 91.5746H26.2564C25.7187 91.5744 25.2814 91.1332 25.2814 90.5911ZM61.9448 108.892C62.0872 108.522 62.1931 108.134 62.2508 107.729C62.4042 106.644 62.5862 105.351 62.7765 103.971C62.7897 103.878 62.7967 103.826 62.9421 103.826C63.0878 103.826 63.0948 103.878 63.1077 103.97C63.2983 105.351 63.4803 106.644 63.6339 107.731C63.7299 108.403 63.9535 109.032 64.2735 109.597C63.4615 109.487 62.6785 109.25 61.9448 108.892ZM91.7745 108.949C83.4429 109.904 76.9494 109.905 68.6153 108.951C67.7221 108.849 67.0091 108.153 66.882 107.262C66.7291 106.18 66.5478 104.891 66.3574 103.512C66.1124 101.748 64.7078 100.516 62.9419 100.516C61.1761 100.516 59.7716 101.748 59.5266 103.514C59.3365 104.891 59.1551 106.18 59.0024 107.26C58.8751 108.153 58.1622 108.849 57.2696 108.951C48.9339 109.905 42.4404 109.904 34.1104 108.949C33.2277 108.847 32.5218 108.151 32.3938 107.257C32.133 105.429 31.7961 103.585 31.4702 101.803C31.0539 99.5264 30.6293 97.1885 30.3646 94.8843H95.5197C95.2546 97.1946 94.8288 99.539 94.4117 101.822C94.087 103.599 93.7512 105.436 93.4905 107.258C93.3627 108.152 92.6568 108.847 91.7745 108.949ZM129.416 102.02C120.229 109.389 107.835 111.58 96.7065 107.903C96.7165 107.845 96.7301 107.789 96.7384 107.732C96.8502 106.951 96.9786 106.161 97.1134 105.371C100.541 106.355 104.1 106.855 107.664 106.855C109.783 106.855 111.903 106.679 113.999 106.325C120.061 105.303 125.817 102.799 130.713 99.0683C130.776 100.182 130.317 101.298 129.416 102.02Z" fill="#3B5974"/>
<path d="M109.177 95.6327C110.283 97.2548 111.948 98.3453 113.867 98.7036C114.316 98.7875 114.766 98.829 115.213 98.829C116.676 98.829 118.104 98.3846 119.337 97.5302C120.945 96.415 122.026 94.7348 122.381 92.7994C122.736 90.864 122.323 88.9048 121.218 87.2827C120.112 85.6606 118.446 84.5701 116.528 84.2118C114.608 83.8534 112.667 84.2702 111.058 85.3852C109.45 86.5005 108.369 88.1806 108.014 90.116C107.658 92.0516 108.072 94.0109 109.177 95.6327ZM111.24 90.7186C111.436 89.6524 112.032 88.7269 112.917 88.1126C113.596 87.6419 114.383 87.3972 115.189 87.3972C115.435 87.3972 115.683 87.4202 115.93 87.4663C116.987 87.6638 117.905 88.2644 118.514 89.1581C119.123 90.0515 119.35 91.1308 119.155 92.197C118.959 93.2633 118.363 94.1887 117.478 94.803C116.592 95.4173 115.521 95.6468 114.465 95.4496C113.408 95.2521 112.49 94.6514 111.881 93.7578C111.272 92.8641 111.044 91.7848 111.24 90.7186Z" fill="#3B5974"/>
<path d="M102.286 85.7061C102.613 85.7672 102.941 85.7974 103.267 85.7974C104.334 85.7974 105.375 85.4733 106.273 84.8506C107.446 84.0375 108.234 82.8126 108.493 81.4017C108.752 79.9906 108.451 78.5622 107.645 77.3795C106.839 76.1968 105.624 75.4017 104.225 75.1405C101.338 74.6014 98.553 76.5322 98.0184 79.4451C97.4833 82.358 99.3979 85.1668 102.286 85.7061ZM101.245 80.0477C101.45 78.9294 102.519 78.1875 103.628 78.3952C104.165 78.4956 104.631 78.8008 104.941 79.2549C105.25 79.709 105.366 80.2573 105.266 80.7991C105.167 81.3408 104.864 81.8112 104.414 82.1232C103.964 82.4355 103.421 82.5522 102.883 82.4518C101.774 82.2444 101.039 81.166 101.245 80.0477Z" fill="#3B5974"/>
</svg>
