<svg width="154" height="113" viewBox="0 0 154 113" fill="none" xmlns="http://www.w3.org/2000/svg">
<g clip-path="url(#clip0_3_7233)">
<path d="M108.502 103.985L93.1799 107.449L82.0556 104.935L77.8579 103.985L79.9768 92.9073L92.9128 88.0635L93.1799 87.9633L93.447 88.0635L106.383 92.9073L107.039 96.3349L108.502 103.985Z" fill="#ECECEC"/>
<path d="M107.039 96.335H87.0285C85.0347 96.335 83.3275 97.7715 82.9773 99.7442L82.0557 104.935L77.8579 103.985L79.9768 92.9074L92.9128 88.0636H93.447L106.383 92.9074L107.039 96.335Z" fill="#DADADA"/>
<path d="M140.944 85.0773C140.513 88.611 137.663 91.3394 134.129 91.5918C106.83 93.5489 79.5306 93.5489 52.2314 91.5918C48.6973 91.3394 45.8471 88.611 45.4166 85.0773C43.0584 65.7323 43.0584 46.3893 45.4164 27.0443C45.8469 23.5106 48.6973 20.7822 52.2312 20.5278C54.8184 20.3436 57.4035 20.1752 59.9907 20.025C78.8166 18.9312 97.6407 18.769 116.467 19.5363C122.354 19.7746 128.24 20.1072 134.128 20.5278C137.662 20.7822 140.513 23.5106 140.943 27.0443C143.301 46.3893 143.301 65.7323 140.944 85.0773Z" fill="#ECECEC"/>
<path d="M53.9906 91.715C53.4045 91.6749 52.8185 91.6349 52.2326 91.5927C48.6986 91.3384 45.8465 88.61 45.4159 85.0762C43.0599 65.7313 43.0599 46.3882 45.4159 27.0433C45.8465 23.5095 48.6988 20.7814 52.2326 20.5268C52.8187 20.4848 53.4048 20.4446 53.9906 20.4045C52.7069 21.6344 51.838 23.2991 51.6088 25.1743C49.0994 45.7652 49.0994 66.3543 51.6088 86.9452C51.838 88.8204 52.7071 90.4851 53.9906 91.715Z" fill="#DADADA"/>
<path d="M135.684 78.1082C135.518 79.849 134.117 81.207 132.383 81.3214C119.353 82.1808 106.182 82.6174 93.18 82.6174C80.1781 82.6174 67.007 82.1808 53.9773 81.3214C52.2432 81.2072 50.8421 79.849 50.6765 78.1082C49.0938 61.3694 49.3171 44.4683 51.3522 27.7756C51.434 27.0984 51.982 26.5717 52.6558 26.5235C54.4378 26.3953 56.2237 26.2751 58.0136 26.1669C69.7139 25.4399 81.5176 25.0712 93.18 25.0712C101.663 25.0712 110.224 25.2655 118.763 25.652C123.756 25.8763 128.743 26.1669 133.704 26.5233C134.378 26.5715 134.926 27.0982 135.008 27.7754C137.043 44.4683 137.266 61.3694 135.684 78.1082Z" fill="#D3E6FF"/>
<path d="M116.582 110.913H69.7778C67.8742 110.913 66.3311 109.362 66.3311 107.449C66.3311 105.535 67.8742 103.984 69.7778 103.984H116.582C118.486 103.984 120.029 105.535 120.029 107.449C120.029 109.362 118.486 110.913 116.582 110.913Z" fill="#ECECEC"/>
<path d="M79.0717 110.912H69.7774C67.8737 110.912 66.3311 109.362 66.3311 107.449C66.3311 106.493 66.7178 105.626 67.3395 104.999C67.9634 104.374 68.8264 103.985 69.7774 103.985H79.0717C78.119 103.985 77.258 104.374 76.6341 104.999C76.0102 105.626 75.6256 106.493 75.6256 107.449C75.6254 109.362 77.1683 110.912 79.0717 110.912Z" fill="#DADADA"/>
<path d="M143.975 64.2515C133.57 65.3585 123.164 65.3585 112.758 64.2515C109.025 63.8545 106.117 60.8192 105.878 57.0544C104.875 41.2603 104.875 25.4661 105.878 9.67203C106.117 5.90746 109.025 2.87194 112.758 2.47488C123.164 1.36791 133.57 1.36791 143.975 2.47488C147.708 2.87194 150.616 5.90724 150.855 9.67203C151.858 25.4661 151.858 41.2603 150.855 57.0544C150.616 60.8192 147.708 63.8545 143.975 64.2515Z" fill="#CECECE"/>
<path d="M111.667 64.0557C108.472 63.2413 106.093 60.4435 105.878 57.0546C104.875 41.2605 104.875 25.4664 105.878 9.6723C106.093 6.28347 108.472 3.4856 111.667 2.67126C109.732 4.03436 108.432 6.23115 108.272 8.74056C107.23 25.1562 107.23 41.5707 108.272 57.9864C108.432 60.4958 109.732 62.6924 111.667 64.0557Z" fill="#B8DEFB"/>
<path d="M144.996 50.9042C144.819 53.688 142.67 55.9329 139.91 56.2269C132.215 57.0452 124.519 57.0452 116.825 56.2269C114.064 55.9329 111.914 53.688 111.737 50.9042C110.996 39.2251 110.996 27.5449 111.737 15.866C111.914 13.0822 114.064 10.8373 116.825 10.5433C117.725 10.4477 118.624 10.3633 119.525 10.2903C119.836 11.5153 120.879 12.4462 122.169 12.5842C126.3 13.0231 130.433 13.0231 134.565 12.5842C135.855 12.4464 136.898 11.5153 137.209 10.2903C138.109 10.3633 139.01 10.4475 139.91 10.5433C142.67 10.8373 144.82 13.0822 144.996 15.866C145.739 27.5451 145.739 39.2251 144.996 50.9042Z" fill="#D3E6FF"/>
<path d="M119.857 51.2619C119.811 54.0867 119.248 56.3646 118.525 56.6629C116.51 57.4933 114.495 57.4933 112.481 56.6629C111.758 56.3646 111.195 54.0867 111.149 51.2619C110.954 39.4108 110.954 27.5587 111.149 15.7079C111.195 12.8831 111.758 10.6051 112.481 10.3068C112.716 10.2098 112.952 10.1241 113.188 10.05C113.269 11.2931 113.542 12.2377 113.88 12.3778C114.962 12.8231 116.044 12.8231 117.126 12.3778C117.464 12.2379 117.736 11.2931 117.818 10.05C118.054 10.1241 118.29 10.2096 118.525 10.3068C119.248 10.6051 119.811 12.8831 119.857 15.7079C120.052 27.5589 120.052 39.4108 119.857 51.2619Z" fill="#BDD5F4"/>
<path d="M93.1797 86.3147C92.2734 86.3147 91.5391 87.0529 91.5391 87.9635V88.0638C91.5391 88.9744 92.2734 89.7126 93.1797 89.7126C94.086 89.7126 94.8203 88.9744 94.8203 88.0638V87.9635C94.8203 87.0529 94.0858 86.3147 93.1797 86.3147Z" fill="#3B5974"/>
<path d="M152.492 9.56742C152.202 4.99115 148.693 1.31892 144.148 0.835459C133.676 -0.278324 123.057 -0.278324 112.585 0.835459C108.041 1.31892 104.532 4.99115 104.241 9.56742C104.073 12.2109 103.936 14.8611 103.824 17.5149C89.2391 17.2428 74.4699 17.5321 59.8969 18.3787C57.3899 18.5236 54.8444 18.6887 52.1154 18.8837C47.8142 19.1913 44.3115 22.5393 43.7869 26.8445C41.4259 46.2312 41.4259 65.8913 43.7869 85.2782C44.3117 89.5821 47.8144 92.929 52.1152 93.2365C60.7148 93.853 69.3507 94.2736 78.0013 94.5009L76.503 102.336H69.7775C66.9724 102.336 64.6901 104.629 64.6901 107.449C64.6901 110.268 66.9724 112.562 69.7775 112.562H116.582C119.387 112.562 121.669 110.268 121.669 107.449C121.669 104.629 119.387 102.336 116.582 102.336H109.856L108.358 94.5009C117.009 94.2736 125.647 93.8528 134.244 93.2365C138.547 92.929 142.048 89.5815 142.571 85.278C143.354 78.8462 143.881 72.3326 144.145 65.8917C144.146 65.8917 144.147 65.8915 144.148 65.8915C148.692 65.408 152.201 61.7358 152.492 57.1597C153.495 41.3696 153.495 25.3571 152.492 9.56742ZM118.388 107.449C118.388 108.45 117.578 109.264 116.582 109.264H69.7775C68.7815 109.264 67.9714 108.45 67.9714 107.449C67.9714 106.448 68.7815 105.634 69.7775 105.634H116.582C117.578 105.634 118.388 106.448 118.388 107.449ZM106.515 102.336H79.8443L81.3283 94.5752C85.2771 94.6561 89.2283 94.7014 93.18 94.7014C97.1307 94.7014 101.082 94.6561 105.031 94.575L106.515 102.336ZM139.314 84.8779C138.981 87.6192 136.751 89.7512 134.012 89.9471C106.918 91.889 79.4422 91.889 52.3482 89.9471C49.6091 89.7512 47.378 87.6188 47.0438 84.8772C44.7151 65.7563 44.7151 46.366 47.0438 27.2452C47.378 24.5021 49.6091 22.3689 52.3482 22.173C55.0621 21.9791 57.5931 21.8148 60.0857 21.6708C74.555 20.8303 89.2183 20.5425 103.699 20.8105C103.669 21.7142 103.643 22.6182 103.62 23.5225C100.136 23.4565 96.6322 23.4213 93.178 23.4213C81.5139 23.4213 69.6482 23.7916 57.9147 24.5213C56.2907 24.6191 54.5323 24.736 52.5387 24.8787C51.0814 24.9832 49.8972 26.1183 49.7231 27.5739C47.6784 44.3512 47.4493 61.4056 49.0426 78.2653C49.2867 80.8238 51.3176 82.8003 53.8688 82.9652C54.7007 83.0201 55.5305 83.0733 56.3624 83.1241C56.3961 83.1261 56.43 83.1272 56.4633 83.1272C57.3241 83.1272 58.0466 82.4531 58.0993 81.5781C58.1543 80.6692 57.4656 79.8876 56.561 79.8324C55.735 79.7821 54.9107 79.7296 54.0819 79.6746C53.144 79.6139 52.3983 78.8888 52.309 77.9522C50.7443 61.3928 50.9628 44.6404 52.9583 28.1552C54.8628 28.0194 56.5501 27.9074 58.114 27.8134C69.7838 27.0874 81.581 26.7194 93.178 26.7194C96.6084 26.7194 100.088 26.7543 103.548 26.8196C103.372 36.9465 103.602 47.0981 104.241 57.1595C104.532 61.7356 108.041 65.408 112.585 65.8915C117.821 66.4484 123.094 66.7269 128.367 66.7269C130.525 66.7269 132.682 66.6777 134.837 66.5845C134.666 70.3734 134.406 74.1877 134.05 77.9507C133.96 78.8891 133.214 79.6141 132.274 79.6748C119.265 80.5331 106.111 80.9684 93.1782 80.9684C83.2436 80.9684 73.1206 80.7094 63.0903 80.1989C62.1827 80.1506 61.4146 80.8528 61.3687 81.7623C61.3227 82.6719 62.0193 83.4464 62.924 83.4926C73.0096 84.0059 83.1884 84.2665 93.1782 84.2665C106.182 84.2665 119.409 83.829 132.487 82.9658C135.041 82.8009 137.072 80.8242 137.316 78.2647C137.688 74.3385 137.957 70.3583 138.129 66.4075C139.036 66.3481 139.943 66.2784 140.848 66.2023C140.582 72.4093 140.069 78.6817 139.314 84.8779ZM149.218 56.9496C149.029 59.9169 146.752 62.2982 143.803 62.6119C133.56 63.7017 123.173 63.7015 112.93 62.6119C109.981 62.2982 107.704 59.9169 107.516 56.9496C106.522 41.2988 106.522 25.4279 107.516 9.77716C107.704 6.80978 109.981 4.42854 112.93 4.11481C118.052 3.57001 123.208 3.29783 128.367 3.29783C133.523 3.29783 138.682 3.57023 143.803 4.11503C146.752 4.42876 149.029 6.81 149.217 9.77738C150.212 25.4279 150.212 41.299 149.218 56.9496Z" fill="#3B5974"/>
<path d="M145.258 20.5804C144.353 20.6176 143.649 21.3855 143.686 22.2953C144.071 31.7374 143.96 41.3272 143.358 50.7994C143.233 52.7847 141.71 54.3771 139.736 54.5864C132.193 55.3904 124.542 55.3904 116.995 54.5864C115.024 54.3775 113.501 52.7845 113.375 50.7985C112.641 39.2445 112.641 27.5265 113.375 15.9705C113.501 13.9859 115.024 12.3928 116.994 12.1826C117.523 12.1272 118.024 12.0773 118.507 12.0329C119.261 13.2371 120.54 14.0685 121.996 14.2249C126.223 14.6727 130.509 14.6727 134.739 14.2246C136.192 14.0688 137.471 13.2371 138.226 12.0329C138.711 12.0778 139.212 12.1272 139.736 12.1824C141.694 12.3908 143.215 13.9685 143.354 15.9336C143.418 16.842 144.198 17.5273 145.106 17.462C146.01 17.3976 146.691 16.6092 146.627 15.7007C146.376 12.1391 143.623 9.28034 140.079 8.90307C139.103 8.8004 138.207 8.71641 137.341 8.6465C136.544 8.58252 135.819 9.10292 135.62 9.87988C135.473 10.4541 134.979 10.8826 134.392 10.9455C130.394 11.369 126.338 11.369 122.341 10.9457C121.753 10.8824 121.26 10.4555 121.115 9.88274C120.917 9.10423 120.19 8.58318 119.394 8.64628C118.538 8.71509 117.641 8.79908 116.65 8.90307C113.083 9.28364 110.329 12.1675 110.1 15.7603C109.357 27.4559 109.357 39.3151 110.1 51.0085C110.329 54.6042 113.084 57.4883 116.65 57.8657C120.538 58.2802 124.452 58.4873 128.367 58.4873C132.281 58.4873 136.195 58.2802 140.081 57.8657C143.651 57.4878 146.407 54.6033 146.632 51.0085C147.242 41.423 147.354 31.7169 146.965 22.1603C146.928 21.2508 146.175 20.5413 145.258 20.5804Z" fill="#3B5974"/>
<path d="M123.679 7.634H133.054C133.961 7.634 134.695 6.89573 134.695 5.98509C134.695 5.07445 133.961 4.33618 133.054 4.33618H123.679C122.772 4.33618 122.038 5.07445 122.038 5.98509C122.038 6.89573 122.772 7.634 123.679 7.634Z" fill="#3B5974"/>
</g>
<g clip-path="url(#clip1_3_7233)">
<path d="M28.4263 51.1512L1.45166 51.1512L1.45165 86.1557L28.4263 86.1557L28.4263 51.1512Z" fill="#ADAAAF"/>
<path d="M72.8844 47.037L54.814 47.037L54.814 68.9766L72.8844 68.9766L72.8844 47.037Z" fill="#ADAAAF"/>
<path d="M23.8324 40.1283L6.04688 40.1283L6.04687 51.1509L23.8324 51.1509L23.8324 40.1283Z" fill="#E8E7E9"/>
<path d="M68.4435 40.1283L59.2544 40.1283L59.2544 47.037L68.4435 47.037L68.4435 40.1283Z" fill="#E8E7E9"/>
<path fill-rule="evenodd" clip-rule="evenodd" d="M72.8844 45.5776L69.8957 45.5776L69.8957 40.1282C69.8957 39.3225 69.2456 38.6691 68.4438 38.6691L59.2547 38.6691C58.453 38.6691 57.8028 39.3225 57.8028 40.1282L57.8028 45.5778L54.814 45.5778C54.0121 45.5778 53.3621 46.2312 53.3621 47.0369L53.3621 52.1702C53.3621 52.976 54.0121 53.6294 54.814 53.6294C55.6157 53.6294 56.2659 52.976 56.2659 52.1702L56.2659 48.4961L59.2547 48.4961L68.4438 48.4961L71.4325 48.4961L71.4325 67.5174L56.2659 67.5174L56.2659 63.8434C56.2659 63.0376 55.6157 62.3842 54.814 62.3842C54.0121 62.3842 53.3621 63.0376 53.3621 63.8434L53.3621 68.9765C53.3621 69.7823 54.0121 70.4357 54.814 70.4357L62.3972 70.4357L62.3972 99.1642C62.3972 104.492 58.0842 108.827 52.7827 108.827L26.0055 108.827C20.7039 108.827 16.391 104.492 16.391 99.1642L16.391 87.6144L28.4265 87.6144C29.2282 87.6144 29.8784 86.961 29.8784 86.1552L29.8784 51.1509C29.8784 50.3451 29.2282 49.6917 28.4265 49.6917L25.2838 49.6917L25.2838 40.1282C25.2838 39.3225 24.6338 38.6691 23.8319 38.6691L6.04636 38.6691C5.24463 38.6691 4.59448 39.3225 4.59448 40.1282L4.59447 49.6917L1.45188 49.6917C0.65015 49.6917 -2.03132e-06 50.3451 -2.1715e-06 51.1509L-4.20099e-06 62.8164C-4.3412e-06 63.6223 0.650148 64.2756 1.45188 64.2756C2.2536 64.2756 2.90376 63.6223 2.90376 62.8164L2.90376 52.61L6.04635 52.61L23.8319 52.61L26.9746 52.61L26.9746 84.6961L2.90375 84.696L2.90375 74.4897C2.90375 73.6839 2.2536 73.0305 1.45187 73.0305C0.650146 73.0305 -6.09165e-06 73.6839 -6.23183e-06 74.4897L-8.26132e-06 86.1552C-8.4015e-06 86.961 0.650144 87.6144 1.45187 87.6144L13.4872 87.6144L13.4872 99.164C13.4872 106.101 19.103 111.745 26.0055 111.745L52.7828 111.745C59.6853 111.745 65.3011 106.101 65.3011 99.1641L65.3011 70.4357L72.8844 70.4357C73.6861 70.4357 74.3363 69.7823 74.3363 68.9765L74.3363 47.0368C74.3363 46.231 73.6861 45.5776 72.8844 45.5776ZM60.7066 45.5776L60.7066 41.5874L66.9919 41.5874L66.9919 45.5778L60.7066 45.5778L60.7066 45.5776ZM7.49823 49.6917L7.49824 41.5874L22.38 41.5874L22.38 49.6917L7.49823 49.6917Z" fill="#3B5974"/>
<path fill-rule="evenodd" clip-rule="evenodd" d="M12.8856 44.1802L10.2336 44.1802C9.43174 44.1802 8.78174 44.8336 8.78174 45.6393C8.78174 46.4451 9.43174 47.0985 10.2336 47.0985L12.8856 47.0985C13.6873 47.0985 14.3375 46.4451 14.3375 45.6393C14.3375 44.8336 13.6874 44.1802 12.8856 44.1802Z" fill="#3B5974"/>
<path fill-rule="evenodd" clip-rule="evenodd" d="M19.6439 44.1802L16.9919 44.1802C16.1902 44.1802 15.54 44.8336 15.54 45.6393C15.54 46.4451 16.1902 47.0985 16.9919 47.0985L19.6439 47.0985C20.4457 47.0985 21.0958 46.4451 21.0958 45.6393C21.0958 44.8336 20.4457 44.1802 19.6439 44.1802Z" fill="#3B5974"/>
<path fill-rule="evenodd" clip-rule="evenodd" d="M1.45188 70.1122C2.25158 70.1122 2.90376 69.4567 2.90376 68.653C2.90376 67.8493 2.25158 67.1938 1.45188 67.1938C0.652185 67.1938 -1.14031e-07 67.8493 -2.53854e-07 68.653C-3.93677e-07 69.4567 0.652184 70.1122 1.45188 70.1122Z" fill="#3B5974"/>
<path fill-rule="evenodd" clip-rule="evenodd" d="M54.8142 59.4657C55.6139 59.4657 56.2661 58.8101 56.2661 58.0065C56.2661 57.2028 55.6139 56.5472 54.8142 56.5472C54.0145 56.5472 53.3623 57.2028 53.3623 58.0065C53.3623 58.8101 54.0145 59.4657 54.8142 59.4657Z" fill="#3B5974"/>
</g>
<defs>
<clipPath id="clip0_3_7233">
<rect width="112" height="112.561" fill="white" transform="translate(41.6304)"/>
</clipPath>
<clipPath id="clip1_3_7233">
<rect width="74.3363" height="74.7089" fill="white" transform="translate(0 37.8528)"/>
</clipPath>
</defs>
</svg>
