<svg width="155" height="113" viewBox="0 0 155 113" fill="none" xmlns="http://www.w3.org/2000/svg">
<path d="M116.158 1.6449H37.8451C32.859 1.6449 28.8169 5.69771 28.8169 10.6972V101.486H125.186V10.6972C125.186 5.69771 121.144 1.6449 116.158 1.6449Z" fill="#ECECEC"/>
<path d="M126.789 101.488H27.2112C24.6868 101.488 22.6406 103.54 22.6406 106.071C22.6406 108.602 24.687 110.653 27.2112 110.653H126.789C129.313 110.653 131.359 108.602 131.359 106.071C131.359 103.54 129.313 101.488 126.789 101.488Z" fill="#C2BDB8"/>
<path d="M33.6634 109.31C34.4925 110.139 35.6344 110.652 36.8966 110.652H27.2103C25.9481 110.652 24.8062 110.139 23.9794 109.31C23.1525 108.481 22.6406 107.336 22.6406 106.07C22.6406 103.539 24.6859 101.486 27.2103 101.486H36.8966C34.3722 101.486 32.3247 103.539 32.3247 106.07C32.3247 107.336 32.8366 108.481 33.6634 109.31Z" fill="#B0A8A8"/>
<path d="M56.5637 43.8889C57.4632 34.4607 57.5735 25.0325 56.8945 15.6043C56.7276 13.2864 54.9087 11.432 52.6002 11.2221C45.9231 10.6154 39.2459 10.6154 32.5688 11.2221C30.2606 11.4318 28.4417 13.2864 28.2745 15.6043C27.5955 25.0325 27.7058 34.4607 28.6053 43.8889" fill="#FFCF9C"/>
<path d="M33.8785 43.8893H28.6045C27.7054 34.4625 27.5938 25.0334 28.2741 15.6043C28.4404 13.2882 30.2604 11.4326 32.5682 11.222C33.4126 11.1453 34.257 11.0795 35.1013 11.0203C34.3204 11.8603 33.7888 13.2553 33.7188 14.8564C33.2857 24.5333 33.3382 34.2124 33.8785 43.8893Z" fill="#E1AA73"/>
<path d="M42.5842 35.8734C47.2833 35.8734 51.0927 33.0294 51.0927 29.5211C51.0927 26.0128 47.2833 23.1688 42.5842 23.1688C37.8851 23.1688 34.0757 26.0128 34.0757 29.5211C34.0757 33.0294 37.8851 35.8734 42.5842 35.8734Z" fill="#F2828C"/>
<path d="M90.9798 43.8889C91.8793 34.4607 91.9895 25.0325 91.3105 15.6043C91.1436 13.2864 89.3247 11.432 87.0162 11.2221C80.3391 10.6154 73.662 10.6154 66.9848 11.2221C64.6766 11.4318 62.8577 13.2864 62.6906 15.6043C62.0116 25.0325 62.1218 34.4607 63.0213 43.8889" fill="#FFCF9C"/>
<path d="M68.2936 43.8893H63.0195C62.1204 34.4625 62.0089 25.0334 62.6892 15.6043C62.8554 13.2882 64.6754 11.4326 66.9832 11.222C67.8276 11.1453 68.672 11.0795 69.5164 11.0203C68.7354 11.8603 68.2039 13.2553 68.1339 14.8564C67.7007 24.5333 67.7532 34.2124 68.2936 43.8893Z" fill="#E1AA73"/>
<path d="M76.9992 35.8734C81.6984 35.8734 85.5077 33.0294 85.5077 29.5211C85.5077 26.0128 81.6984 23.1688 76.9992 23.1688C72.3001 23.1688 68.4907 26.0128 68.4907 29.5211C68.4907 33.0294 72.3001 35.8734 76.9992 35.8734Z" fill="#F2828C"/>
<path d="M125.396 43.8889C126.295 34.4607 126.406 25.0325 125.727 15.6043C125.56 13.2864 123.741 11.432 121.432 11.2221C114.755 10.6154 108.078 10.6154 101.401 11.2221C99.0926 11.4318 97.2737 13.2864 97.1066 15.6043C96.4276 25.0325 96.5378 34.4607 97.4373 43.8889" fill="#FFCF9C"/>
<path d="M102.712 43.8893H97.4375C96.5384 34.4625 96.4268 25.0334 97.1072 15.6043C97.2734 13.2882 99.0934 11.4326 101.401 11.222C102.246 11.1453 103.09 11.0795 103.934 11.0203C103.153 11.8603 102.622 13.2553 102.552 14.8564C102.119 24.5333 102.171 34.2124 102.712 43.8893Z" fill="#E1AA73"/>
<path d="M111.417 35.8734C116.116 35.8734 119.926 33.0294 119.926 29.5211C119.926 26.0128 116.116 23.1688 111.417 23.1688C106.718 23.1688 102.909 26.0128 102.909 29.5211C102.909 33.0294 106.718 35.8734 111.417 35.8734Z" fill="#F2828C"/>
<path d="M126.789 43.8907H27.2112C24.6868 43.8907 22.6406 45.9426 22.6406 48.4735C22.6406 51.0046 24.687 53.0562 27.2112 53.0562H126.789C129.313 53.0562 131.359 51.0043 131.359 48.4735C131.359 45.9426 129.313 43.8907 126.789 43.8907Z" fill="#C2BDB8"/>
<path d="M33.6634 51.7125C34.4925 52.5416 35.6344 53.0548 36.8966 53.0548H27.2103C25.9481 53.0548 24.8062 52.5416 23.9794 51.7125C23.1525 50.8834 22.6406 49.7385 22.6406 48.473C22.6406 45.9419 24.6859 43.8889 27.2103 43.8889H36.8966C34.3722 43.8889 32.3247 45.9419 32.3247 48.473C32.3247 49.7385 32.8366 50.8834 33.6634 51.7125Z" fill="#B0A8A8"/>
<path d="M47.3069 85.9757H39.8169C38.2045 85.9757 36.8975 87.2862 36.8975 88.9029V98.5597C36.8975 100.176 38.2045 101.487 39.8169 101.487H47.3069C48.9193 101.487 50.2263 100.176 50.2263 98.5597V88.9029C50.2266 87.2864 48.9193 85.9757 47.3069 85.9757Z" fill="#E4F0FF"/>
<path d="M44.8184 101.488H39.8156C38.2034 101.488 36.8975 100.179 36.8975 98.5599V88.9049C36.8975 87.2884 38.2034 85.9768 39.8156 85.9768H44.8184C43.204 85.9768 41.8981 87.2882 41.8981 88.9049V98.5599C41.8981 100.179 43.204 101.488 44.8184 101.488Z" fill="#CBDEF7"/>
<path d="M48.4177 80.0258H38.7052C37.7066 80.0258 36.897 80.8375 36.897 81.8388V84.1628C36.897 85.164 37.7066 85.9758 38.7052 85.9758H48.4177C49.4163 85.9758 50.2259 85.164 50.2259 84.1628V81.8388C50.2261 80.8373 49.4165 80.0258 48.4177 80.0258Z" fill="#F2828C"/>
<path d="M43.0526 85.9772H38.706C37.7063 85.9772 36.897 85.1657 36.897 84.1633V81.8406C36.897 80.8383 37.7063 80.0267 38.706 80.0267H43.0526C42.0551 80.0267 41.2457 80.8383 41.2457 81.8406V84.1633C41.2457 85.1657 42.0551 85.9772 43.0526 85.9772Z" fill="#F6798D"/>
<path d="M47.3069 64.5144H39.8169C38.2045 64.5144 36.8975 65.8249 36.8975 67.4416V77.0983C36.8975 78.715 38.2045 80.0255 39.8169 80.0255H47.3069C48.9193 80.0255 50.2263 78.715 50.2263 77.0983V67.4416C50.2266 65.8249 48.9193 64.5144 47.3069 64.5144Z" fill="#E4F0FF"/>
<path d="M44.8184 80.0264H39.8156C38.2034 80.0264 36.8975 78.717 36.8975 77.0983V67.4433C36.8975 65.8269 38.2034 64.5153 39.8156 64.5153H44.8184C43.204 64.5153 41.8981 65.8266 41.8981 67.4433V77.0983C41.8981 78.7172 43.204 80.0264 44.8184 80.0264Z" fill="#CBDEF7"/>
<path d="M48.4177 58.5642H38.7052C37.7066 58.5642 36.897 59.376 36.897 60.3772V62.7013C36.897 63.7025 37.7066 64.5143 38.7052 64.5143H48.4177C49.4163 64.5143 50.2259 63.7025 50.2259 62.7013V60.3772C50.2261 59.376 49.4165 58.5642 48.4177 58.5642Z" fill="#F2828C"/>
<path d="M43.0526 64.5157H38.706C37.7063 64.5157 36.897 63.7041 36.897 62.7018V60.3791C36.897 59.3767 37.7063 58.5652 38.706 58.5652H43.0526C42.0551 58.5652 41.2457 59.3767 41.2457 60.3791V62.7018C41.2457 63.7041 42.0551 64.5157 43.0526 64.5157Z" fill="#F6798D"/>
<path d="M60.636 85.9758H53.146C51.5336 85.9758 50.2266 87.2863 50.2266 88.903V98.5598C50.2266 100.176 51.5336 101.487 53.146 101.487H60.636C62.2484 101.487 63.5554 100.176 63.5554 98.5598V88.903C63.5554 87.2866 62.2484 85.9758 60.636 85.9758Z" fill="#E4F0FF"/>
<path d="M58.1475 101.488H53.1447C51.5325 101.488 50.2266 100.179 50.2266 98.56V88.905C50.2266 87.2885 51.5325 85.9769 53.1447 85.9769H58.1475C56.5331 85.9769 55.2272 87.2883 55.2272 88.905V98.56C55.2272 100.179 56.5331 101.488 58.1475 101.488Z" fill="#CBDEF7"/>
<path d="M61.7477 80.0258H52.0352C51.0366 80.0258 50.2271 80.8375 50.2271 81.8388V84.1628C50.2271 85.164 51.0366 85.9758 52.0352 85.9758H61.7477C62.7463 85.9758 63.5559 85.164 63.5559 84.1628V81.8388C63.5559 80.8373 62.7463 80.0258 61.7477 80.0258Z" fill="#F2828C"/>
<path d="M56.3827 85.9772H52.0361C51.0364 85.9772 50.2271 85.1657 50.2271 84.1633V81.8406C50.2271 80.8383 51.0364 80.0267 52.0361 80.0267H56.3827C55.3852 80.0267 54.5758 80.8383 54.5758 81.8406V84.1633C54.5758 85.1657 55.3852 85.9772 56.3827 85.9772Z" fill="#F6798D"/>
<path d="M60.636 64.5144H53.146C51.5336 64.5144 50.2266 65.8249 50.2266 67.4416V77.0983C50.2266 78.715 51.5336 80.0255 53.146 80.0255H60.636C62.2484 80.0255 63.5554 78.715 63.5554 77.0983V67.4416C63.5554 65.8249 62.2484 64.5144 60.636 64.5144Z" fill="#E4F0FF"/>
<path d="M58.1475 80.0264H53.1447C51.5325 80.0264 50.2266 78.717 50.2266 77.0983V67.4433C50.2266 65.8269 51.5325 64.5153 53.1447 64.5153H58.1475C56.5331 64.5153 55.2272 65.8266 55.2272 67.4433V77.0983C55.2272 78.7172 56.5331 80.0264 58.1475 80.0264Z" fill="#CBDEF7"/>
<path d="M61.7477 58.5642H52.0352C51.0366 58.5642 50.2271 59.376 50.2271 60.3772V62.7013C50.2271 63.7025 51.0366 64.5143 52.0352 64.5143H61.7477C62.7463 64.5143 63.5559 63.7025 63.5559 62.7013V60.3772C63.5559 59.376 62.7463 58.5642 61.7477 58.5642Z" fill="#F2828C"/>
<path d="M56.3827 64.5157H52.0361C51.0364 64.5157 50.2271 63.7041 50.2271 62.7018V60.3791C50.2271 59.3767 51.0364 58.5652 52.0361 58.5652H56.3827C55.3852 58.5652 54.5758 59.3767 54.5758 60.3791V62.7018C54.5758 63.7041 55.3852 64.5157 56.3827 64.5157Z" fill="#F6798D"/>
<path d="M104.784 64.5144H97.2944C95.682 64.5144 94.375 65.8249 94.375 67.4416V77.0983C94.375 78.715 95.682 80.0255 97.2944 80.0255H104.784C106.397 80.0255 107.704 78.715 107.704 77.0983V67.4416C107.704 65.8249 106.397 64.5144 104.784 64.5144Z" fill="#E4F0FF"/>
<path d="M102.296 80.0264H97.2931C95.6809 80.0264 94.375 78.717 94.375 77.0983V67.4433C94.375 65.8269 95.6809 64.5153 97.2931 64.5153H102.296C100.682 64.5153 99.3756 65.8266 99.3756 67.4433V77.0983C99.3756 78.7172 100.682 80.0264 102.296 80.0264Z" fill="#CBDEF7"/>
<path d="M105.896 58.5642H96.1837C95.1851 58.5642 94.3755 59.376 94.3755 60.3772V62.7013C94.3755 63.7025 95.1851 64.5143 96.1837 64.5143H105.896C106.895 64.5143 107.704 63.7025 107.704 62.7013V60.3772C107.705 59.376 106.895 58.5642 105.896 58.5642Z" fill="#F2828C"/>
<path d="M100.531 64.5157H96.1846C95.1849 64.5157 94.3755 63.7041 94.3755 62.7018V60.3791C94.3755 59.3767 95.1849 58.5652 96.1846 58.5652H100.531C99.5336 58.5652 98.7242 59.3767 98.7242 60.3791V62.7018C98.7242 63.7041 99.5336 64.5157 100.531 64.5157Z" fill="#F6798D"/>
<path d="M83.9485 85.9757H76.4585C74.8461 85.9757 73.5391 87.2862 73.5391 88.9029V98.5597C73.5391 100.176 74.8461 101.487 76.4585 101.487H83.9485C85.5609 101.487 86.8679 100.176 86.8679 98.5597V88.9029C86.8681 87.2864 85.5609 85.9757 83.9485 85.9757Z" fill="#F2828C"/>
<path d="M81.46 101.488H76.4572C74.845 101.488 73.5391 100.179 73.5391 98.5599V88.9049C73.5391 87.2884 74.845 85.9768 76.4572 85.9768H81.46C79.8456 85.9768 78.5397 87.2882 78.5397 88.9049V98.5599C78.5397 100.179 79.8456 101.488 81.46 101.488Z" fill="#F6798D"/>
<path d="M85.0602 80.0258H75.3477C74.3491 80.0258 73.5396 80.8375 73.5396 81.8388V84.1628C73.5396 85.164 74.3491 85.9758 75.3477 85.9758H85.0602C86.0588 85.9758 86.8684 85.164 86.8684 84.1628V81.8388C86.8684 80.8373 86.0588 80.0258 85.0602 80.0258Z" fill="#E4F2FC"/>
<path d="M79.6942 85.9772H75.3476C74.3479 85.9772 73.5386 85.1657 73.5386 84.1633V81.8406C73.5386 80.8383 74.3479 80.0267 75.3476 80.0267H79.6942C78.6967 80.0267 77.8873 80.8383 77.8873 81.8406V84.1633C77.8873 85.1657 78.6967 85.9772 79.6942 85.9772Z" fill="#365E7D"/>
<path d="M83.9485 64.5144H76.4585C74.8461 64.5144 73.5391 65.8249 73.5391 67.4416V77.0983C73.5391 78.715 74.8461 80.0255 76.4585 80.0255H83.9485C85.5609 80.0255 86.8679 78.715 86.8679 77.0983V67.4416C86.8681 65.8249 85.5609 64.5144 83.9485 64.5144Z" fill="#F2828C"/>
<path d="M81.46 80.0264H76.4572C74.845 80.0264 73.5391 78.717 73.5391 77.0983V67.4433C73.5391 65.8269 74.845 64.5153 76.4572 64.5153H81.46C79.8456 64.5153 78.5397 65.8266 78.5397 67.4433V77.0983C78.5397 78.7172 79.8456 80.0264 81.46 80.0264Z" fill="#F6798D"/>
<path d="M85.0602 58.5642H75.3477C74.3491 58.5642 73.5396 59.376 73.5396 60.3772V62.7013C73.5396 63.7025 74.3491 64.5143 75.3477 64.5143H85.0602C86.0588 64.5143 86.8684 63.7025 86.8684 62.7013V60.3772C86.8684 59.376 86.0588 58.5642 85.0602 58.5642Z" fill="#E4F2FC"/>
<path d="M79.6942 64.5157H75.3476C74.3479 64.5157 73.5386 63.7041 73.5386 62.7018V60.3791C73.5386 59.3767 74.3479 58.5652 75.3476 58.5652H79.6942C78.6967 58.5652 77.8873 59.3767 77.8873 60.3791V62.7018C77.8873 63.7041 78.6967 64.5157 79.6942 64.5157Z" fill="#365E7D"/>
<path d="M97.2766 85.9758H89.7866C88.1742 85.9758 86.8672 87.2863 86.8672 88.903V98.5598C86.8672 100.176 88.1742 101.487 89.7866 101.487H97.2766C98.889 101.487 100.196 100.176 100.196 98.5598V88.903C100.196 87.2866 98.889 85.9758 97.2766 85.9758Z" fill="#F2828C"/>
<path d="M94.7881 101.488H89.7853C88.1731 101.488 86.8672 100.179 86.8672 98.56V88.905C86.8672 87.2885 88.1731 85.9769 89.7853 85.9769H94.7881C93.1737 85.9769 91.8678 87.2883 91.8678 88.905V98.56C91.8678 100.179 93.1737 101.488 94.7881 101.488Z" fill="#F6798D"/>
<path d="M98.3884 80.0258H88.6759C87.6773 80.0258 86.8677 80.8375 86.8677 81.8388V84.1628C86.8677 85.164 87.6773 85.9758 88.6759 85.9758H98.3884C99.387 85.9758 100.197 85.164 100.197 84.1628V81.8388C100.197 80.8373 99.3872 80.0258 98.3884 80.0258Z" fill="#E4F2FC"/>
<path d="M93.0233 85.9772H88.6767C87.677 85.9772 86.8677 85.1657 86.8677 84.1633V81.8406C86.8677 80.8383 87.677 80.0267 88.6767 80.0267H93.0233C92.0258 80.0267 91.2164 80.8383 91.2164 81.8406V84.1633C91.2164 85.1657 92.0258 85.9772 93.0233 85.9772Z" fill="#365E7D"/>
<path d="M110.606 85.9758H103.116C101.503 85.9758 100.196 87.2863 100.196 88.903V98.5598C100.196 100.176 101.503 101.487 103.116 101.487H110.606C112.218 101.487 113.525 100.176 113.525 98.5598V88.903C113.525 87.2866 112.218 85.9758 110.606 85.9758Z" fill="#F2828C"/>
<path d="M108.117 101.488H103.114C101.502 101.488 100.196 100.179 100.196 98.56V88.905C100.196 87.2885 101.502 85.9769 103.114 85.9769H108.117C106.503 85.9769 105.197 87.2883 105.197 88.905V98.56C105.197 100.179 106.503 101.488 108.117 101.488Z" fill="#F6798D"/>
<path d="M111.718 80.0258H102.006C101.007 80.0258 100.198 80.8375 100.198 81.8388V84.1628C100.198 85.164 101.007 85.9758 102.006 85.9758H111.718C112.717 85.9758 113.527 85.164 113.527 84.1628V81.8388C113.527 80.8373 112.717 80.0258 111.718 80.0258Z" fill="#E4F2FC"/>
<path d="M106.352 85.9772H102.006C101.006 85.9772 100.197 85.1657 100.197 84.1633V81.8406C100.197 80.8383 101.006 80.0267 102.006 80.0267H106.352C105.355 80.0267 104.546 80.8383 104.546 81.8406V84.1633C104.546 85.1657 105.355 85.9772 106.352 85.9772Z" fill="#365E7D"/>
<path d="M126.825 99.8429V54.6998C130.233 54.6803 133 51.895 133 48.473C133 45.1742 130.429 42.4679 127.19 42.2595C127.944 33.3687 128.002 24.3706 127.363 15.4853C127.308 14.7198 127.121 13.9938 126.825 13.3286V10.6968C126.825 4.79854 122.039 0 116.156 0H37.8438C31.9611 0 27.1753 4.79854 27.1753 10.6968V13.3323C26.88 13.9967 26.6932 14.7216 26.6381 15.4859C25.9984 24.3667 26.0571 33.3645 26.8111 42.2595C23.5723 42.4673 21 45.1738 21 48.473C21 51.895 23.767 54.6803 27.1753 54.6998V99.8429C23.767 99.862 21 102.648 21 106.071C21 107.734 21.6462 109.298 22.8191 110.474C23.9923 111.65 25.5517 112.298 27.2103 112.298H36.6931C37.5992 112.298 38.3337 111.561 38.3337 110.653C38.3337 109.744 37.5992 109.008 36.6931 109.008H27.2103C26.4283 109.008 25.6928 108.702 25.1394 108.147C24.586 107.593 24.2812 106.855 24.2812 106.071C24.2812 104.45 25.5953 103.132 27.2103 103.132H126.79C127.572 103.132 128.307 103.438 128.859 103.991C129.414 104.548 129.719 105.287 129.719 106.071C129.719 107.69 128.405 109.008 126.79 109.008H43.2556C42.3496 109.008 41.615 109.744 41.615 110.653C41.615 111.561 42.3496 112.298 43.2556 112.298H126.79C130.214 112.298 133 109.504 133 106.071C133 104.41 132.354 102.846 131.181 101.666C130.016 100.498 128.47 99.8519 126.825 99.8429ZM103.11 99.842C102.407 99.8385 101.837 99.265 101.837 98.5601V88.9033C101.837 88.1962 102.411 87.6211 103.116 87.6211H110.606C111.311 87.6211 111.885 88.1964 111.885 88.9033V98.5601C111.885 99.265 111.314 99.8388 110.612 99.842H103.11ZM89.7805 99.842C89.0783 99.8385 88.508 99.265 88.508 98.5601V88.9033C88.508 88.1962 89.0818 87.6211 89.7868 87.6211H97.2768C97.9821 87.6211 98.5558 88.1964 98.5558 88.9033V98.5601C98.5558 99.265 97.9853 99.8388 97.2832 99.842H89.7805ZM76.4516 99.842C75.7494 99.8385 75.1791 99.265 75.1791 98.5601V88.9033C75.1791 88.1962 75.7529 87.6211 76.4579 87.6211H83.9479C84.6532 87.6211 85.227 88.1964 85.227 88.9033V98.5601C85.227 99.265 84.6565 99.8388 83.9543 99.842H76.4516ZM75.3465 62.8695C75.2542 62.8695 75.1789 62.794 75.1789 62.7015V60.3772C75.1789 60.2847 75.2542 60.2092 75.3465 60.2092H85.059C85.1513 60.2092 85.2265 60.2847 85.2265 60.3772V62.7015C85.2265 62.794 85.1513 62.8695 85.059 62.8695H75.3465ZM96.1831 62.8695C96.0908 62.8695 96.0155 62.794 96.0155 62.7015V60.3772C96.0155 60.2847 96.0908 60.2092 96.1831 60.2092H105.896C105.988 60.2092 106.063 60.2847 106.063 60.3772V62.7015C106.063 62.794 105.988 62.8695 105.896 62.8695H96.1831ZM111.885 84.1629C111.885 84.2554 111.809 84.3309 111.717 84.3309H102.005C101.912 84.3309 101.837 84.2554 101.837 84.1629V81.8386C101.837 81.7461 101.912 81.6706 102.005 81.6706H111.717C111.809 81.6706 111.885 81.7461 111.885 81.8386V84.1629ZM96.0155 77.0984V67.4417C96.0155 66.7346 96.5893 66.1595 97.2945 66.1595H104.785C105.49 66.1595 106.063 66.7348 106.063 67.4417V77.0984C106.063 77.8056 105.49 78.3806 104.785 78.3806H102.005H98.3883H97.2945C96.5893 78.3806 96.0155 77.8056 96.0155 77.0984ZM98.3881 81.6706C98.4804 81.6706 98.5556 81.7461 98.5556 81.8386V84.1629C98.5556 84.2554 98.4804 84.3309 98.3881 84.3309H88.6756C88.5833 84.3309 88.508 84.2554 88.508 84.1629V81.8386C88.508 81.7461 88.5833 81.6706 88.6756 81.6706H98.3881ZM75.3465 84.3309C75.2542 84.3309 75.1789 84.2554 75.1789 84.1629V81.8386C75.1789 81.7461 75.2542 81.6706 75.3465 81.6706H85.059C85.1513 81.6706 85.2265 81.7461 85.2265 81.8386V84.1629C85.2265 84.2554 85.1513 84.3309 85.059 84.3309H75.3465ZM75.1789 67.4417C75.1789 66.7346 75.7527 66.1595 76.4577 66.1595H83.9477C84.653 66.1595 85.2268 66.7348 85.2268 67.4417V77.0984C85.2268 77.8056 84.653 78.3806 83.9477 78.3806H76.4577C75.7525 78.3806 75.1789 77.8053 75.1789 77.0984V67.4417ZM114.387 86.3492C114.873 85.7528 115.166 84.9917 115.166 84.1629V81.8386C115.166 79.932 113.619 78.3806 111.717 78.3806H109.159C109.278 77.9734 109.345 77.5439 109.345 77.0984V67.4417C109.345 66.4966 109.057 65.6175 108.565 64.8876C109.052 64.2912 109.345 63.5301 109.345 62.7013V60.377C109.345 58.4704 107.797 56.919 105.896 56.919H96.1833C94.2817 56.919 92.7345 58.4704 92.7345 60.377V62.7013C92.7345 63.5301 93.0274 64.2912 93.5139 64.8876C93.0219 65.6173 92.7345 66.4964 92.7345 67.4417V77.0984C92.7345 77.5439 92.8014 77.9734 92.9204 78.3806H88.676C88.555 78.3806 88.4356 78.3872 88.3177 78.3995C88.4402 77.9867 88.5084 77.5505 88.5084 77.0984V67.4417C88.5084 66.4966 88.2208 65.6175 87.729 64.8876C88.2158 64.2912 88.5084 63.5301 88.5084 62.7013V60.377C88.5084 58.4704 86.9612 56.919 85.0596 56.919H75.3471C73.4455 56.919 71.8983 58.4704 71.8983 60.377V62.7013C71.8983 63.5301 72.1912 64.2912 72.6777 64.8876C72.1857 65.6173 71.8983 66.4964 71.8983 67.4417V77.0984C71.8983 78.0435 72.186 78.9226 72.6777 79.6526C72.191 80.2489 71.8983 81.01 71.8983 81.8389V84.1631C71.8983 84.992 72.1912 85.753 72.6777 86.3494C72.1857 87.0791 71.8983 87.9582 71.8983 88.9035V98.5603C71.8983 99.0055 71.9652 99.435 72.084 99.8423H65.0099C65.1289 99.435 65.1956 99.0055 65.1956 98.5603V88.9035C65.1956 87.9582 64.9079 87.0793 64.4162 86.3494C64.9029 85.753 65.1956 84.992 65.1956 84.1631V81.8389C65.1956 81.01 64.9027 80.2489 64.4162 79.6526C64.9082 78.9228 65.1956 78.0438 65.1956 77.0984V67.4417C65.1956 66.4966 64.9079 65.6175 64.4162 64.8876C64.9029 64.2912 65.1956 63.5301 65.1956 62.7013V60.377C65.1956 58.4704 63.6484 56.919 61.7468 56.919H52.0343C51.3708 56.919 50.7526 57.1112 50.2261 57.438C49.6996 57.1112 49.0814 56.919 48.4179 56.919H38.7054C36.8038 56.919 35.2566 58.4704 35.2566 60.377V62.7013C35.2566 63.5301 35.5495 64.2912 36.036 64.8876C35.544 65.6173 35.2566 66.4964 35.2566 67.4417V77.0984C35.2566 78.0435 35.5443 78.9226 36.036 79.6526C35.5493 80.2489 35.2566 81.01 35.2566 81.8389V84.1631C35.2566 84.992 35.5495 85.753 36.036 86.3494C35.544 87.0791 35.2566 87.9582 35.2566 88.9035V98.5603C35.2566 99.0055 35.3235 99.435 35.4423 99.8423H30.4566V54.7007H123.543V99.842H114.98C115.099 99.4347 115.166 99.0053 115.166 98.5601V88.9033C115.166 87.958 114.879 87.0789 114.387 86.3492ZM53.1387 99.842C52.4366 99.8385 51.8663 99.265 51.8663 98.5601V88.9033C51.8663 88.1962 52.4401 87.6211 53.1451 87.6211H60.6351C61.3403 87.6211 61.9139 88.1964 61.9139 88.9033V98.5601C61.9139 99.265 61.3436 99.8388 60.6414 99.842H53.1387ZM39.8097 99.842C39.1075 99.8385 38.5372 99.265 38.5372 98.5601V88.9033C38.5372 88.1962 39.111 87.6211 39.816 87.6211H47.306C48.0112 87.6211 48.5848 88.1964 48.5848 88.9033V98.5601C48.5848 99.265 48.0145 99.8388 47.3123 99.842H39.8097ZM38.7048 62.8695C38.6124 62.8695 38.5372 62.794 38.5372 62.7015V60.3772C38.5372 60.2847 38.6124 60.2092 38.7048 60.2092H48.4172C48.5096 60.2092 48.5848 60.2847 48.5848 60.3772V62.7015C48.5848 62.794 48.5096 62.8695 48.4172 62.8695H38.7048ZM38.7048 84.3309C38.6124 84.3309 38.5372 84.2554 38.5372 84.1629V81.8386C38.5372 81.7461 38.6124 81.6706 38.7048 81.6706H48.4172C48.5096 81.6706 48.5848 81.7461 48.5848 81.8386V84.1629C48.5848 84.2554 48.5096 84.3309 48.4172 84.3309H38.7048ZM38.5372 67.4417C38.5372 66.7346 39.111 66.1595 39.816 66.1595H47.306C48.0112 66.1595 48.5848 66.7348 48.5848 67.4417V77.0984C48.5848 77.8056 48.011 78.3806 47.306 78.3806H39.816C39.1108 78.3806 38.5372 77.8053 38.5372 77.0984V67.4417ZM61.9139 67.4417V77.0984C61.9139 77.8056 61.3401 78.3806 60.6351 78.3806H53.1451C52.4398 78.3806 51.8663 77.8053 51.8663 77.0984V67.4417C51.8663 66.7346 52.4401 66.1595 53.1451 66.1595H60.6351C61.3403 66.1595 61.9139 66.7346 61.9139 67.4417ZM52.0338 84.3309C51.9415 84.3309 51.8663 84.2554 51.8663 84.1629V81.8386C51.8663 81.7461 51.9415 81.6706 52.0338 81.6706H61.7463C61.8387 81.6706 61.9139 81.7461 61.9139 81.8386V84.1629C61.9139 84.2554 61.8387 84.3309 61.7463 84.3309H52.0338ZM61.9139 62.7015C61.9139 62.794 61.8387 62.8695 61.7463 62.8695H52.0338C51.9415 62.8695 51.8663 62.794 51.8663 62.7015V60.3772C51.8663 60.2847 51.9415 60.2092 52.0338 60.2092H61.7463C61.8387 60.2092 61.9139 60.2847 61.9139 60.3772V62.7015ZM37.8438 3.28998H116.156C120.019 3.28998 123.196 6.27772 123.515 10.0686C122.914 9.81247 122.264 9.64512 121.58 9.58261C114.835 8.97133 107.997 8.97111 101.253 9.58261C98.1297 9.8673 95.6972 12.349 95.4691 15.4844C95.3936 16.5286 95.3297 17.5498 95.2787 18.5195C95.2313 19.4267 95.926 20.2009 96.831 20.2485C97.7338 20.2937 98.5079 19.5995 98.5554 18.6921C98.6051 17.7439 98.6678 16.7447 98.7416 15.7228C98.8523 14.2017 100.033 12.9974 101.549 12.8592C108.096 12.2655 114.736 12.2655 121.284 12.8592C122.801 12.9976 123.981 14.2013 124.09 15.7215C124.723 24.5242 124.657 33.4391 123.897 42.2451H98.9393C98.4484 36.5802 98.2411 30.8543 98.3301 25.2008C98.3443 24.2923 97.6216 23.5444 96.7157 23.5299C95.8158 23.5236 95.0637 24.2403 95.0493 25.1486C94.9598 30.8192 95.1622 36.5611 95.6452 42.2448H92.7747C93.5277 33.3542 93.5858 24.3614 92.9467 15.4855C92.7207 12.3495 90.2891 9.8673 87.1642 9.58349C80.4202 8.97067 73.5809 8.97089 66.8367 9.58349C63.7118 9.8673 61.28 12.3495 61.054 15.4855C60.4148 24.3614 60.473 33.3542 61.2259 42.2448H58.3586C59.1115 33.3545 59.1697 24.3616 58.5305 15.4855C58.3045 12.3495 55.8727 9.8673 52.7481 9.58349C46.0038 8.97067 39.1648 8.97089 32.4205 9.58349C31.7369 9.64556 31.0863 9.81291 30.4848 10.0693C30.8037 6.27837 33.9813 3.28998 37.8438 3.28998ZM64.5203 42.2451C63.7593 33.4349 63.6932 24.5202 64.3267 15.7226C64.4363 14.2017 65.6165 12.998 67.1326 12.8603C73.6802 12.2653 80.3202 12.2653 86.868 12.8603C88.3844 12.998 89.5643 14.202 89.6739 15.7226C90.3074 24.52 90.2414 33.4349 89.4803 42.2451H64.5203ZM30.1044 42.2451C29.3433 33.4349 29.2773 24.5202 29.9108 15.7226C30.0204 14.2017 31.2005 12.998 32.7167 12.8603C39.2643 12.2653 45.904 12.2653 52.4519 12.8603C53.9683 12.998 55.1482 14.202 55.2578 15.7226C55.8913 24.5202 55.8252 33.4349 55.0642 42.2451H30.1044ZM24.2812 48.473C24.2812 46.853 25.5957 45.535 27.2114 45.535H126.789C128.404 45.535 129.719 46.853 129.719 48.473C129.719 50.093 128.404 51.4107 126.789 51.4107H27.2114C25.5957 51.4107 24.2812 50.093 24.2812 48.473Z" fill="#3B5974"/>
<path d="M42.5832 21.5238C36.9869 21.5238 32.4341 25.1114 32.4341 29.5213C32.4341 33.9312 36.9869 37.5186 42.5832 37.5186C48.1795 37.5186 52.7323 33.931 52.7323 29.5213C52.7323 25.1116 48.1795 21.5238 42.5832 21.5238ZM42.5832 34.2286C38.8605 34.2286 35.7153 32.0728 35.7153 29.5213C35.7153 26.9696 38.8603 24.8138 42.5832 24.8138C46.3061 24.8138 49.4511 26.9696 49.4511 29.5213C49.4511 32.0728 46.3059 34.2286 42.5832 34.2286Z" fill="#3B5974"/>
<path d="M77.0007 21.5238C71.4044 21.5238 66.8516 25.1114 66.8516 29.5213C66.8516 33.9312 71.4044 37.5186 77.0007 37.5186C82.597 37.5186 87.1498 33.931 87.1498 29.5213C87.1498 25.1116 82.597 21.5238 77.0007 21.5238ZM77.0007 34.2286C73.2778 34.2286 70.1328 32.0728 70.1328 29.5213C70.1328 26.9696 73.2778 24.8138 77.0007 24.8138C80.7234 24.8138 83.8686 26.9696 83.8686 29.5213C83.8686 32.0728 80.7236 34.2286 77.0007 34.2286Z" fill="#3B5974"/>
<path d="M111.417 37.5186C117.013 37.5186 121.566 33.931 121.566 29.5213C121.566 25.1116 117.013 21.5238 111.417 21.5238C105.82 21.5238 101.268 25.1114 101.268 29.5213C101.268 33.9312 105.82 37.5186 111.417 37.5186ZM111.417 24.8138C115.139 24.8138 118.285 26.9696 118.285 29.5213C118.285 32.073 115.14 34.2286 111.417 34.2286C107.694 34.2286 104.549 32.0728 104.549 29.5213C104.549 26.9694 107.694 24.8138 111.417 24.8138Z" fill="#3B5974"/>
</svg>
