<svg width="155" height="113" viewBox="0 0 155 113" fill="none" xmlns="http://www.w3.org/2000/svg">
<path d="M64.9517 74.6947C85.4116 76.6706 105.871 76.6706 126.331 74.6947C128.93 74.4437 130.982 72.3819 131.231 69.7701C133.197 49.2077 133.197 28.6452 131.231 8.08278C130.982 5.47082 128.93 3.40897 126.331 3.15817C105.871 1.1823 85.4116 1.1823 64.9517 3.15817C62.3528 3.40919 60.3012 5.47105 60.0517 8.08278C58.0856 28.6452 58.0856 49.2077 60.0517 69.7701C60.3014 72.3821 62.353 74.4437 64.9517 74.6947Z" fill="#C1EECC"/>
<path d="M65.4492 72.1976C65.5431 73.1609 65.8625 74.0567 66.354 74.8269C65.8871 74.7865 65.4202 74.7415 64.9533 74.6966C62.3528 74.4452 60.3019 72.384 60.0517 69.7705C58.0856 49.208 58.0856 28.6456 60.0517 8.0831C60.3019 5.47182 62.3528 3.41063 64.9533 3.15916C65.4202 3.11425 65.8871 3.06935 66.354 3.02893C65.8603 3.79907 65.5431 4.6927 65.4492 5.65593C63.3291 27.8372 63.3291 50.0186 65.4492 72.1976Z" fill="#78C2A4"/>
<path d="M123.589 38.9257C123.589 39.5707 123.568 40.2088 123.523 40.842C122.586 54.826 111.464 66.0042 97.5494 66.9459C96.9194 66.991 96.2844 67.0123 95.6426 67.0123C89.5681 67.0123 83.9466 65.065 79.3636 61.7565C74.4573 58.2179 70.738 53.1184 68.9254 47.1843C68.1254 44.573 67.6958 41.8003 67.6958 38.9257C67.6958 23.4142 80.2083 10.839 95.6424 10.839C98.5027 10.839 101.261 11.2705 103.86 12.0746C109.764 13.8962 114.838 17.6339 118.359 22.5651C121.652 27.1711 123.589 32.8207 123.589 38.9257Z" fill="#D3EFFB"/>
<path d="M123.589 38.9257C123.589 39.5707 123.568 40.2088 123.523 40.842L97.5496 66.9459C96.9195 66.991 96.2846 67.0123 95.6428 67.0123C89.5682 67.0123 83.9468 65.065 79.3638 61.7565L97.2122 43.8186C98.7745 43.3159 100.009 42.0729 100.512 40.5028L118.36 22.5651C121.652 27.1711 123.589 32.8207 123.589 38.9257Z" fill="#ECF9F9"/>
<path d="M103.86 12.0748L68.9254 47.1843C68.1254 44.573 67.6958 41.8003 67.6958 38.9257C67.6958 23.4142 80.2083 10.839 95.6424 10.839C98.5027 10.839 101.261 11.2708 103.86 12.0748Z" fill="#ECF9F9"/>
<path d="M95.6416 44.0669C98.4664 44.0669 100.756 41.7655 100.756 38.9265C100.756 36.0876 98.4664 33.7861 95.6416 33.7861C92.8168 33.7861 90.5269 36.0876 90.5269 38.9265C90.5269 41.7655 92.8168 44.0669 95.6416 44.0669Z" fill="#C1EECC"/>
<path d="M97.9765 59.057C78.2997 57.62 59.1856 57.6263 39.3247 59.0761C29.6106 59.7852 22.0276 67.789 21.7707 77.5742C21.6422 82.4703 21.6378 87.3662 21.7575 92.2623C22.0088 102.548 30.3275 110.818 40.5646 110.877C41.1144 110.88 41.6642 110.879 42.214 110.876C50.5783 110.817 57.6856 105.27 60.0287 97.6021C60.9344 94.6378 63.6147 92.5836 66.7 92.5836H70.5851C73.6704 92.5836 76.3506 94.6378 77.2563 97.6021C79.5994 105.27 86.7068 110.817 95.071 110.876C95.6208 110.879 96.1707 110.88 96.7205 110.877C106.958 110.818 115.276 102.548 115.528 92.2621C115.648 87.3422 115.643 82.4223 115.512 77.5024C115.254 67.7329 107.675 59.7654 97.9765 59.057Z" fill="#ECECEC"/>
<path d="M25.8761 92.262C25.7565 87.3659 25.7608 82.4701 25.8892 77.574C26.1104 69.1429 31.771 61.4752 39.547 59.0608C39.4728 59.0662 39.3991 59.0707 39.3247 59.0761C29.6106 59.7851 22.0276 67.7889 21.7707 77.5742C21.6422 82.4701 21.6378 87.3662 21.7575 92.2623C22.0088 102.548 30.3275 110.818 40.5646 110.877C41.1144 110.88 41.6642 110.879 42.214 110.876C42.6164 110.873 43.0147 110.853 43.4111 110.826C33.7656 110.122 26.1169 102.118 25.8761 92.262Z" fill="#DADADA"/>
<path d="M81.3751 97.6021C80.4694 94.6378 77.7892 92.5836 74.7039 92.5836H70.8188C70.7797 92.5836 70.741 92.5854 70.7021 92.5861C73.7381 92.6373 76.3625 94.6756 77.2568 97.6021C79.5999 105.27 86.7072 110.817 95.0715 110.876C95.6213 110.879 96.1711 110.88 96.7209 110.877C97.1485 110.874 97.5725 110.856 97.993 110.826C90.154 110.274 83.6056 104.901 81.3751 97.6021Z" fill="#DADADA"/>
<path d="M50.7173 77.0235H45.8662V72.148C45.8662 70.4465 44.4938 69.067 42.8005 69.067H40.1303C38.4373 69.067 37.0647 70.4463 37.0647 72.148V77.0235H32.2136C30.5206 77.0235 29.1479 78.4027 29.1479 80.1045V82.7883C29.1479 84.4898 30.5204 85.8693 32.2136 85.8693H37.0647V90.7447C37.0647 92.4462 38.4371 93.8257 40.1303 93.8257H42.8008C44.4938 93.8257 45.8664 92.4464 45.8664 90.7447V85.869H50.7175C52.4105 85.869 53.7831 84.4898 53.7831 82.788V80.1042C53.7829 78.4027 52.4105 77.0235 50.7173 77.0235Z" fill="#97BDD9"/>
<path d="M39.5781 72.148C39.5781 70.4465 40.9505 69.067 42.6438 69.067H40.1311C38.4381 69.067 37.0654 70.4463 37.0654 72.148V77.0235H38.1653C38.9456 77.0235 39.5781 76.3878 39.5781 75.6035V72.148Z" fill="#365E7D"/>
<path d="M31.6614 82.7881V80.1043C31.6614 78.4028 33.0338 77.0236 34.727 77.0236H32.2141C30.5211 77.0236 29.1484 78.4028 29.1484 80.1043V82.7881C29.1484 84.4896 30.5208 85.8689 32.2141 85.8689H34.7268C33.0338 85.8689 31.6614 84.4896 31.6614 82.7881Z" fill="#365E7D"/>
<path d="M39.5781 90.7445V87.2889C39.5781 86.5047 38.9456 85.869 38.1653 85.869H37.0654V90.7445C37.0654 92.4459 38.4378 93.8252 40.1308 93.8252H42.6435C40.9505 93.8255 39.5781 92.4459 39.5781 90.7445Z" fill="#365E7D"/>
<path d="M100.492 79.4026C103.331 79.4026 105.634 77.0889 105.634 74.2348C105.634 71.3807 103.331 69.067 100.492 69.067C97.6518 69.067 95.3496 71.3807 95.3496 74.2348C95.3496 77.0889 97.6518 79.4026 100.492 79.4026Z" fill="#80B4FB"/>
<path d="M101.784 79.2383C101.371 79.3465 100.937 79.4033 100.491 79.4033C97.6506 79.4033 95.3486 77.0897 95.3486 74.2353C95.3486 71.3808 97.6506 69.0673 100.491 69.0673C100.937 69.0673 101.371 69.1243 101.784 69.2323C99.5693 69.8073 97.9339 71.8288 97.9339 74.2353C97.9339 76.6418 99.5693 78.6632 101.784 79.2383Z" fill="#61A2F9"/>
<path d="M91.704 92.5715C94.5439 92.5715 96.846 90.2578 96.846 87.4037C96.846 84.5497 94.5439 82.236 91.704 82.236C88.8642 82.236 86.562 84.5497 86.562 87.4037C86.562 90.2578 88.8642 92.5715 91.704 92.5715Z" fill="#DB6F80"/>
<path d="M92.996 92.406C92.5825 92.5142 92.1499 92.5713 91.7042 92.5713C88.864 92.5713 86.562 90.2577 86.562 87.4033C86.562 84.5506 88.864 82.2371 91.7042 82.2371C92.1499 82.2371 92.5825 82.2941 92.996 82.4021C90.7809 82.9771 89.1455 84.9983 89.1455 87.403C89.1453 89.8096 90.7809 91.831 92.996 92.406Z" fill="#E77D86"/>
<path d="M71.7039 78.6671H65.583C64.1165 78.6671 62.9277 79.8618 62.9277 81.3357C62.9277 82.8095 64.1165 84.0042 65.583 84.0042H71.7039C73.1704 84.0042 74.3592 82.8095 74.3592 81.3357C74.3592 79.8621 73.1704 78.6671 71.7039 78.6671Z" fill="#97BDD9"/>
<path d="M132.902 7.92268C132.578 4.51589 129.883 1.80716 126.495 1.48249C106.024 -0.494274 85.2648 -0.49405 64.7953 1.48249C61.4087 1.80716 58.7137 4.51499 58.3873 7.92178C56.8484 24.0318 56.5137 40.3547 57.3839 56.4687C51.3648 56.6421 45.3169 56.9499 39.2075 57.3954C34.095 57.769 29.331 60.0289 25.7931 63.7592C22.2576 67.4873 20.236 72.3776 20.1008 77.5292C19.971 82.4314 19.9666 87.4025 20.0874 92.3037C20.1985 96.887 21.759 101.197 24.6003 104.768C25.1783 105.494 26.2328 105.612 26.9555 105.031C27.6782 104.45 27.7955 103.39 27.2175 102.664C24.8378 99.6732 23.5306 96.0623 23.4374 92.2209C23.3181 87.3762 23.3226 82.4632 23.4509 77.6181C23.6861 68.6533 30.5647 61.4032 39.4504 60.7543C59.1989 59.3142 78.3047 59.3084 97.8596 60.7364C106.734 61.3835 113.604 68.6104 113.841 77.5472C113.971 82.4004 113.977 87.3376 113.857 92.2213C113.746 96.7604 111.914 101.016 108.697 104.205C105.478 107.395 101.223 109.166 96.7184 109.192C96.1735 109.194 95.6284 109.194 95.0886 109.192C87.5744 109.138 81.0542 104.281 78.8635 97.1066C77.7272 93.394 74.4017 90.8995 70.5886 90.8995H66.7035C62.8916 90.8995 59.5673 93.3938 58.4308 97.1071C56.2383 104.281 49.7178 109.137 42.2108 109.192C41.6661 109.194 41.121 109.194 40.5784 109.192C37.4776 109.174 34.4399 108.315 31.7934 106.707C31.0014 106.225 29.9713 106.481 29.4928 107.276C29.014 108.072 29.2678 109.108 30.0598 109.589C33.2235 111.511 36.8543 112.538 40.562 112.56C41.1163 112.562 41.6704 112.562 42.23 112.56C46.6564 112.528 50.8612 111.102 54.3896 108.438C57.8629 105.814 60.3682 102.238 61.6341 98.0966C62.3351 95.8062 64.3724 94.2672 66.7035 94.2672H70.5886C72.9212 94.2672 74.9594 95.8062 75.66 98.0955C76.9249 102.238 79.4298 105.814 82.904 108.438C86.4328 111.102 90.6378 112.528 95.0696 112.56C95.3462 112.561 95.623 112.561 95.8998 112.561C96.1777 112.561 96.4561 112.561 96.7349 112.56C102.121 112.529 107.205 110.413 111.05 106.602C114.889 102.798 117.075 97.7198 117.207 92.3037C117.328 87.3625 117.323 82.3671 117.191 77.4567C117.189 77.3471 117.18 77.2391 117.175 77.13C120.279 76.9218 123.405 76.6688 126.495 76.3699C129.884 76.0421 132.579 73.3336 132.902 69.9313C134.871 49.3581 134.871 28.4948 132.902 7.92268ZM129.566 69.6107C129.395 71.4114 127.969 72.8444 126.174 73.0182C123.055 73.3197 119.898 73.5743 116.767 73.7825C115.996 70.0223 114.221 66.6408 111.724 63.9337C120.131 58.4682 125.268 49.0846 125.268 38.9255C125.268 32.5601 123.296 26.4873 119.565 21.363C119.018 20.6124 117.97 20.4494 117.223 20.9984C116.477 21.5476 116.314 22.6013 116.861 23.3519C120.169 27.8951 121.917 33.2802 121.917 38.9255C121.917 48.2357 117.052 56.8127 109.149 61.5795C106.059 59.2019 102.267 57.681 98.1022 57.3772C90.6653 56.8341 83.2928 56.4973 75.9256 56.3657C71.6967 51.5479 69.3755 45.383 69.3755 38.9255C69.3755 24.3673 81.1606 12.5231 95.6462 12.5231C101.851 12.5231 107.874 14.7387 112.604 18.7616C113.311 19.3625 114.368 19.2738 114.966 18.5641C115.563 17.8541 115.475 16.7916 114.769 16.1908C109.435 11.6537 102.643 9.15512 95.6462 9.15512C79.3127 9.15512 66.0243 22.5102 66.0243 38.9255C66.0243 45.225 67.9847 51.2774 71.6015 56.3143C67.9836 56.2891 64.3637 56.3131 60.7357 56.3872C59.8678 40.4081 60.1971 24.2204 61.723 8.24398C61.8957 6.44056 63.3217 5.00693 65.1146 4.83517C85.3727 2.87884 105.916 2.87906 126.175 4.83517C127.969 5.00693 129.395 6.43988 129.566 8.24376C131.514 28.6035 131.514 49.2497 129.566 69.6107Z" fill="#3B5974"/>
<path d="M95.6453 32.1021C91.9012 32.1021 88.855 35.1635 88.855 38.9264C88.855 42.6893 91.9012 45.7508 95.6453 45.7508C99.3894 45.7508 102.436 42.6893 102.436 38.9264C102.436 35.1635 99.3894 32.1021 95.6453 32.1021ZM95.6453 42.3828C93.749 42.3828 92.2061 40.8322 92.2061 38.9264C92.2061 37.0206 93.749 35.47 95.6453 35.47C97.5416 35.47 99.0845 37.0206 99.0845 38.9264C99.0845 40.8322 97.5416 42.3828 95.6453 42.3828Z" fill="#3B5974"/>
<path d="M42.8042 67.3829H40.1336C37.5195 67.3829 35.3926 69.5205 35.3926 72.1479V75.3394H32.2171C29.6029 75.3394 27.4761 77.4769 27.4761 80.1043V82.7882C27.4761 85.4154 29.6029 87.5529 32.2171 87.5529H35.3926V90.7444C35.3926 93.3716 37.5195 95.5091 40.1336 95.5091H42.804C45.4183 95.5091 47.5452 93.3716 47.5452 90.7444V87.5529H50.7208C53.3351 87.5529 55.462 85.4154 55.462 82.7882V80.1043C55.462 77.4769 53.3351 75.3394 50.7208 75.3394H47.5452V72.1479C47.5452 69.5205 45.4183 67.3829 42.8042 67.3829ZM50.7208 78.7073C51.4873 78.7073 52.1108 79.334 52.1108 80.1043V82.7882C52.1108 83.5583 51.4873 84.185 50.7208 84.185H45.8696C44.9443 84.185 44.1941 84.9389 44.1941 85.8689V90.7444C44.1941 91.5145 43.5705 92.1412 42.804 92.1412H40.1336C39.3673 92.1412 38.7438 91.5145 38.7438 90.7444V85.8689C38.7438 84.9389 37.9935 84.185 37.0682 84.185H32.2171C31.4508 84.185 30.8272 83.5583 30.8272 82.7882V80.1043C30.8272 79.334 31.4508 78.7073 32.2171 78.7073H37.0682C37.9935 78.7073 38.7438 77.9534 38.7438 77.0234V72.1479C38.7438 71.3775 39.3673 70.7509 40.1336 70.7509H42.804C43.5705 70.7509 44.1941 71.3775 44.1941 72.1479V77.0234C44.1941 77.9534 44.9443 78.7073 45.8696 78.7073H50.7208Z" fill="#3B5974"/>
<path d="M107.313 74.2347C107.313 70.4565 104.255 67.3829 100.495 67.3829C96.736 67.3829 93.6777 70.4565 93.6777 74.2347C93.6777 78.0129 96.736 81.0864 100.495 81.0864C104.255 81.0864 107.313 78.0129 107.313 74.2347ZM97.0287 74.2347C97.0287 72.3136 98.5836 70.7509 100.495 70.7509C102.407 70.7509 103.962 72.3136 103.962 74.2347C103.962 76.1558 102.407 77.7185 100.495 77.7185C98.5836 77.7185 97.0287 76.1558 97.0287 74.2347Z" fill="#3B5974"/>
<path d="M84.8901 87.4038C84.8901 91.1819 87.9484 94.2555 91.7077 94.2555C95.467 94.2555 98.5253 91.1819 98.5253 87.4038C98.5253 83.6256 95.467 80.552 91.7077 80.552C87.9484 80.552 84.8901 83.6258 84.8901 87.4038ZM95.1744 87.4038C95.1744 89.3248 93.6194 90.8876 91.7079 90.8876C89.7964 90.8876 88.2415 89.3248 88.2415 87.4038C88.2415 85.4827 89.7964 83.92 91.7079 83.92C93.6194 83.92 95.1744 85.4829 95.1744 87.4038Z" fill="#3B5974"/>
<path d="M71.7086 85.6884C74.0966 85.6884 76.0394 83.7359 76.0394 81.3359C76.0394 78.9359 74.0966 76.9834 71.7086 76.9834H65.5876C63.1996 76.9834 61.2568 78.9359 61.2568 81.3359C61.2568 83.7359 63.1996 85.6884 65.5876 85.6884H71.7086ZM64.6078 81.3359C64.6078 80.793 65.0472 80.3513 65.5874 80.3513H71.7084C72.2486 80.3513 72.688 80.793 72.688 81.3359C72.688 81.8788 72.2486 82.3205 71.7084 82.3205H65.5874C65.0472 82.3205 64.6078 81.8788 64.6078 81.3359Z" fill="#3B5974"/>
</svg>
