<svg width="155" height="113" viewBox="0 0 155 113" fill="none" xmlns="http://www.w3.org/2000/svg">
<path d="M100.366 40.6094C76.491 40.6094 52.6162 38.9587 28.7413 38.9587C24.6058 62.7731 24.6058 87.1276 28.7413 110.942H100.366C104.501 87.1276 104.501 64.424 100.366 40.6094Z" fill="#F5C28B"/>
<path d="M40.3159 110.944H28.742C24.6101 87.1274 24.6101 62.7751 28.742 38.9587H40.3159C36.1784 62.7751 36.1784 87.1274 40.3159 110.944Z" fill="#E1AC76"/>
<path d="M76.1246 69.2289L64.5544 61.8981L52.9844 69.2289V38.9587H76.1246V69.2289Z" fill="#E77F8F"/>
<path d="M111.188 1.80187C100.159 1.39855 89.1307 1.78735 78.1029 2.96674C75.0354 3.29396 72.6335 5.76291 72.3884 8.85244C70.7989 28.8833 70.7989 48.9141 72.3884 68.9465C72.6335 72.036 75.0354 74.5049 78.1029 74.8322C94.5519 76.5917 111.002 76.5917 127.453 74.8322C130.519 74.5049 132.922 72.036 133.168 68.9465C134.354 53.985 134.655 39.0251 134.069 24.0652" fill="#ECECEC"/>
<path d="M134.069 24.0653C128.648 23.8693 123.226 23.4805 117.804 22.9004C114.738 22.5732 112.334 20.1042 112.089 17.0147C111.686 11.9438 111.386 6.87284 111.188 1.80212C116.609 1.99806 133.87 18.9943 134.069 24.0653Z" fill="#DADADA"/>
<path d="M53.9377 102.377C48.3593 102.847 42.7806 102.847 37.2022 102.377C35.6755 102.249 34.4679 101.035 34.3396 99.5004C33.8718 93.8938 33.8718 88.2873 34.3396 82.6809C34.4676 81.1466 35.6753 79.9329 37.2022 79.804C42.7806 79.3339 48.3593 79.3339 53.9377 79.804C55.4644 79.9327 56.672 81.1464 56.8003 82.6809C57.2681 88.2873 57.2681 93.894 56.8003 99.5004C56.6722 101.035 55.4646 102.249 53.9377 102.377Z" fill="#ECECEC"/>
<path d="M132.278 57.1218C132.234 58.0316 132.932 58.805 133.838 58.8492C133.865 58.8505 133.892 58.8512 133.919 58.8512C134.789 58.8512 135.514 58.1644 135.556 57.2819C136.091 46.2236 136.143 35.0277 135.71 24.0051C135.71 24.0036 135.71 24.0021 135.71 24.0003C135.547 19.8332 128.033 12.1722 125.733 9.92334C123.431 7.67123 115.582 0.312123 111.25 0.153567C111.25 0.153567 111.249 0.153348 111.249 0.153348C100.184 -0.250629 88.9742 0.144551 77.9311 1.32723C74.0802 1.73869 71.0625 4.84823 70.7555 8.72087C70.0021 18.2072 69.6102 27.7568 69.5706 37.3102L28.7423 37.3109C27.9447 37.3109 27.2627 37.887 27.1257 38.6767C23.6293 58.8144 23.0632 79.3225 25.4426 99.6308C25.541 100.47 26.2498 101.088 27.0703 101.088C27.1342 101.088 27.1992 101.084 27.2642 101.076C28.1644 100.969 28.8082 100.15 28.7023 99.2451C26.4137 79.7128 26.8931 59.9936 30.1263 40.6095H51.3445V69.2288C51.3445 69.8294 51.6694 70.3826 52.1928 70.6729C52.4401 70.8099 52.713 70.8781 52.9856 70.8781C53.2902 70.8781 53.5941 70.793 53.8609 70.6239L64.5554 63.848L70.6535 67.7107C70.6881 68.1664 70.7192 68.6227 70.7553 69.0781C71.0623 72.9512 74.0802 76.0608 77.9306 76.4722C85.8532 77.3195 93.8297 77.7552 101.808 77.7884C101.663 88.3338 100.716 98.9161 98.9845 109.292H30.1269C29.9232 108.07 29.734 106.872 29.562 105.717C29.4281 104.816 28.5926 104.194 27.6964 104.329C26.7999 104.464 26.1819 105.303 26.3159 106.204C26.5552 107.813 26.8274 109.502 27.1253 111.224C27.2618 112.014 27.9441 112.591 28.7421 112.591H100.369C101.166 112.591 101.848 112.014 101.986 111.225C103.897 100.223 104.939 88.9801 105.09 77.7791C112.622 77.705 120.15 77.2718 127.629 76.472C131.48 76.0603 134.498 72.9508 134.805 69.077C134.941 67.3435 135.068 65.5994 135.181 63.8928C135.241 62.984 134.556 62.1982 133.652 62.1377C132.754 62.0797 131.966 62.7651 131.906 63.674C131.794 65.3667 131.669 67.097 131.533 68.8158C131.352 71.1075 129.564 72.9479 127.282 73.1916C111.024 74.9306 94.5367 74.9304 78.2781 73.1916C75.9968 72.9479 74.209 71.1075 74.0272 68.8156C72.4509 48.9635 72.4509 28.8328 74.0272 8.98256C74.209 6.69087 75.9965 4.85065 78.2783 4.60699C88.6648 3.49468 99.2003 3.09048 109.618 3.40122C109.816 7.98329 110.093 12.5981 110.455 17.1452C110.762 21.019 113.781 24.1289 117.632 24.54C122.565 25.0675 127.552 25.4394 132.482 25.6507C132.848 36.0875 132.783 46.6659 132.278 57.1218ZM65.4304 60.5029C64.8959 60.164 64.2149 60.164 63.6801 60.5029L54.6267 66.2389V40.6093H69.5711C69.6054 48.2957 69.8706 55.9791 70.3669 63.6301L65.4304 60.5029ZM117.979 21.2602C115.697 21.0168 113.909 19.1759 113.727 16.8833C113.389 12.6386 113.121 8.33294 112.927 4.05237C113.689 4.42534 114.717 5.0268 116.075 5.99529C118.304 7.58613 120.922 9.82086 123.444 12.2876C127.696 16.4452 130.536 20.0813 131.755 22.3184C127.177 22.1044 122.554 21.7495 117.979 21.2602Z" fill="#3B5974"/>
<path d="M88.8061 21.5808C87.9995 21.1663 87.0107 21.4867 86.5976 22.2979L83.0817 29.2045L81.9149 27.1525C81.4648 26.3617 80.4622 26.0868 79.6758 26.5387C78.889 26.9906 78.6154 27.998 79.0651 28.789L81.7364 33.4872C82.0289 34.0018 82.5731 34.3183 83.1611 34.3183C83.1738 34.3183 83.1865 34.3183 83.1994 34.3178C83.8016 34.3037 84.3479 33.9591 84.6223 33.4201L89.5196 23.8001C89.9325 22.9893 89.613 21.9958 88.8061 21.5808Z" fill="#3B5974"/>
<path d="M93.4028 28.0543H109.092C109.999 28.0543 110.734 27.3158 110.734 26.4049C110.734 25.4941 109.999 24.7556 109.092 24.7556H93.4028C92.4963 24.7556 91.7617 25.4941 91.7617 26.4049C91.7617 27.3158 92.4965 28.0543 93.4028 28.0543Z" fill="#3B5974"/>
<path d="M125.318 32.2216C125.318 31.3107 124.583 30.5723 123.677 30.5723H93.4028C92.4963 30.5723 91.7617 31.3107 91.7617 32.2216C91.7617 33.1325 92.4963 33.8709 93.4028 33.8709H123.677C124.583 33.8709 125.318 33.1325 125.318 32.2216Z" fill="#3B5974"/>
<path d="M88.8061 37.6886C87.9995 37.274 87.0107 37.5945 86.5976 38.4057L83.0817 45.3122L81.9149 43.2603C81.4648 42.4695 80.4622 42.1946 79.6758 42.6465C78.889 43.0984 78.6154 44.1058 79.0651 44.8968L81.7364 49.595C82.0289 50.1096 82.5731 50.4261 83.1611 50.4261C83.1738 50.4261 83.1865 50.4261 83.1994 50.4256C83.8016 50.4118 84.3479 50.0669 84.6223 49.5279L89.5196 39.9079C89.9325 39.0971 89.613 38.1033 88.8061 37.6886Z" fill="#3B5974"/>
<path d="M93.4028 44.1619H109.092C109.999 44.1619 110.734 43.4235 110.734 42.5126C110.734 41.6017 109.999 40.8633 109.092 40.8633H93.4028C92.4963 40.8633 91.7617 41.6017 91.7617 42.5126C91.7617 43.4235 92.4965 44.1619 93.4028 44.1619Z" fill="#3B5974"/>
<path d="M124.812 48.3287C124.812 47.4178 124.077 46.6793 123.171 46.6793H93.4028C92.4963 46.6793 91.7617 47.4178 91.7617 48.3287C91.7617 49.2395 92.4963 49.978 93.4028 49.978H123.171C124.077 49.978 124.812 49.2395 124.812 48.3287Z" fill="#3B5974"/>
<path d="M88.8061 53.7961C87.9995 53.3813 87.0107 53.702 86.5976 54.5132L83.0817 61.4198L81.9149 59.3678C81.4648 58.577 80.4622 58.3021 79.6758 58.754C78.889 59.2059 78.6154 60.2133 79.0651 61.0043L81.7364 65.7025C82.0289 66.2171 82.5731 66.5336 83.1611 66.5336C83.1738 66.5336 83.1865 66.5336 83.1994 66.5331C83.8016 66.5191 84.3479 66.1745 84.6223 65.6355L89.5196 56.0154C89.9325 55.2049 89.613 54.2111 88.8061 53.7961Z" fill="#3B5974"/>
<path d="M93.4028 60.2699H109.092C109.999 60.2699 110.734 59.5314 110.734 58.6205C110.734 57.7097 109.999 56.9712 109.092 56.9712H93.4028C92.4963 56.9712 91.7617 57.7097 91.7617 58.6205C91.7617 59.5314 92.4965 60.2699 93.4028 60.2699Z" fill="#3B5974"/>
<path d="M93.4028 66.0873H111.366C112.273 66.0873 113.007 65.3488 113.007 64.4379C113.007 63.527 112.273 62.7886 111.366 62.7886H93.4028C92.4963 62.7886 91.7617 63.527 91.7617 64.4379C91.7617 65.3488 92.4965 66.0873 93.4028 66.0873Z" fill="#3B5974"/>
<path d="M37.0668 104.021C39.8884 104.259 42.7299 104.378 45.5717 104.378C48.4132 104.378 51.2549 104.259 54.0765 104.021C56.4078 103.825 58.2417 101.981 58.4373 99.6383C58.9106 93.9666 58.9106 88.2148 58.4373 82.5431C58.2417 80.2001 56.4078 78.357 54.0765 78.1607C48.4331 77.685 42.71 77.6848 37.0668 78.1607C34.7355 78.357 32.9014 80.2001 32.706 82.5431C32.2328 88.2141 32.2328 93.9659 32.706 99.6383C32.9017 101.981 34.7355 103.825 37.0668 104.021ZM35.9769 82.8188C36.0381 82.0859 36.6117 81.5093 37.341 81.4479C40.0718 81.2179 42.8216 81.1029 45.5717 81.1029C48.3215 81.1029 51.0716 81.2179 53.8024 81.4479C54.5317 81.5095 55.1054 82.0861 55.1665 82.8188C55.6244 88.3076 55.6244 93.874 55.1665 99.3627C55.1052 100.096 54.5315 100.672 53.8024 100.734C48.3408 101.194 42.8024 101.194 37.341 100.734C36.6117 100.672 36.0379 100.096 35.9769 99.363C35.5189 93.8733 35.5189 88.3071 35.9769 82.8188Z" fill="#3B5974"/>
<path d="M39.7217 89.4629H51.4232C52.3295 89.4629 53.0643 88.7244 53.0643 87.8135C53.0643 86.9026 52.3295 86.1642 51.4232 86.1642H39.7217C38.8153 86.1642 38.0806 86.9026 38.0806 87.8135C38.0806 88.7244 38.8153 89.4629 39.7217 89.4629Z" fill="#3B5974"/>
<path d="M39.7217 96.0174H51.4232C52.3295 96.0174 53.0643 95.279 53.0643 94.3681C53.0643 93.4572 52.3295 92.7188 51.4232 92.7188H39.7217C38.8153 92.7188 38.0806 93.4572 38.0806 94.3681C38.0806 95.279 38.8153 96.0174 39.7217 96.0174Z" fill="#3B5974"/>
</svg>
