<svg width="82" height="80" viewBox="0 0 82 80" fill="none" xmlns="http://www.w3.org/2000/svg">
<g clip-path="url(#clip0_3_7325)">
<path d="M11.3449 36.2812H20.9165C21.1078 36.2812 21.2972 36.2445 21.474 36.1731C21.6507 36.1017 21.8113 35.997 21.9465 35.865C22.0818 35.733 22.1891 35.5764 22.2623 35.404C22.3355 35.2315 22.3732 35.0467 22.3732 34.8601V31.7073C22.3732 31.4485 22.2678 31.2004 22.0803 31.0174C21.8928 30.8344 21.6384 30.7317 21.3732 30.7317C21.108 30.7317 20.8536 30.8344 20.6661 31.0174C20.4785 31.2004 20.3732 31.4485 20.3732 31.7073V34.3333H11.8882V26.065H16.1315C16.3967 26.065 16.6511 25.9622 16.8386 25.7792C17.0262 25.5963 17.1315 25.3481 17.1315 25.0894C17.1315 24.8306 17.0262 24.5825 16.8386 24.3995C16.6511 24.2166 16.3967 24.1138 16.1315 24.1138H11.3465C10.9612 24.1138 10.5915 24.2625 10.3183 24.5276C10.045 24.7927 9.89039 25.1525 9.88818 25.5284V34.8536C9.88862 35.2304 10.0422 35.5916 10.3153 35.858C10.5884 36.1245 10.9587 36.2743 11.3449 36.2747V36.2812Z" fill="url(#paint0_linear_3_7325)"/>
<path d="M23.1998 23.5659C23.0988 23.484 22.9822 23.4223 22.8568 23.3843C22.7313 23.3464 22.5995 23.3329 22.4687 23.3447C22.3379 23.3565 22.2108 23.3933 22.0946 23.453C21.9784 23.5127 21.8754 23.5942 21.7914 23.6927L17.0214 29.2846L15.4898 28.0765C15.2847 27.9195 15.0249 27.8469 14.7657 27.874C14.5066 27.9012 14.2685 28.026 14.1023 28.2219C13.9361 28.4178 13.8548 28.6692 13.8758 28.9227C13.8968 29.1762 14.0184 29.4116 14.2148 29.5789L14.2331 29.5935L16.0664 31.0456C16.3687 31.2883 16.7524 31.4133 17.1435 31.3965C17.5346 31.3797 17.9056 31.2222 18.1848 30.9545L18.2248 30.9171L23.3331 24.9415C23.4173 24.8429 23.4808 24.7291 23.5198 24.6065C23.5588 24.484 23.5727 24.3552 23.5607 24.2274C23.5486 24.0996 23.5108 23.9754 23.4494 23.8619C23.3881 23.7484 23.3044 23.6478 23.2031 23.5659H23.1998Z" fill="url(#paint1_linear_3_7325)"/>
<path d="M71.6832 24.7935H32.6665C32.4013 24.7935 32.1469 24.8963 31.9594 25.0793C31.7719 25.2622 31.6665 25.5104 31.6665 25.7691C31.6665 26.0279 31.7719 26.276 31.9594 26.459C32.1469 26.6419 32.4013 26.7447 32.6665 26.7447H71.6832C71.9484 26.7447 72.2027 26.6419 72.3903 26.459C72.5778 26.276 72.6832 26.0279 72.6832 25.7691C72.6832 25.5104 72.5778 25.2622 72.3903 25.0793C72.2027 24.8963 71.9484 24.7935 71.6832 24.7935Z" fill="url(#paint2_linear_3_7325)"/>
<path d="M71.6832 32.8765H32.6665C32.4013 32.8765 32.1469 32.9793 31.9594 33.1622C31.7719 33.3452 31.6665 33.5933 31.6665 33.8521C31.6665 34.1108 31.7719 34.359 31.9594 34.5419C32.1469 34.7249 32.4013 34.8277 32.6665 34.8277H71.6832C71.9484 34.8277 72.2027 34.7249 72.3903 34.5419C72.5778 34.359 72.6832 34.1108 72.6832 33.8521C72.6832 33.5933 72.5778 33.3452 72.3903 33.1622C72.2027 32.9793 71.9484 32.8765 71.6832 32.8765Z" fill="url(#paint3_linear_3_7325)"/>
<path d="M21.3732 51.4049C21.108 51.4049 20.8536 51.5077 20.6661 51.6906C20.4785 51.8736 20.3732 52.1217 20.3732 52.3805V55.0081H11.8882V46.7431H16.1315C16.3967 46.7431 16.6511 46.6403 16.8386 46.4573C17.0262 46.2744 17.1315 46.0262 17.1315 45.7675C17.1315 45.5087 17.0262 45.2606 16.8386 45.0776C16.6511 44.8947 16.3967 44.7919 16.1315 44.7919H11.3465C10.96 44.7919 10.5894 44.9415 10.3159 45.208C10.0425 45.4745 9.88863 45.8359 9.88818 46.213V55.5382C9.88906 55.9149 10.0428 56.2758 10.3158 56.5422C10.5888 56.8085 10.9588 56.9585 11.3449 56.9593H20.9165C21.3027 56.9589 21.673 56.8091 21.946 56.5426C22.2191 56.2762 22.3727 55.915 22.3732 55.5382V52.3805C22.3732 52.1217 22.2678 51.8736 22.0803 51.6906C21.8928 51.5077 21.6384 51.4049 21.3732 51.4049Z" fill="url(#paint4_linear_3_7325)"/>
<path d="M23.2001 44.2439C22.9963 44.0783 22.7335 43.9985 22.4694 44.022C22.2052 44.0455 21.9615 44.1703 21.7918 44.3691L17.0218 49.961L15.5001 48.7545C15.3989 48.6728 15.2821 48.6114 15.1566 48.5737C15.031 48.5361 14.8991 48.5229 14.7683 48.535C14.6375 48.547 14.5105 48.5841 14.3944 48.6441C14.2783 48.7041 14.1755 48.7858 14.0918 48.8846C14.008 48.9833 13.9451 49.0972 13.9065 49.2197C13.8679 49.3422 13.8544 49.4709 13.8668 49.5985C13.8791 49.7261 13.9172 49.85 13.9786 49.9633C14.0401 50.0765 14.1239 50.1769 14.2251 50.2585L14.2418 50.2716L16.0751 51.7236C16.3774 51.9663 16.761 52.0913 17.1522 52.0745C17.5433 52.0577 17.9142 51.9003 18.1934 51.6325L18.2334 51.5935L23.3334 45.6179C23.5032 45.4191 23.585 45.1627 23.5609 44.905C23.5369 44.6473 23.4089 44.4095 23.2051 44.2439H23.2001Z" fill="url(#paint5_linear_3_7325)"/>
<path d="M71.6831 45.4715H63.5581C63.2929 45.4715 63.0385 45.5743 62.851 45.7572C62.6635 45.9402 62.5581 46.1884 62.5581 46.4471C62.5581 46.7059 62.6635 46.954 62.851 47.137C63.0385 47.3199 63.2929 47.4227 63.5581 47.4227H71.6831C71.9483 47.4227 72.2027 47.3199 72.3902 47.137C72.5777 46.954 72.6831 46.7059 72.6831 46.4471C72.6831 46.1884 72.5777 45.9402 72.3902 45.7572C72.2027 45.5743 71.9483 45.4715 71.6831 45.4715Z" fill="url(#paint6_linear_3_7325)"/>
<path d="M45.3332 45.4715H32.6665C32.4013 45.4715 32.1469 45.5743 31.9594 45.7572C31.7719 45.9402 31.6665 46.1884 31.6665 46.4471C31.6665 46.7059 31.7719 46.954 31.9594 47.137C32.1469 47.3199 32.4013 47.4227 32.6665 47.4227H45.3332C45.5984 47.4227 45.8527 47.3199 46.0403 47.137C46.2278 46.954 46.3332 46.7059 46.3332 46.4471C46.3332 46.1884 46.2278 45.9402 46.0403 45.7572C45.8527 45.5743 45.5984 45.4715 45.3332 45.4715Z" fill="url(#paint7_linear_3_7325)"/>
<path d="M36.0782 53.5544H32.6665C32.4013 53.5544 32.1469 53.6572 31.9594 53.8402C31.7719 54.0232 31.6665 54.2713 31.6665 54.5301C31.6665 54.7888 31.7719 55.037 31.9594 55.2199C32.1469 55.4029 32.4013 55.5057 32.6665 55.5057H36.0815C36.3467 55.5057 36.6011 55.4029 36.7886 55.2199C36.9761 55.037 37.0815 54.7888 37.0815 54.5301C37.0815 54.2713 36.9761 54.0232 36.7886 53.8402C36.6011 53.6572 36.3467 53.5544 36.0815 53.5544H36.0782Z" fill="url(#paint8_linear_3_7325)"/>
<path d="M76.7267 0H4.60667C3.3856 0.00129036 2.21489 0.474988 1.35131 1.3172C0.487728 2.15942 0.00176447 3.3014 0 4.49268V62.8016C0.000879514 63.9918 0.485416 65.133 1.34739 65.9752C2.20936 66.8174 3.37844 67.2917 4.59833 67.2943L42.7383 67.5577L44.6667 74.9594L44.6783 75C45.1148 76.4486 46.022 77.7195 47.2632 78.6213C48.5044 79.5231 50.0124 80.007 51.56 80H65.5C67.404 79.9974 69.2292 79.2581 70.5753 77.9443C71.9213 76.6305 72.6782 74.8495 72.68 72.9919V67.5122L76.7533 67.2959C77.9701 67.2878 79.1342 66.8108 79.9921 65.969C80.8499 65.1272 81.332 63.9887 81.3333 62.8016V4.49268C81.3316 3.3014 80.8456 2.15942 79.982 1.3172C79.1184 0.474988 77.9477 0.00129036 76.7267 0ZM4.60667 1.95122H76.7267C77.4176 1.95165 78.0801 2.2195 78.5688 2.69597C79.0575 3.17245 79.3325 3.81863 79.3333 4.49268V14.3707H2V4.49268C2.00088 3.81863 2.27585 3.17245 2.76455 2.69597C3.25325 2.2195 3.91576 1.95165 4.60667 1.95122ZM70.6833 72.9919C70.682 74.3326 70.1355 75.6181 69.1637 76.5662C68.1919 77.5143 66.8743 78.0475 65.5 78.0488H51.56C50.4487 78.0543 49.3655 77.7089 48.4721 77.0641C47.5787 76.4193 46.9231 75.5098 46.6033 74.4715L44.4867 66.3415C43.9885 64.4327 43.3239 62.569 42.5 60.7707L42.3333 60.3919C43.3989 60.3919 44.4486 60.6444 45.3921 61.1276C46.3356 61.6108 47.1447 62.3102 47.75 63.1659L49.47 65.5968V69.2195C49.47 69.4783 49.5754 69.7264 49.7629 69.9094C49.9504 70.0923 50.2048 70.1951 50.47 70.1951C50.7352 70.1951 50.9896 70.0923 51.1771 69.9094C51.3646 69.7264 51.47 69.4783 51.47 69.2195V42.7041C51.4625 42.4585 51.5056 42.214 51.5968 41.985C51.6879 41.7559 51.8252 41.5471 52.0006 41.3708C52.176 41.1945 52.3859 41.0544 52.6178 40.9587C52.8498 40.863 53.099 40.8137 53.3508 40.8137C53.6027 40.8137 53.8519 40.863 54.0838 40.9587C54.3158 41.0544 54.5256 41.1945 54.701 41.3708C54.8764 41.5471 55.0138 41.7559 55.1049 41.985C55.1961 42.214 55.2392 42.4585 55.2317 42.7041V60.0228C55.2319 60.1181 55.2465 60.2129 55.275 60.3041V64.2813C55.275 64.54 55.3804 64.7882 55.5679 64.9712C55.7554 65.1541 56.0098 65.2569 56.275 65.2569C56.5402 65.2569 56.7946 65.1541 56.9821 64.9712C57.1696 64.7882 57.275 64.54 57.275 64.2813V58.8309C57.314 58.4715 57.488 58.1388 57.7634 57.897C58.0388 57.6553 58.3962 57.5215 58.7667 57.5215C59.1372 57.5215 59.4945 57.6553 59.77 57.897C60.0454 58.1388 60.2193 58.4715 60.2583 58.8309V59.9366C60.2317 60.1072 60.2183 60.2795 60.2183 60.452V64.2813C60.2183 64.54 60.3237 64.7882 60.5112 64.9712C60.6988 65.1541 60.9531 65.2569 61.2183 65.2569H61.2583C61.5235 65.2569 61.7779 65.1541 61.9654 64.9712C62.153 64.7882 62.2583 64.54 62.2583 64.2813V60.1122C62.3485 59.7406 62.5748 59.4139 62.8946 59.1937C63.2144 58.9734 63.6057 58.8748 63.9948 58.9164C64.384 58.9579 64.7441 59.1368 65.0075 59.4193C65.2709 59.7018 65.4194 60.0685 65.425 60.4504V65.2927C65.425 65.5514 65.5304 65.7996 65.7179 65.9825C65.9054 66.1655 66.1598 66.2683 66.425 66.2683C66.6902 66.2683 66.9446 66.1655 67.1321 65.9825C67.3196 65.7996 67.425 65.5514 67.425 65.2927V61.9805C67.4206 61.5596 67.5877 61.1542 67.8897 60.8536C68.1916 60.5529 68.6036 60.3816 69.035 60.3772C69.4664 60.3729 69.8819 60.536 70.1901 60.8306C70.4983 61.1251 70.6739 61.5271 70.6783 61.948V72.9919H70.6833ZM76.7283 65.3496H76.6667L72.6767 65.561V61.9837C72.6776 61.3491 72.5033 60.7259 72.1722 60.1796C71.8411 59.6334 71.3653 59.1841 70.7949 58.8791C70.2245 58.574 69.5804 58.4244 68.9302 58.446C68.2801 58.4676 67.6479 58.6595 67.1 59.0016C66.7062 58.1529 65.983 57.4914 65.0895 57.1627C64.1959 56.834 63.2052 56.865 62.335 57.2488C62.2013 57.3073 62.0716 57.3741 61.9467 57.4488C61.574 56.626 60.8816 55.9813 60.0218 55.6565C59.1619 55.3318 58.2051 55.3536 57.3617 55.7171L57.225 55.7789V42.7041C57.2357 42.2003 57.1432 41.6994 56.953 41.2309C56.7628 40.7624 56.4786 40.3357 56.1172 39.9757C55.7558 39.6157 55.3243 39.3297 54.8482 39.1344C54.372 38.9392 53.8607 38.8386 53.3442 38.8386C52.8277 38.8386 52.3163 38.9392 51.8402 39.1344C51.364 39.3297 50.9326 39.6157 50.5711 39.9757C50.2097 40.3357 49.9255 40.7624 49.7353 41.2309C49.5451 41.6994 49.4526 42.2003 49.4633 42.7041V62.161L49.39 62.0569C48.6013 60.9422 47.5472 60.0308 46.3181 59.401C45.089 58.7711 43.7217 58.4416 42.3333 58.4407C41.9969 58.4382 41.6652 58.5185 41.369 58.6743C41.0728 58.8301 40.8217 59.0562 40.639 59.3318C40.4562 59.6074 40.3476 59.9236 40.3233 60.251C40.299 60.5784 40.3598 60.9065 40.5 61.2049L40.6667 61.5724C41.2669 62.884 41.778 64.2327 42.1967 65.6098L4.60167 65.3496C3.91047 65.3479 3.24824 65.0786 2.76043 64.6008C2.27261 64.1231 1.99911 63.476 2 62.8016V16.322H79.3333V62.8016C79.3325 63.4758 79.0575 64.1222 78.5689 64.5989C78.0802 65.0756 77.4177 65.3439 76.7267 65.3447L76.7283 65.3496Z" fill="url(#paint9_linear_3_7325)"/>
<path d="M8.36654 11.7773C9.1247 11.7773 9.86584 11.5579 10.4962 11.147C11.1266 10.7361 11.6179 10.152 11.9081 9.46862C12.1982 8.78525 12.2741 8.0333 12.1262 7.30784C11.9783 6.58238 11.6132 5.91601 11.0771 5.39298C10.541 4.86996 9.85798 4.51377 9.11439 4.36947C8.37079 4.22517 7.60003 4.29923 6.89958 4.58229C6.19913 4.86535 5.60045 5.34469 5.17924 5.9597C4.75802 6.57472 4.5332 7.29778 4.5332 8.03744C4.5332 9.02931 4.93707 9.98055 5.65596 10.6819C6.37485 11.3833 7.34987 11.7773 8.36654 11.7773ZM8.36654 6.24883C8.72914 6.24883 9.08359 6.35373 9.38508 6.55026C9.68657 6.7468 9.92156 7.02614 10.0603 7.35297C10.1991 7.6798 10.2354 8.03943 10.1646 8.38639C10.0939 8.73334 9.9193 9.05205 9.6629 9.30219C9.4065 9.55233 9.07984 9.72268 8.7242 9.79169C8.36857 9.86071 7.99995 9.82529 7.66495 9.68991C7.32995 9.55453 7.04363 9.32528 6.84218 9.03115C6.64073 8.73701 6.5332 8.3912 6.5332 8.03744C6.53365 7.56336 6.72699 7.10883 7.07076 6.77375C7.41453 6.43867 7.8806 6.25045 8.36654 6.25045V6.24883Z" fill="url(#paint10_linear_3_7325)"/>
<path d="M18.4715 11.7773C19.2297 11.7773 19.9708 11.5579 20.6012 11.147C21.2316 10.7361 21.7229 10.152 22.013 9.46862C22.3032 8.78525 22.3791 8.0333 22.2312 7.30784C22.0833 6.58238 21.7182 5.91601 21.1821 5.39298C20.646 4.86996 19.963 4.51377 19.2194 4.36947C18.4758 4.22517 17.705 4.29923 17.0046 4.58229C16.3041 4.86535 15.7054 5.34469 15.2842 5.9597C14.863 6.57472 14.6382 7.29778 14.6382 8.03744C14.6382 9.02931 15.0421 9.98055 15.7609 10.6819C16.4798 11.3833 17.4549 11.7773 18.4715 11.7773ZM18.4715 6.24883C18.8341 6.24883 19.1886 6.35373 19.4901 6.55026C19.7915 6.7468 20.0265 7.02614 20.1653 7.35297C20.3041 7.6798 20.3404 8.03943 20.2696 8.38639C20.1989 8.73334 20.0243 9.05205 19.7679 9.30219C19.5115 9.55233 19.1848 9.72268 18.8292 9.79169C18.4735 9.86071 18.1049 9.82529 17.7699 9.68991C17.4349 9.55453 17.1486 9.32528 16.9472 9.03115C16.7457 8.73701 16.6382 8.3912 16.6382 8.03744C16.6386 7.56336 16.832 7.10883 17.1757 6.77375C17.5195 6.43867 17.9856 6.25045 18.4715 6.25045V6.24883Z" fill="url(#paint11_linear_3_7325)"/>
<path d="M28.578 11.7773C29.3361 11.7773 30.0773 11.5579 30.7076 11.147C31.338 10.7361 31.8294 10.152 32.1195 9.46862C32.4096 8.78525 32.4855 8.0333 32.3376 7.30784C32.1897 6.58238 31.8246 5.91601 31.2885 5.39298C30.7524 4.86996 30.0694 4.51377 29.3258 4.36947C28.5822 4.22517 27.8115 4.29923 27.111 4.58229C26.4106 4.86535 25.8119 5.34469 25.3907 5.9597C24.9694 6.57472 24.7446 7.29778 24.7446 8.03744C24.7446 9.02931 25.1485 9.98055 25.8674 10.6819C26.5863 11.3833 27.5613 11.7773 28.578 11.7773ZM28.578 6.24883C28.9406 6.24883 29.295 6.35373 29.5965 6.55026C29.898 6.7468 30.133 7.02614 30.2717 7.35297C30.4105 7.6798 30.4468 8.03943 30.3761 8.38639C30.3053 8.73334 30.1307 9.05205 29.8743 9.30219C29.6179 9.55233 29.2913 9.72268 28.9356 9.79169C28.58 9.86071 28.2114 9.82529 27.8764 9.68991C27.5414 9.55453 27.255 9.32528 27.0536 9.03115C26.8522 8.73701 26.7446 8.3912 26.7446 8.03744C26.7451 7.56336 26.9384 7.10883 27.2822 6.77375C27.626 6.43867 28.092 6.25045 28.578 6.25045V6.24883Z" fill="url(#paint12_linear_3_7325)"/>
<path d="M43.5 8.82921H75.9883C76.2536 8.82921 76.5079 8.72642 76.6954 8.54346C76.883 8.3605 76.9883 8.11235 76.9883 7.8536C76.9883 7.59485 76.883 7.3467 76.6954 7.16374C76.5079 6.98078 76.2536 6.87799 75.9883 6.87799H43.5C43.2348 6.87799 42.9804 6.98078 42.7929 7.16374C42.6054 7.3467 42.5 7.59485 42.5 7.8536C42.5 8.11235 42.6054 8.3605 42.7929 8.54346C42.9804 8.72642 43.2348 8.82921 43.5 8.82921Z" fill="url(#paint13_linear_3_7325)"/>
</g>
<defs>
<linearGradient id="paint0_linear_3_7325" x1="9.88818" y1="11.7819" x2="27.9076" y2="14.9632" gradientUnits="userSpaceOnUse">
<stop stop-color="#009DF5"/>
<stop offset="1" stop-color="#3CC4FF"/>
</linearGradient>
<linearGradient id="paint1_linear_3_7325" x1="13.8726" y1="15.1743" x2="27.7048" y2="18.0371" gradientUnits="userSpaceOnUse">
<stop stop-color="#009DF5"/>
<stop offset="1" stop-color="#3CC4FF"/>
</linearGradient>
<linearGradient id="paint2_linear_3_7325" x1="31.6665" y1="22.8159" x2="36.0015" y2="38.495" gradientUnits="userSpaceOnUse">
<stop stop-color="#009DF5"/>
<stop offset="1" stop-color="#3CC4FF"/>
</linearGradient>
<linearGradient id="paint3_linear_3_7325" x1="31.6665" y1="30.8989" x2="36.0016" y2="46.578" gradientUnits="userSpaceOnUse">
<stop stop-color="#009DF5"/>
<stop offset="1" stop-color="#3CC4FF"/>
</linearGradient>
<linearGradient id="paint4_linear_3_7325" x1="9.88818" y1="32.46" x2="27.9076" y2="35.6413" gradientUnits="userSpaceOnUse">
<stop stop-color="#009DF5"/>
<stop offset="1" stop-color="#3CC4FF"/>
</linearGradient>
<linearGradient id="paint5_linear_3_7325" x1="13.8623" y1="35.851" x2="27.7084" y2="38.7195" gradientUnits="userSpaceOnUse">
<stop stop-color="#009DF5"/>
<stop offset="1" stop-color="#3CC4FF"/>
</linearGradient>
<linearGradient id="paint6_linear_3_7325" x1="62.5581" y1="43.4939" x2="70.943" y2="50.9801" gradientUnits="userSpaceOnUse">
<stop stop-color="#009DF5"/>
<stop offset="1" stop-color="#3CC4FF"/>
</linearGradient>
<linearGradient id="paint7_linear_3_7325" x1="31.6665" y1="43.4939" x2="39.8337" y2="54.0566" gradientUnits="userSpaceOnUse">
<stop stop-color="#009DF5"/>
<stop offset="1" stop-color="#3CC4FF"/>
</linearGradient>
<linearGradient id="paint8_linear_3_7325" x1="31.6665" y1="51.5769" x2="38.2292" y2="54.7105" gradientUnits="userSpaceOnUse">
<stop stop-color="#009DF5"/>
<stop offset="1" stop-color="#3CC4FF"/>
</linearGradient>
<linearGradient id="paint9_linear_3_7325" x1="-8.2654e-07" y1="-81.0812" x2="117.452" y2="-60.5358" gradientUnits="userSpaceOnUse">
<stop stop-color="#009DF5"/>
<stop offset="1" stop-color="#3CC4FF"/>
</linearGradient>
<linearGradient id="paint10_linear_3_7325" x1="4.5332" y1="-3.28314" x2="15.5991" y2="-1.33156" gradientUnits="userSpaceOnUse">
<stop stop-color="#009DF5"/>
<stop offset="1" stop-color="#3CC4FF"/>
</linearGradient>
<linearGradient id="paint11_linear_3_7325" x1="14.6382" y1="-3.28314" x2="25.7041" y2="-1.33156" gradientUnits="userSpaceOnUse">
<stop stop-color="#009DF5"/>
<stop offset="1" stop-color="#3CC4FF"/>
</linearGradient>
<linearGradient id="paint12_linear_3_7325" x1="24.7446" y1="-3.28314" x2="35.8105" y2="-1.33156" gradientUnits="userSpaceOnUse">
<stop stop-color="#009DF5"/>
<stop offset="1" stop-color="#3CC4FF"/>
</linearGradient>
<linearGradient id="paint13_linear_3_7325" x1="42.5" y1="4.9004" x2="47.5082" y2="20.1313" gradientUnits="userSpaceOnUse">
<stop stop-color="#009DF5"/>
<stop offset="1" stop-color="#3CC4FF"/>
</linearGradient>
<clipPath id="clip0_3_7325">
<rect width="81.3333" height="80" fill="white"/>
</clipPath>
</defs>
</svg>
