<svg width="82" height="80" viewBox="0 0 82 80" fill="none" xmlns="http://www.w3.org/2000/svg">
<g clip-path="url(#clip0_3_7348)">
<path d="M15.2616 54.821C13.0642 54.8207 10.916 55.4427 9.08873 56.6084C7.26148 57.7741 5.83723 59.4311 4.99608 61.3698C4.15494 63.3085 3.93469 65.4419 4.36318 67.5002C4.79167 69.5585 5.84967 71.4492 7.40336 72.9332C8.95706 74.4173 10.9367 75.428 13.0918 75.8375C15.247 76.247 17.4809 76.037 19.5111 75.234C21.5413 74.431 23.2766 73.071 24.4974 71.3261C25.7183 69.5813 26.3699 67.5298 26.3699 65.4313C26.3668 62.6184 25.1955 59.9216 23.113 57.9325C21.0305 55.9434 18.2069 54.8244 15.2616 54.821ZM15.2616 74.1314C13.4597 74.1318 11.6982 73.6218 10.1999 72.666C8.70152 71.7102 7.53361 70.3515 6.84384 68.7618C6.15407 67.1721 5.97343 65.4227 6.32475 63.7349C6.67607 62.0471 7.54358 60.4968 8.81757 59.2799C10.0916 58.063 11.7148 57.2342 13.482 56.8984C15.2492 56.5625 17.081 56.7347 18.7458 57.3932C20.4105 58.0516 21.8334 59.1668 22.8345 60.5975C23.8356 62.0283 24.3699 63.7105 24.3699 65.4313C24.3673 67.7376 23.4068 69.9489 21.6993 71.5799C19.9918 73.2109 17.6766 74.1285 15.2616 74.1314Z" fill="url(#paint0_linear_3_7348)"/>
<path d="M15.2616 61.9852C15.6005 61.9856 15.9254 62.1144 16.1651 62.3432C16.4047 62.5721 16.5395 62.8824 16.54 63.206C16.54 63.4593 16.6453 63.7022 16.8328 63.8813C17.0204 64.0604 17.2747 64.1611 17.54 64.1611C17.6693 64.1606 17.7973 64.1359 17.9166 64.0882C18.036 64.0406 18.1443 63.9709 18.2355 63.8833C18.3266 63.7956 18.3988 63.6917 18.4479 63.5774C18.497 63.4631 18.5221 63.3407 18.5216 63.2172V63.206C18.5193 62.5408 18.2955 61.8934 17.8827 61.3575C17.4698 60.8216 16.8893 60.425 16.225 60.2248V59.8348C16.225 59.5816 16.1196 59.3386 15.9321 59.1595C15.7445 58.9804 15.4902 58.8798 15.225 58.8798C14.9597 58.8798 14.7054 58.9804 14.5178 59.1595C14.3303 59.3386 14.225 59.5816 14.225 59.8348V60.2248C13.5645 60.4265 12.9889 60.8246 12.5823 61.361C12.1757 61.8974 11.9594 62.5439 11.965 63.206C11.968 64.0369 12.3156 64.8327 12.9315 65.4194C13.5474 66.0062 14.3817 66.3361 15.2516 66.3369C15.5828 66.3451 15.8978 66.4757 16.1301 66.7013C16.3624 66.9269 16.4939 67.2298 16.4969 67.5462C16.4999 67.8626 16.3742 68.1677 16.1463 68.3973C15.9183 68.6269 15.6059 68.763 15.275 68.777H15.245C14.9088 68.7728 14.5879 68.6423 14.3518 68.4138C14.1156 68.1853 13.9833 67.8772 13.9833 67.5561C13.9833 67.3028 13.8779 67.0599 13.6904 66.8808C13.5029 66.7017 13.2485 66.6011 12.9833 66.6011C12.7162 66.6007 12.4597 66.7006 12.2691 66.8793C12.0786 67.058 11.9693 67.3011 11.965 67.5561C11.9593 68.2185 12.1756 68.8653 12.5822 69.4019C12.9888 69.9386 13.5644 70.337 14.225 70.539V71.0276C14.225 71.2809 14.3303 71.5238 14.5178 71.7029C14.7054 71.882 14.9597 71.9826 15.225 71.9826C15.4902 71.9826 15.7445 71.882 15.9321 71.7029C16.1196 71.5238 16.225 71.2809 16.225 71.0276V70.539C16.9713 70.3155 17.6092 69.8443 18.0234 69.2107C18.4375 68.577 18.6005 67.8227 18.4829 67.0843C18.3653 66.3458 17.9749 65.6719 17.3822 65.1845C16.7895 64.6971 16.0338 64.4283 15.2516 64.4269C14.9204 64.4143 14.6071 64.2794 14.3779 64.0507C14.1486 63.822 14.0212 63.5172 14.0225 63.2006C14.0238 62.884 14.1537 62.5802 14.3848 62.3532C14.6159 62.1262 14.9303 61.9937 15.2616 61.9836V61.9852Z" fill="url(#paint1_linear_3_7348)"/>
<path d="M75.7255 44.432V36.8555C75.7251 35.3618 75.1064 33.9288 74.0044 32.8689C72.9023 31.8089 71.4062 31.208 69.8421 31.1971H68.0588V16.6665C68.0557 16.5175 68.0166 16.3712 67.9446 16.239C67.8726 16.1068 67.7697 15.9922 67.6438 15.9041C67.5263 15.8148 67.3881 15.7538 67.2408 15.7261C67.0934 15.6984 66.9413 15.7048 66.7971 15.7449L61.3921 17.2188V4.24337C61.375 3.10283 60.8847 2.01539 60.0288 1.2198C59.1729 0.424197 58.0214 -0.0145356 56.8271 -8.10831e-05L32.0271 0.342133C31.0195 0.36075 30.0481 0.705013 29.2717 1.31873C28.4953 1.93245 27.9596 2.77938 27.7521 3.72129C26.7559 3.92431 25.8625 4.44716 25.2208 5.20277C24.5791 5.95838 24.2278 6.90114 24.2255 7.87402V27.2927L10.5138 31.2369L10.4871 31.2767C10.2742 31.3317 10.0854 31.4504 9.94833 31.6154C9.81125 31.7804 9.73315 31.983 9.72548 32.1935V51.8604C7.5948 52.6518 5.67773 53.8907 4.11612 55.4852C2.55451 57.0798 1.38832 58.9893 0.703855 61.0725C0.0193882 63.1557 -0.16584 65.3591 0.161875 67.5199C0.48959 69.6807 1.32186 71.7434 2.5971 73.5555C3.87235 75.3676 5.55792 76.8826 7.52911 77.9885C9.50029 79.0944 11.7066 79.7628 13.9849 79.9444C16.2631 80.1259 18.5549 79.8159 20.6908 79.0373C22.8266 78.2586 24.7518 77.0313 26.3238 75.4461H69.8421C73.0838 75.4461 75.7255 72.8676 75.7255 69.7717V62.1953C77.1815 62.0611 78.5334 61.4152 79.5189 60.3829C80.5044 59.3505 81.0532 58.0054 81.0588 56.6084V50.0188C81.0532 48.6219 80.5044 47.2767 79.5189 46.2444C78.5334 45.2121 77.1815 44.5661 75.7255 44.432ZM61.3921 19.2037L66.0588 17.9303V31.1971H61.3921V19.2037ZM29.5588 4.58558C29.5708 3.96991 29.8326 3.38272 30.289 2.94774C30.7454 2.51276 31.3608 2.26396 32.0055 2.25375L56.8155 1.90995C57.4847 1.89878 58.1315 2.14014 58.6155 2.58164C58.8536 2.79582 59.0448 3.05297 59.1781 3.33821C59.3114 3.62345 59.3842 3.9311 59.3921 4.24337V31.1971H57.8921V7.87243C57.8841 7.62217 57.7755 7.38449 57.5888 7.20869L53.9622 3.64012C53.8672 3.54719 53.754 3.47306 53.629 3.42199C53.5041 3.37091 53.3697 3.34389 53.2338 3.34247H35.6038C35.4703 3.34444 35.3385 3.37193 35.2163 3.42332C35.094 3.47472 34.9838 3.54897 34.8921 3.64171L31.3705 7.09568C31.1823 7.27259 31.073 7.51212 31.0655 7.76419V31.1971H29.5655L29.5588 4.58558ZM44.4771 16.4087C41.5187 16.4087 38.6812 17.5298 36.5876 19.526C34.494 21.5222 33.3153 24.2302 33.3105 27.0555C33.3062 28.4782 33.6075 29.8867 34.1955 31.1939H33.0588V8.15097L36.0271 5.2525H52.8105L55.8921 8.2608V31.1971H54.7605C55.3485 29.8899 55.6497 28.4814 55.6455 27.0587C55.6406 24.2334 54.462 21.5253 52.3684 19.5292C50.2747 17.533 47.4372 16.4118 44.4788 16.4118L44.4771 16.4087ZM53.6438 27.0491C53.6461 28.4979 53.2679 29.924 52.5438 31.1971H36.4088C35.7536 30.0255 35.3864 28.7268 35.3351 27.3995C35.2838 26.0722 35.5496 24.7511 36.1126 23.5366C36.6755 22.322 37.5207 21.2459 38.584 20.3897C39.6473 19.5336 40.9008 18.92 42.2494 18.5954C43.598 18.2709 45.0063 18.2439 46.3675 18.5166C47.7286 18.7893 49.0069 19.3545 50.1052 20.1693C51.2036 20.984 52.0932 22.027 52.7066 23.2191C53.32 24.4111 53.6411 25.7209 53.6455 27.0491H53.6438ZM26.2255 7.87402C26.2255 6.93333 26.7255 6.12316 27.5588 5.74911V31.1971H26.2255V7.87402ZM24.2255 29.287V31.1971H17.4221L24.2255 29.287ZM25.2955 73.6554L24.9371 73.3164C24.7493 73.1372 24.4946 73.0366 24.2291 73.0368C23.9635 73.0369 23.709 73.1378 23.5213 73.3172C23.3337 73.4966 23.2283 73.7399 23.2285 73.9934C23.2287 74.247 23.3343 74.4902 23.5221 74.6693L23.8638 75.0116C21.7319 76.7893 19.0491 77.8515 16.2255 78.0358V77.5471C16.2255 77.2938 16.1201 77.0509 15.9326 76.8718C15.745 76.6927 15.4907 76.5921 15.2255 76.5921C14.9603 76.5921 14.7059 76.6927 14.5184 76.8718C14.3308 77.0509 14.2255 77.2938 14.2255 77.5471V78.0358C11.4204 77.8212 8.75882 76.7624 6.62381 75.0116L6.99048 74.6693C7.15477 74.487 7.24096 74.2522 7.23184 74.0118C7.22272 73.7714 7.11895 73.5432 6.94127 73.3727C6.7636 73.2022 6.5251 73.1021 6.27344 73.0922C6.02178 73.0824 5.7755 73.1636 5.58381 73.3196L5.22548 73.657C3.39258 71.6085 2.28428 69.0593 2.05881 66.3735H2.57214C2.83736 66.3735 3.09171 66.2728 3.27925 66.0937C3.46679 65.9146 3.57214 65.6717 3.57214 65.4184C3.57214 65.1652 3.46679 64.9222 3.27925 64.7431C3.09171 64.564 2.83736 64.4634 2.57214 64.4634H2.05881C2.28489 61.7815 3.3933 59.2365 5.22548 57.1926L5.58548 57.538C5.67839 57.6267 5.78869 57.6971 5.91008 57.7451C6.03147 57.7931 6.16158 57.8178 6.29298 57.8178C6.42437 57.8178 6.55448 57.7931 6.67587 57.7451C6.79727 57.6971 6.90757 57.6267 7.00048 57.538C7.09339 57.4492 7.16709 57.3439 7.21737 57.228C7.26765 57.112 7.29353 56.9878 7.29353 56.8623C7.29353 56.7368 7.26765 56.6126 7.21737 56.4966C7.16709 56.3807 7.09339 56.2754 7.00048 56.1866L6.62381 55.8444C8.75882 54.0936 11.4204 53.0348 14.2255 52.8202V53.3216C14.2255 53.5749 14.3308 53.8178 14.5184 53.9969C14.7059 54.176 14.9603 54.2766 15.2255 54.2766C15.4907 54.2766 15.745 54.176 15.9326 53.9969C16.1201 53.8178 16.2255 53.5749 16.2255 53.3216V52.8329C19.0487 53.0169 21.7311 54.0791 23.8621 55.8571L23.5121 56.1994C23.3247 56.3796 23.22 56.6236 23.2209 56.8776C23.2218 57.1316 23.3284 57.3749 23.5171 57.5539C23.7059 57.7329 23.9614 57.8329 24.2273 57.832C24.4933 57.8311 24.7481 57.7294 24.9355 57.5491L25.2938 57.2005C27.1265 59.2442 28.235 61.7893 28.4605 64.4714H27.9471C27.6819 64.4714 27.4276 64.572 27.24 64.7511C27.0525 64.9302 26.9471 65.1731 26.9471 65.4264C26.9471 65.6797 27.0525 65.9226 27.24 66.1017C27.4276 66.2808 27.6819 66.3814 27.9471 66.3814H28.4605C28.2357 69.0675 27.1273 71.6168 25.2938 73.665L25.2955 73.6554ZM73.7255 69.7717C73.7255 71.8139 71.9821 73.5361 69.8421 73.5361H27.9255C29.6323 71.1034 30.5316 68.2359 30.5059 65.3078C30.4802 62.3796 29.5308 59.5269 27.7815 57.1219C26.0323 54.7169 23.5644 52.8714 20.7002 51.8264C17.8359 50.7813 14.7083 50.5851 11.7255 51.2635V33.1071H69.8421C70.8757 33.1172 71.8634 33.5164 72.5905 34.2179C73.3177 34.9195 73.7255 35.8668 73.7255 36.8539V44.4081H64.6405C63.0784 44.4072 61.5794 44.9969 60.4711 46.0482C59.3627 47.0995 58.7352 48.527 58.7255 50.0188V56.6068C58.7343 58.1005 59.361 59.5303 60.469 60.5846C61.577 61.6389 63.0764 62.2321 64.6405 62.2351H73.7255V69.7717ZM79.0588 56.6196C79.0588 57.6023 78.65 58.5448 77.9224 59.2397C77.1947 59.9346 76.2079 60.325 75.1788 60.325H64.6055C63.5764 60.325 62.5895 59.9346 61.8619 59.2397C61.1343 58.5448 60.7255 57.6023 60.7255 56.6196V50.0236C60.7255 49.0409 61.1343 48.0984 61.8619 47.4034C62.5895 46.7085 63.5764 46.3181 64.6055 46.3181H75.1788C76.2079 46.3181 77.1947 46.7085 77.9224 47.4034C78.65 48.0984 79.0588 49.0409 79.0588 50.0236V56.6196Z" fill="url(#paint2_linear_3_7348)"/>
<path d="M68.1167 49.9791H67.1734C65.2767 49.9791 63.7334 51.5103 63.7334 53.3217C63.7334 55.133 65.2767 56.6642 67.1734 56.6642H68.1167C70.0134 56.6642 71.5551 55.133 71.5551 53.3217C71.5551 51.5103 70.0134 49.9791 68.1167 49.9791ZM68.1167 54.7542H67.1734C66.7756 54.7542 66.394 54.6033 66.1127 54.3346C65.8314 54.066 65.6734 53.7016 65.6734 53.3217C65.6734 52.9417 65.8314 52.5774 66.1127 52.3087C66.394 52.0401 66.7756 51.8892 67.1734 51.8892H68.1167C68.5146 51.8892 68.8961 52.0401 69.1774 52.3087C69.4587 52.5774 69.6167 52.9417 69.6167 53.3217C69.6167 53.7016 69.4587 54.066 69.1774 54.3346C68.8961 54.6033 68.5146 54.7542 68.1167 54.7542Z" fill="url(#paint3_linear_3_7348)"/>
<path d="M50.2433 26.1037H49.8516C49.6449 25.4796 49.2336 24.9354 48.6785 24.5514C48.1234 24.1674 47.4537 23.9639 46.7683 23.9709C45.9084 23.973 45.0844 24.3005 44.4768 24.8816C43.8692 25.4628 43.5275 26.2502 43.5267 27.0715C43.5293 27.386 43.401 27.6886 43.1701 27.9128C43.0557 28.0238 42.9195 28.1122 42.7694 28.1729C42.6192 28.2337 42.458 28.2656 42.295 28.2668C42.1319 28.2681 41.9702 28.2387 41.8191 28.1802C41.6679 28.1218 41.5303 28.0355 41.4141 27.9263C41.1793 27.7057 41.046 27.4051 41.0433 27.0906V27.0588C41.0473 26.747 41.1796 26.4493 41.4117 26.2301C41.6437 26.0108 41.9569 25.8877 42.2833 25.8873C42.5496 25.8873 42.8051 25.7862 42.9934 25.6064C43.1817 25.4265 43.2875 25.1826 43.2875 24.9283C43.2875 24.6739 43.1817 24.43 42.9934 24.2502C42.8051 24.0703 42.5496 23.9693 42.2833 23.9693C41.5979 23.9625 40.9284 24.1663 40.3735 24.5507C39.8187 24.935 39.4078 25.4794 39.2017 26.1037H38.7017C38.4364 26.1037 38.1821 26.2044 37.9946 26.3835C37.807 26.5626 37.7017 26.8055 37.7017 27.0588C37.7017 27.312 37.807 27.555 37.9946 27.7341C38.1821 27.9132 38.4364 28.0138 38.7017 28.0138H39.2017C39.4376 28.7159 39.9284 29.3145 40.5856 29.7017C41.2428 30.0888 42.0231 30.2391 42.786 30.1254C43.549 30.0118 44.2443 29.6417 44.7468 29.0817C45.2493 28.5218 45.5258 27.8089 45.5267 27.0715C45.5273 26.8371 45.6007 26.6081 45.7375 26.4136C45.8744 26.219 46.0685 26.0675 46.2955 25.9782C46.5224 25.889 46.772 25.8659 47.0126 25.912C47.2532 25.9581 47.4742 26.0713 47.6475 26.2373C47.8208 26.4033 47.9387 26.6146 47.9864 26.8445C48.034 27.0744 48.0092 27.3127 47.9151 27.5292C47.8211 27.7457 47.6619 27.9307 47.4578 28.0609C47.2537 28.191 47.0138 28.2605 46.7683 28.2605C46.5195 28.279 46.2869 28.3858 46.1163 28.5597C45.9457 28.7337 45.8494 28.9623 45.8462 29.2006C45.8431 29.4389 45.9334 29.6698 46.0994 29.8478C46.2654 30.0258 46.4951 30.138 46.7433 30.1625H46.7683C47.4554 30.1667 48.1257 29.9602 48.6807 29.5734C49.2358 29.1866 49.6462 28.6399 49.8516 28.0138H50.2433C50.5085 28.0138 50.7629 27.9132 50.9504 27.7341C51.138 27.555 51.2433 27.312 51.2433 27.0588C51.2433 26.8055 51.138 26.5626 50.9504 26.3835C50.7629 26.2044 50.5085 26.1037 50.2433 26.1037Z" fill="url(#paint4_linear_3_7348)"/>
<path d="M44.4768 5.95294C43.5848 5.95294 42.7128 6.20555 41.9712 6.67882C41.2295 7.15209 40.6515 7.82477 40.3101 8.6118C39.9688 9.39882 39.8794 10.2648 40.0535 11.1003C40.2275 11.9358 40.657 12.7033 41.2878 13.3057C41.9185 13.908 42.7221 14.3182 43.597 14.4844C44.4718 14.6506 45.3786 14.5653 46.2027 14.2393C47.0268 13.9133 47.7312 13.3613 48.2267 12.653C48.7223 11.9447 48.9868 11.1119 48.9868 10.2601C48.9864 9.11787 48.5111 8.02258 47.6654 7.21493C46.8197 6.40728 45.6728 5.95336 44.4768 5.95294ZM44.4768 12.6571C43.9804 12.6571 43.4951 12.5166 43.0823 12.2532C42.6696 11.9898 42.3478 11.6154 42.1579 11.1774C41.9679 10.7394 41.9182 10.2574 42.015 9.79241C42.1119 9.32742 42.3509 8.9003 42.702 8.56506C43.053 8.22982 43.5002 8.00152 43.9871 7.90903C44.474 7.81654 44.9787 7.86401 45.4373 8.04544C45.896 8.22687 46.288 8.53411 46.5638 8.92831C46.8396 9.32251 46.9868 9.78596 46.9868 10.2601C46.9864 10.8957 46.7218 11.5051 46.2512 11.9546C45.7805 12.404 45.1424 12.6567 44.4768 12.6571Z" fill="url(#paint5_linear_3_7348)"/>
<path d="M14.6548 36.2906H14.1548C13.8896 36.2906 13.6352 36.3912 13.4477 36.5703C13.2601 36.7494 13.1548 36.9923 13.1548 37.2456C13.1548 37.4989 13.2601 37.7418 13.4477 37.9209C13.6352 38.1 13.8896 38.2006 14.1548 38.2006H14.6548C14.92 38.2006 15.1744 38.1 15.3619 37.9209C15.5494 37.7418 15.6548 37.4989 15.6548 37.2456C15.6548 36.9923 15.5494 36.7494 15.3619 36.5703C15.1744 36.3912 14.92 36.2906 14.6548 36.2906Z" fill="url(#paint6_linear_3_7348)"/>
<path d="M32.3164 36.2906H17.873C17.6078 36.2906 17.3535 36.3912 17.1659 36.5703C16.9784 36.7494 16.873 36.9923 16.873 37.2456C16.873 37.4989 16.9784 37.7418 17.1659 37.9209C17.3535 38.1 17.6078 38.2006 17.873 38.2006H32.3164C32.5816 38.2006 32.836 38.1 33.0235 37.9209C33.211 37.7418 33.3164 37.4989 33.3164 37.2456C33.3164 36.9923 33.211 36.7494 33.0235 36.5703C32.836 36.3912 32.5816 36.2906 32.3164 36.2906Z" fill="url(#paint7_linear_3_7348)"/>
</g>
<defs>
<linearGradient id="paint0_linear_3_7348" x1="4.1499" y1="33.3139" x2="36.1797" y2="39.0844" gradientUnits="userSpaceOnUse">
<stop stop-color="#009DF5"/>
<stop offset="1" stop-color="#3CC4FF"/>
</linearGradient>
<linearGradient id="paint1_linear_3_7348" x1="11.9648" y1="45.6" x2="21.6513" y2="46.434" gradientUnits="userSpaceOnUse">
<stop stop-color="#009DF5"/>
<stop offset="1" stop-color="#3CC4FF"/>
</linearGradient>
<linearGradient id="paint2_linear_3_7348" x1="0.00439371" y1="-81.0767" x2="117.077" y2="-60.6666" gradientUnits="userSpaceOnUse">
<stop stop-color="#009DF5"/>
<stop offset="1" stop-color="#3CC4FF"/>
</linearGradient>
<linearGradient id="paint3_linear_3_7348" x1="63.7334" y1="43.2037" x2="74.9208" y2="45.4558" gradientUnits="userSpaceOnUse">
<stop stop-color="#009DF5"/>
<stop offset="1" stop-color="#3CC4FF"/>
</linearGradient>
<linearGradient id="paint4_linear_3_7348" x1="37.7017" y1="17.6919" x2="55.3568" y2="24.3337" gradientUnits="userSpaceOnUse">
<stop stop-color="#009DF5"/>
<stop offset="1" stop-color="#3CC4FF"/>
</linearGradient>
<linearGradient id="paint5_linear_3_7348" x1="39.9668" y1="-2.77771" x2="52.969" y2="-0.435185" gradientUnits="userSpaceOnUse">
<stop stop-color="#009DF5"/>
<stop offset="1" stop-color="#3CC4FF"/>
</linearGradient>
<linearGradient id="paint6_linear_3_7348" x1="13.1548" y1="34.3547" x2="16.6959" y2="35.1522" gradientUnits="userSpaceOnUse">
<stop stop-color="#009DF5"/>
<stop offset="1" stop-color="#3CC4FF"/>
</linearGradient>
<linearGradient id="paint7_linear_3_7348" x1="16.873" y1="34.3547" x2="24.5348" y2="45.7036" gradientUnits="userSpaceOnUse">
<stop stop-color="#009DF5"/>
<stop offset="1" stop-color="#3CC4FF"/>
</linearGradient>
<clipPath id="clip0_3_7348">
<rect width="81.0583" height="80" fill="white"/>
</clipPath>
</defs>
</svg>
