<svg width="46" height="46" viewBox="0 0 46 46" fill="none" xmlns="http://www.w3.org/2000/svg">
<path d="M31.0759 3.56226L0.672852 12.585L14.9221 21.6077L45.325 12.585L31.0759 3.56226Z" fill="#93CAFF"/>
<path d="M14.9221 45.3268L0.672852 36.304V12.585L14.9221 21.6077V45.3268Z" fill="#B3D8E9"/>
<path d="M14.9224 45.3268L45.3253 36.304V12.585L14.9224 21.6077V45.3268Z" fill="#B3D8E9"/>
<path d="M41.7314 13.7088V37.3705L45.3252 36.304V12.585L41.7314 13.7088Z" fill="#93CAFF"/>
<path d="M27.0367 13.678L12.7875 4.65527L0.672852 12.5849L14.9221 21.6076L27.0367 13.678Z" fill="#B3D8E9"/>
<path d="M30.9011 9.69726L16.6519 0.674561L31.0756 3.56222L45.3247 12.5849L30.9011 9.69726Z" fill="#B3D8E9"/>
<path d="M18.7251 40.2713L41.5218 33.4876V26.9124L18.7251 33.6961V40.2713Z" fill="#E1F1FA"/>
<path d="M45.9992 12.5742C45.9954 12.3499 45.8762 12.1361 45.6864 12.016L31.4373 2.99319C31.3675 2.94899 31.2901 2.91799 31.2091 2.90173L16.7854 0.0141617C16.0706 -0.129228 15.6771 0.854377 16.2926 1.24412L22.7476 5.33145L17.551 6.87371L13.1488 4.08622C12.9257 3.9449 12.6404 3.94706 12.4193 4.0917L7.08209 7.58535C6.37655 8.04715 7.08253 9.1958 7.82015 8.71298L12.7945 5.45696L25.793 13.6877L14.917 20.8066L1.91852 12.5759L4.8457 10.6599C5.55124 10.1981 4.84525 9.04944 4.10764 9.53226L0.304839 12.0215C0.117785 12.1437 0 12.362 0 12.5852V36.3042C0 36.5351 0.118234 36.75 0.313374 36.8735L14.5626 45.8963C14.724 45.9983 14.9321 46.0275 15.1148 45.973L39.8148 38.6428C40.6232 38.4029 40.2765 37.0998 39.4314 37.3508L15.5968 44.4242V22.1109L44.6521 13.4881V35.8013L42.8122 36.3474C42.0039 36.5873 42.3503 37.89 43.1956 37.6393L45.5177 36.9502C45.8037 36.8654 45.9998 36.6025 45.9998 36.3042V12.5852C45.9998 12.5815 45.9993 12.5779 45.9992 12.5742ZM30.8219 4.19871L41.897 11.2116L31.1572 9.06139L20.0821 2.04849L30.8219 4.19871ZM27.3981 13.109L19.0625 7.8309L24.2592 6.28865L30.5418 10.2669C30.6116 10.3111 30.689 10.3421 30.77 10.3584L42.5289 12.7125L19.1384 19.6541L27.4066 14.2421C27.5984 14.1166 27.7132 13.9023 27.7115 13.6732C27.7098 13.4441 27.5917 13.2316 27.3981 13.109ZM1.34765 13.8094L14.2493 21.9788V44.1027L1.34765 35.9335V13.8094Z" fill="#308EE1"/>
<path d="M41.9245 26.3725C41.754 26.2452 41.5334 26.2061 41.3295 26.2668L18.5329 33.0505C18.2472 33.1355 18.0513 33.3982 18.0513 33.6963V40.2715C18.0513 40.4843 18.1517 40.6845 18.3222 40.8117C18.44 40.8995 18.5816 40.9453 18.7251 40.9453C18.7894 40.9453 18.8541 40.9361 18.9173 40.9173L41.7139 34.1336C41.9996 34.0486 42.1955 33.7859 42.1955 33.4878V26.9126C42.1955 26.6998 42.0951 26.4996 41.9245 26.3725ZM40.8479 32.9853L19.3989 39.368V34.1988L40.8479 27.8162V32.9853Z" fill="#308EE1"/>
<path d="M26.2046 36.4165C26.5767 36.4165 26.8784 36.1148 26.8784 35.7426V33.8332C26.8784 32.99 25.5308 32.9515 25.5308 33.8332V35.7426C25.5308 36.1148 25.8325 36.4165 26.2046 36.4165Z" fill="#308EE1"/>
<path d="M35.147 33.6756C35.5191 33.6756 35.8208 33.3739 35.8208 33.0017V31.0922C35.8208 30.249 34.4731 30.2106 34.4731 31.0922V33.0017C34.4731 33.3739 34.7748 33.6756 35.147 33.6756Z" fill="#308EE1"/>
<path d="M37.1353 33.1365C37.5074 33.1365 37.8091 32.8348 37.8091 32.4627V30.5531C37.8091 29.71 36.4614 29.6715 36.4614 30.5531V32.4627C36.4614 32.8348 36.7631 33.1365 37.1353 33.1365Z" fill="#308EE1"/>
<path d="M39.124 32.5975C39.4962 32.5975 39.7979 32.2958 39.7979 31.9236V30.0141C39.7979 29.1709 38.4502 29.1324 38.4502 30.0141V31.9236C38.4502 32.2958 38.7519 32.5975 39.124 32.5975Z" fill="#308EE1"/>
<path d="M21.1421 37.9226C21.5142 37.9226 21.8159 37.6209 21.8159 37.2487V35.3393C21.8159 34.4961 20.4683 34.4576 20.4683 35.3393V37.2487C20.4683 37.6209 20.77 37.9226 21.1421 37.9226Z" fill="#308EE1"/>
<path d="M23.0898 37.4433C23.462 37.4433 23.7637 37.1416 23.7637 36.7695V34.86C23.7637 34.0168 22.416 33.9784 22.416 34.86V36.7695C22.416 37.1416 22.7177 37.4433 23.0898 37.4433Z" fill="#308EE1"/>
<path d="M29.7231 35.3286C30.0953 35.3286 30.397 35.0269 30.397 34.6547V32.7453C30.397 31.9021 29.0493 31.8636 29.0493 32.7453V34.6547C29.0493 35.0269 29.351 35.3286 29.7231 35.3286Z" fill="#308EE1"/>
<path d="M31.6279 34.8405C32.0001 34.8405 32.3018 34.5388 32.3018 34.1667V32.2572C32.3018 31.4141 30.9541 31.3756 30.9541 32.2572V34.1667C30.9541 34.5388 31.2558 34.8405 31.6279 34.8405Z" fill="#308EE1"/>
</svg>
