<svg width="39" height="43" viewBox="0 0 39 43" fill="none" xmlns="http://www.w3.org/2000/svg">
<path d="M4.32427 4.49224C4.32427 4.39961 4.39961 4.32427 4.49224 4.32427H29.4539V0.881836C29.4539 0.742674 29.3411 0.629883 29.202 0.629883H0.881836C0.742674 0.629883 0.629883 0.742674 0.629883 0.881836V38.5078C0.629883 38.6469 0.742674 38.7597 0.881836 38.7597H4.32427V4.49224Z" fill="#B8DCFF"/>
<path d="M4.32427 4.49224C4.32427 4.39961 4.3996 4.32427 4.49224 4.32427H4.8726V0.881836C4.8726 0.742674 4.9854 0.629883 5.12456 0.629883H0.881836C0.742674 0.629883 0.629883 0.742674 0.629883 0.881836V38.5078C0.629883 38.6469 0.742674 38.7597 0.881836 38.7597H4.32427V4.49224Z" fill="#93CAFF"/>
<path d="M26.5034 37.9632C26.3181 37.9632 26.1675 37.8125 26.1675 37.6272V29.1926C26.1675 29.0073 26.3181 28.8566 26.5034 28.8566H33.0643V26.1457H26.5034C26.3181 26.1457 26.1675 25.995 26.1675 25.8098V17.3751C26.1675 17.1899 26.3181 17.0392 26.5034 17.0392H33.0643V4.49219C33.0643 4.35303 32.9515 4.24023 32.8123 4.24023H4.49219C4.35303 4.24023 4.24023 4.35303 4.24023 4.49219V42.1181C4.24023 42.2573 4.35303 42.3701 4.49219 42.3701H32.8123C32.9515 42.3701 33.0643 42.2573 33.0643 42.1181V37.9632H26.5034Z" fill="#E1F1FA"/>
<path d="M7.79462 42.1181V4.49219C7.79462 4.35303 7.90741 4.24023 8.04657 4.24023H4.49219C4.35303 4.24023 4.24023 4.35303 4.24023 4.49219V42.1181C4.24023 42.2573 4.35303 42.3701 4.49219 42.3701H8.04657C7.90741 42.3701 7.79462 42.2573 7.79462 42.1181Z" fill="#C4E4F2"/>
<path d="M34.938 38.0472H26.5034C26.2715 38.0472 26.0835 37.8591 26.0835 37.6273V29.1926C26.0835 28.9607 26.2715 28.7727 26.5034 28.7727H34.9381C35.1699 28.7727 35.358 28.9607 35.358 29.1926V37.6273C35.3579 37.8591 35.1699 38.0472 34.938 38.0472Z" fill="#B3D8E9"/>
<path d="M28.8921 37.6273V29.1926C28.8921 28.9607 29.0801 28.7727 29.312 28.7727H26.5034C26.2715 28.7727 26.0835 28.9607 26.0835 29.1926V37.6273C26.0835 37.8591 26.2715 38.0472 26.5034 38.0472H29.312C29.0801 38.0472 28.8921 37.8591 28.8921 37.6273Z" fill="#93CAFF"/>
<path d="M34.938 26.2298H26.5034C26.2715 26.2298 26.0835 26.0418 26.0835 25.8099V17.3752C26.0835 17.1434 26.2715 16.9553 26.5034 16.9553H34.9381C35.1699 16.9553 35.358 17.1434 35.358 17.3752V25.8099C35.3579 26.0418 35.1699 26.2298 34.938 26.2298Z" fill="#B3D8E9"/>
<path d="M28.8921 25.8099V17.3752C28.8921 17.1434 29.0801 16.9553 29.312 16.9553H26.5034C26.2715 16.9553 26.0835 17.1434 26.0835 17.3752V25.8099C26.0835 26.0418 26.2715 26.2298 26.5034 26.2298H29.312C29.0801 26.2298 28.8921 26.0418 28.8921 25.8099Z" fill="#93CAFF"/>
<path d="M10.4487 15.1418H26.8558C27.2038 15.1418 27.4857 14.8598 27.4857 14.512C27.4857 14.1641 27.2038 13.8821 26.8558 13.8821H10.4487C10.1008 13.8821 9.81885 14.1641 9.81885 14.512C9.81885 14.8598 10.1009 15.1418 10.4487 15.1418Z" fill="#308EE1"/>
<path d="M10.4486 18.8477H16.2945C16.6424 18.8477 16.9243 18.5656 16.9243 18.2178C16.9243 17.8699 16.6424 17.5879 16.2945 17.5879H10.4487C10.1008 17.5879 9.81885 17.8699 9.81885 18.2178C9.81885 18.5656 10.1008 18.8477 10.4486 18.8477Z" fill="#308EE1"/>
<path d="M10.4487 29.9653H19.8219C20.1698 29.9653 20.4518 29.6833 20.4518 29.3354C20.4518 28.9876 20.1698 28.7056 19.8219 28.7056H10.4487C10.1008 28.7056 9.81885 28.9876 9.81885 29.3354C9.81885 29.6833 10.1009 29.9653 10.4487 29.9653Z" fill="#308EE1"/>
<path d="M13.6094 10.355H23.6957C24.0437 10.355 24.3256 10.073 24.3256 9.7251C24.3256 9.37723 24.0437 9.09521 23.6957 9.09521H13.6094C13.2614 9.09521 12.9795 9.37723 12.9795 9.7251C12.9795 10.073 13.2615 10.355 13.6094 10.355Z" fill="#308EE1"/>
<path d="M37.0568 28.2775L35.9879 29.3463V29.1926C35.9879 28.6137 35.517 28.1428 34.9381 28.1428H33.6942V26.8595H34.9381C35.517 26.8595 35.9879 26.3886 35.9879 25.8097V24.7754C35.9879 24.4275 35.706 24.1455 35.358 24.1455C35.0101 24.1455 34.7281 24.4275 34.7281 24.7754V25.5998H26.7134V17.5851H34.7281V18.7886L31.2693 22.2475L29.004 19.9822C28.7579 19.7362 28.3592 19.7362 28.1132 19.9822C27.8672 20.2281 27.8672 20.627 28.1132 20.8729L30.8239 23.5837C30.9469 23.7067 31.1081 23.7682 31.2693 23.7682C31.4305 23.7682 31.5917 23.7067 31.7148 23.5837L34.7282 20.5703V21.8359C34.7282 22.1838 35.0101 22.4658 35.3581 22.4658C35.706 22.4658 35.988 22.1838 35.988 21.8359V19.3104L37.9477 17.3508C38.1937 17.1048 38.1937 16.7059 37.9477 16.46C37.7016 16.214 37.3028 16.214 37.0568 16.46L35.988 17.5289V17.3752C35.988 16.7963 35.5171 16.3254 34.9382 16.3254H33.6943V4.49224C33.6943 4.00597 33.2987 3.6104 32.8124 3.6104H30.0839V0.881836C30.0839 0.395566 29.6883 0 29.202 0H0.881836C0.395566 0 0 0.395566 0 0.881836V38.5078C0 38.994 0.395566 39.3896 0.881836 39.3896H3.6104V42.1182C3.6104 42.6044 4.00597 43 4.49224 43H32.8124C33.2986 43 33.6942 42.6044 33.6942 42.1182V38.6771H34.9381C35.517 38.6771 35.9879 38.2062 35.9879 37.6273V31.1279L37.9476 29.1682C38.1936 28.9222 38.1936 28.5234 37.9476 28.2775C37.7016 28.0315 37.3027 28.0315 37.0568 28.2775ZM34.7281 30.6061L31.2692 34.0649L29.0039 31.7996C28.7578 31.5536 28.3591 31.5536 28.1131 31.7996C27.8671 32.0456 27.8671 32.4444 28.1131 32.6903L30.8239 35.4011C30.9469 35.5241 31.1081 35.5856 31.2693 35.5856C31.4305 35.5856 31.5917 35.5241 31.7148 35.4011L34.7282 32.3877V37.4174H32.1676C31.8197 37.4174 31.5377 37.6994 31.5377 38.0473C31.5377 38.3951 31.8197 38.6772 32.1676 38.6772H32.4345V41.7402H4.87025V4.87017H10.6676C11.0156 4.87017 11.2975 4.58815 11.2975 4.24029C11.2975 3.89242 11.0156 3.6104 10.6676 3.6104H4.49232C4.00605 3.6104 3.61049 4.00597 3.61049 4.49224V38.1297H1.25977V1.25977H28.824V3.6104H13.6071C13.2591 3.6104 12.9772 3.89242 12.9772 4.24029C12.9772 4.58815 13.2591 4.87017 13.6071 4.87017H32.4345V16.3253H26.5035C25.9246 16.3253 25.4537 16.7962 25.4537 17.3751V17.5879H18.6461C18.2982 17.5879 18.0162 17.8699 18.0162 18.2178C18.0162 18.5657 18.2982 18.8477 18.6461 18.8477H25.4537V21.2937H10.4487C10.1008 21.2937 9.81886 21.5758 9.81886 21.9236C9.81886 22.2715 10.1008 22.5535 10.4487 22.5535H25.4536V24.9995H10.4487C10.1008 24.9995 9.81886 25.2816 9.81886 25.6294C9.81886 25.9773 10.1008 26.2593 10.4487 26.2593H25.5563C25.7251 26.6135 26.0856 26.8595 26.5035 26.8595H32.4344V28.1427H26.5035C26.1004 28.1427 25.7502 28.3714 25.5743 28.7054H22.1735C21.8255 28.7054 21.5436 28.9875 21.5436 29.3353C21.5436 29.6832 21.8255 29.9652 22.1735 29.9652H25.4537V32.4113H10.4487C10.1008 32.4113 9.81886 32.6933 9.81886 33.0411C9.81886 33.389 10.1008 33.671 10.4487 33.671H25.4536V36.1171H10.4487C10.1008 36.1171 9.81886 36.3992 9.81886 36.747C9.81886 37.0949 10.1008 37.3769 10.4487 37.3769H25.4536V37.6271C25.4536 38.206 25.9245 38.6769 26.5035 38.6769H29.2282C29.5761 38.6769 29.858 38.3949 29.858 38.047C29.858 37.6992 29.5761 37.4171 29.2282 37.4171H26.7135V29.4024H34.7282V30.6061H34.7281Z" fill="#308EE1"/>
</svg>
