<svg width="27" height="27" viewBox="0 0 27 27" fill="none" xmlns="http://www.w3.org/2000/svg">
<path fill-rule="evenodd" clip-rule="evenodd" d="M4.00004 1.33333C2.52728 1.33333 1.33337 2.52726 1.33337 3.99999V22.6667C1.33337 24.1394 2.52728 25.3333 4.00004 25.3333H22.6667C24.1395 25.3333 25.3334 24.1394 25.3334 22.6667V3.99999C25.3334 2.52726 24.1395 1.33333 22.6667 1.33333H4.00004ZM8.00004 14.6667C8.00004 13.9303 7.40309 13.3333 6.66671 13.3333C5.93033 13.3333 5.33337 13.9303 5.33337 14.6667V20C5.33337 20.7364 5.93033 21.3333 6.66671 21.3333C7.40309 21.3333 8.00004 20.7364 8.00004 20V14.6667ZM13.3334 9.33333C14.0698 9.33333 14.6667 9.93025 14.6667 10.6667V20C14.6667 20.7364 14.0698 21.3333 13.3334 21.3333C12.597 21.3333 12 20.7364 12 20V10.6667C12 9.93025 12.597 9.33333 13.3334 9.33333ZM21.3334 6.66666C21.3334 5.93025 20.7364 5.33333 20 5.33333C19.2637 5.33333 18.6667 5.93025 18.6667 6.66666V20C18.6667 20.7364 19.2637 21.3333 20 21.3333C20.7364 21.3333 21.3334 20.7364 21.3334 20V6.66666Z" fill="#5CD3CC"/>
</svg>
