<svg width="32" height="32" viewBox="0 0 32 32" fill="none" xmlns="http://www.w3.org/2000/svg">
<path fill-rule="evenodd" clip-rule="evenodd" d="M5.33337 8C5.33337 5.05449 7.72119 2.66667 10.6667 2.66667H18.6667V8C18.6667 10.9455 21.0545 13.3333 24 13.3333H26.6667V24C26.6667 26.9455 24.2789 29.3333 21.3334 29.3333H10.6667C7.72119 29.3333 5.33337 26.9455 5.33337 24V8ZM10.6667 14.6667C9.93033 14.6667 9.33337 15.2636 9.33337 16C9.33337 16.7364 9.93033 17.3333 10.6667 17.3333H13.3334C14.0698 17.3333 14.6667 16.7364 14.6667 16C14.6667 15.2636 14.0698 14.6667 13.3334 14.6667H10.6667ZM10.6667 20C9.93033 20 9.33337 20.597 9.33337 21.3333C9.33337 22.0697 9.93033 22.6667 10.6667 22.6667H16C16.7364 22.6667 17.3334 22.0697 17.3334 21.3333C17.3334 20.597 16.7364 20 16 20H10.6667ZM22.2424 5.59839L22.0678 8.21718C22.0142 9.02209 22.682 9.68991 23.4869 9.63625L26.1057 9.46166C27.2487 9.38546 27.7698 7.99849 26.9598 7.18847L24.5156 4.74427C23.7056 3.93425 22.3186 4.45538 22.2424 5.59839Z" fill="#43A5D8"/>
</svg>
